<?xml version="1.0" encoding="UTF-8"?>
<svg width="1200pt" height="1200pt" version="1.1" viewBox="0 0 1200 1200" xmlns="http://www.w3.org/2000/svg">
 <path d="m123.23 593.44-0.054687 0.054688-0.41406 0.75781c-0.23437 0.41406-0.28906 0.64844-0.41406 0.88281 0.12109 5.9922 2.3516 13.266 2.6992 17.492 0.88281 9.6172 0.88281 19.246 0.82422 28.875 2.1641-2.5859 4.3984-5.1094 6.75-7.5v0.003906c6.625-6.8828 12.219-14.691 16.605-23.176 0.03125-2.9961 1.9727-5.6328 4.8164-6.5625 20.297-7.0391 35.973-25.18 55.922-32.746 1.5273-0.82422 3-1.707 4.6406-2.5312 8.9141-4.5742 16.602-8.625 21.891-12.027 5.043-3.0469 8.5703-6.1016 9.6172-5.1016 1.0508 1.0039 0 4.8672-5.043 10.445h0.003906c-1.668 1.7852-3.4727 3.4336-5.4023 4.9297 13.816-0.14062 27.562 2.0195 40.668 6.3945-1.2852-3.0469-2.3438-6.1016-3.168-8.4375-0.73828-1.7891-1.3828-3.6133-1.9297-5.4648-0.53516-1.3516-1.3516-2.3438-0.88281-2.9336 0.46875-0.58984 1.3516-0.9375 3.1133-0.16797v-0.003906c2.293 1.2969 4.2734 3.082 5.8047 5.2227 2.0312 2.7812 3.8945 5.6797 5.5781 8.6797 2.0078 3.6836 3.6914 7.5312 5.043 11.504 1.2383 3.582 2.2969 7.2734 3.2344 10.508v0.003906c2.707 5.8984 5.1172 11.93 7.2188 18.074 4.2188 11.324 8.9141 31.988 21.242 37.855h0.11328c7.9219 0 12.797-9.5703 17.551-15.086-5.2383-12.031-8.6719-24.773-10.191-37.809-6.0117-0.75781-11.633-3.3789-16.078-7.5-8.8594-8.5664-14.57-19.871-16.211-32.086-1.6406-12.215 0.88672-24.625 7.1719-35.227 9.0195-15.484 21.195-28.902 35.738-39.375 0.38281-0.93359 0.83203-1.8359 1.3516-2.6992 3.2266-5.6914 6.5625-11.09 8.8047-15.723 2.3438-4.875 4.3398-9.6836 6.4492-13.621 0.96094-1.8086 2.0391-3.5547 3.2344-5.2227 0.94141-1.3203 2.0039-2.5586 3.168-3.6914 1.9297-1.5273 3.2266-2.1758 3.75-1.7617 0.52344 0.41406 0.30078 1.875-0.70312 4.1641-0.40234 1.0586-0.81641 2.3516-1.3516 3.8828-0.53516 1.5273-0.99219 3.3359-1.6406 5.2773-1.1719 3.9922-2.4102 8.9805-4.5195 14.559-0.70312 1.875-1.5859 3.6367-2.4648 5.457v-0.003906c5.8906-2.7812 12.102-4.832 18.488-6.1055l1.293-0.17969v0.003906c0.25-0.75 0.5625-1.4805 0.9375-2.1758 45.074-75.234 140.49-99.648 198.01-161.62h0.003907c-1.2695-4.7969-3.2695-9.3672-5.9258-13.555-0.75781 1.0039-1.5273 1.9961-2.3438 2.9922-1.4727 1.9414-2.9336 3.8828-4.6875 5.9922l-1.4141 1.5859-0.46875 0.46875-0.16797 0.12109-0.35547 0.34766-0.75781 0.64844-3 2.5781c-22.359 19.078-41.84 32.691-43.602 30.637-1.7617-2.0547 14.852-19.133 37.031-38.023l3-2.5859 0.70312-0.58203 0.40234-0.35547 0.17969-0.17969 1.0586-1.2266c1.6406-1.875 3.2266-3.8711 4.7539-5.6914 1.3516-1.5859 2.7578-3.3477 4.1055-4.8203-19.836-23.242-58.633-37.969-88.031-37.969l-0.007812-0.007813c-4.6055-0.027344-9.207 0.38672-13.734 1.2383-0.16797 0-0.28906 1.0508-0.46875 1.2266-26.055 29.164-56.398 53.344-79.051 85.688-20.016 28.574-36.977 60.383-59.625 87.027-23.539 25.602-49.57 48.801-77.699 69.254-12.645 9.957-24.617 21.395-38.137 30.152-14.559 9.375-31.52 14.727-39.789 31.098v-0.003907c-0.9375 1.9883-2.6602 3.5-4.75 4.1719-0.23047 0.13672-0.44922 0.29297-0.64844 0.46875-9.4492 5.9258-29.699 12.852-32.043 25.586 2.1641-1.2266 4.3984-2.5234 6.6836-3.8164 5.2305-2.8672 10.312-5.457 14.906-7.8008s8.8047-4.4609 12.383-6.1016c7.1641-3.2344 11.973-4.6406 12.676-3.4688s-2.7578 4.6875-9.0391 9.4492c-3.168 2.4102-6.9844 5.1094-11.25 7.9219s-9.375 5.625-14.605 8.5117c-2.6445 1.4062-5.2227 2.8125-7.7539 4.1719-2.5312 1.3594-5.1016 2.6328-6.6289 3.6367l0.003906 0.003907c-0.77344 0.52344-1.5195 1.0898-2.2305 1.6953-0.22266 0.30469-0.47656 0.57812-0.76172 0.82422zm170.84 208.12c-2.4648 1.4062-4.875 7.5664-6.3359 10.031-2.0547 3.3477-3.9922 6.8047-6.1602 10.098-3.6367 6.5078-8.2734 12.41-13.734 17.484-8.8047 6.8711-23.945 3-34.164 3-5.2227 0-5.7461-9.2148-1.6953-11.25 0.70313-12.188 1.1719-24.422 1.2266-36.684-0.078125-2.0273 1.3945-3.7773 3.4023-4.0508 0.12109-0.054687 0.12109-0.17969 0.23438-0.23438l2.6992-1.5859v-43.488c-20.066 36.172-35.578 74.688-46.18 114.67 23.352 0.66406 46.641 2.8008 69.723 6.3945 26.762 3.043 53.691 4.4141 80.625 4.1055 51 1.6484 101.35 6.2812 152.35 8.1016 98.652 3.4688 195.37 14.559 295.13 14.559 1.8203-25.473 6.2266-50.82 8.1016-76.414-15.32-0.054687-30.336-2.8789-45.543-4.3984-3.4023-0.30469-6.2578-2.6914-7.1523-5.9883-0.91406-0.97266-1.5625-2.1641-1.875-3.4609h-1.9336c1.3867 16.668 0.67578 33.445-2.1094 49.941 1.375 3.8008 2.4336 7.707 3.1719 11.68 1.418 3.6016 2.6094 7.2852 3.5703 11.035 0.35156 1.3203 0.078125 2.7266-0.74609 3.8164-0.82422 1.0898-2.1055 1.7344-3.4727 1.7539-61.977 1.707-123.19-6.2734-184.87-11.035-62.504-4.8086-125.36-5.9258-187.69-13.078-24.77-2.8125-50.23-1.4141-74.531-5.5234-5.7461-0.99219-15.789-7.0391-14.793-14.148 4.9297-34.977 40.445-42.602 69.375-42.309 0.17969-3.8164 0.23438-7.6328 0.28906-11.504-15.086-1.7617-47.711-7.5742-56.691 4.0508v0.23438h0.003906c-0.17578 3.2461 0.28516 6.4922 1.3477 9.5625 0.81641 1.7188 0.11328 3.7734-1.582 4.6328zm765.64-524.14c91.727 1.7539 117.9 113.96 94.961 186.85-0.17969 0.50781-0.39844 1-0.64844 1.4727 0.10938 3.3984-2.2812 6.3672-5.625 6.9844-87.094 21.008-171.96 46.828-258.23 70.426-0.066406 0-0.12109 0-0.12109 0.054688-8.3281 11.309-18.324 21.285-29.645 29.598 86.324 40.379 116.49 137.04 82.219 225.94-4.0078 4.082-9.207 6.7969-14.848 7.7539-29.691-5.3984-60-1.6484-89.906-5.0547-7.332-0.81641-14.672-1.7539-21.945-2.6992-0.58984 42.141-11.445 83.438-9.4492 125.54h-0.003906c0.14844 2.332-0.83203 4.5898-2.6289 6.0742-1.8008 1.4844-4.207 2.0156-6.4648 1.4258-0.81641 0.26563-1.6719 0.40625-2.5312 0.41406-37.32 0.054687-74.879-1.0039-112.45-2.8789-0.52344 12.027-1.9961 24-2.6992 36.039-0.21484 4.6172-3.9453 8.2891-8.5664 8.4375-1.0352 0.27344-2.1016 0.39453-3.168 0.35547-104.38-6.5195-208.8-13.035-313.27-19.547-70.895-4.4609-141.79-9.0391-212.68-13.734-31.633-2.1094-65.852-1.0586-97.012-7.3984h-0.003906c-1.9922-0.30078-3.7812-1.3906-4.9609-3.0234s-1.6523-3.6719-1.3125-5.6562c-0.12109-0.66016-0.18359-1.3281-0.17969-1.9961 0.054688-22.5 0.52344-45-0.70312-67.434-0.69531-2.2891-0.26172-4.7734 1.1719-6.6875 12.328-18.488 19.688-39.676 32.277-57.984h0.003906c8.7812-12.609 16.793-25.742 24-39.316-2.1094-0.46875-4.1641-1.0039-6.2812-1.293-1.8789-0.3125-3.5391-1.3984-4.5781-2.9922-1.918-1.5312-3.125-3.7812-3.3438-6.2266-0.69922-12.215-0.69922-24.457 0-36.672 0.019531-0.83594 0.14062-1.6602 0.35547-2.4688-0.0625-1.4336 0.21875-2.8672 0.82422-4.1719 6.9453-15.91 16.004-30.816 26.934-44.305-0.66406-1.2656-1.0078-2.6758-1.0039-4.1055 0.50391-16.242-0.31641-32.496-2.4531-48.602-2.3711-8.9141-0.10156-18.426 6.0352-25.312 4.1172-19.773 24.535-27.816 40.434-37.848 0.039062 0 0.066406-0.027343 0.066406-0.0625 5.1797-9.5938 13.055-17.461 22.652-22.633 17.488-10.082 34.078-21.648 49.594-34.566 26.934-21.309 56.57-41.438 78.992-67.848 28.285-33.395 48.824-72.711 75.469-107.4 20.43-26.645 47.008-47.062 69.254-71.953 0.96484-1.0977 2.1992-1.9219 3.582-2.3984 1.1953-1.4766 2.8828-2.4727 4.75-2.8125 44.832-9.4492 118.9 18.074 133.87 65.793 54.75 0.52344 109.4 4.3398 164.06 7.2734 1.9688 0.078125 3.8555 0.82031 5.3438 2.1094 3.8125 0.83594 6.4961 4.2617 6.3945 8.168 0.11328 10.789 1.2266 21.562 1.4062 32.391 11.355 9.3203 24.863 15.656 39.289 18.43 32.867 5.1016 62.09-3.7031 93.195-13.5 51.113-16.199 114.26-28.996 153.23-67.848 0.054688-0.11328 0.17969-0.16797 0.23438-0.23438h0.003906c1.4336-1.9102 3.7148-3 6.1016-2.9141zm80.109 181.11c18.656-61.621 0.70312-161.1-77.176-165.09-21.582 19.328-47.145 33.672-74.887 42.02-34.566 12.188-69.188 24.375-104.4 34.508v0.003906c-25.871 9.0234-53.574 11.48-80.625 7.1523-27.461-5.3984-44.184-21.945-66.141-37.68-0.16797 0-0.23438 0.066406-0.41406 0.066406-16.492 0.40234-32.98 3.5703-49.473 2.9336-11.68-1.8438-23.633-0.77734-34.801 3.1055 17.27 2.082 33.512 9.3203 46.605 20.773 1.8359 1.4727 2.8047 3.7695 2.5781 6.1133-0.22266 2.3438-1.6133 4.4141-3.6953 5.5117-0.32422 0.37891-0.67969 0.73438-1.0586 1.0586-25.941 20.711-51.414 41.605-75.883 64.023-15.625 14.277-52.422 35.09-57.008 57.758 11.445 15.496 42.254 4.1719 57.695 2.1172v0.003906c0.71484-0.125 1.4492-0.125 2.1641 0 2.3672-1.0625 5.0859-0.99609 7.3984 0.17578 1.5859-2.7656 3-5.2891 4.1055-7.5 2.8125-4.9219 3.8164-9.1484 5.2891-9.0391 0.70312 0 1.2266 1.0586 1.6953 2.9336v0.003906c0.28125 1.1719 0.35938 2.3828 0.23438 3.582-0.023437 1.625-0.23828 3.2422-0.63672 4.8164-2.1016 7.6445-4.832 15.102-8.168 22.293-0.12891 6.4414 2.4414 12.641 7.0938 17.094 4.6523 4.4531 10.957 6.7578 17.387 6.3438 1.2422-0.023438 2.4727 0.26172 3.5781 0.82812 1.8203-2.6445 3.582-4.875 4.7539-6.6953 2.8789-3.4609 3.9297-7.5 5.3359-7.2188 1.1797 0.066406 3.1133 3.4688 1.0586 10.152-1.3516 4.875-4.8086 10.312-6.75 15.496 0.64844 8.1562 4.8203 23.531 12.676 25.883 1.5273-0.64844 3.1133-1.4141 4.9297-2.2305v0.003907c3.9961-1.8906 8.2812-3.1016 12.676-3.582 6.5625-3.9297 11.914-3.6953 13.125-1.707 1.4141 2.4648-4.1641 7.1641-9.375 11.035-1.0586 0.88281-2.1758 1.6484-3.2344 2.4102 0.11328 0.85937 0.074219 1.7305-0.11328 2.5781 0.070312 0.44531 0.10547 0.89453 0.11328 1.3477 0.35547 34.164 97.012-2.9336 112.5-8.4375 24.879-8.7344 46.984-23.945 64.031-44.062-6.0703 1.3672-12.355 1.5273-18.488 0.46875-5.2891-0.88281-8.5117-2.2305-8.5117-3.5234s3.2891-2.5234 8.5117-3.4023c6.3125-0.70313 12.555-1.9375 18.656-3.6953l0.30078-0.12109h0.054688l0.64844-0.16797c6.7422-2.1953 13.75-3.457 20.832-3.75 81.711-22.438 162.29-46.672 244.81-66.742zm-211.1 332.18c9.2695-23.57 13.195-48.898 11.5-74.168-1.6953-25.27-8.9727-49.848-21.305-71.969-0.34375 4.3281-1.0117 8.625-1.9961 12.852-1.6953 6.8711-3.9297 13.68-6.1016 20.43h-0.003906c7.4961 10.875 13.391 22.77 17.496 35.324 6.918 22.828 1.5195 53.289-4.4609 76.875 1.6367 0.12109 3.2891 0.42188 4.8711 0.65625zm-13.715-1.707c9.5547-33.387 6.3711-69.133-8.9258-100.31-5.625 10.312-14.203 18.836-19.367 29.512v0.003907c-0.71875 1.7773-2.7227 2.6641-4.5195 1.9961-0.22656 0.089844-0.46094 0.14844-0.70312 0.17578-48.648-0.23437-97.246 0.82422-145.84 1.0586v0.003906c9.1016 17.668 15.992 36.391 20.52 55.742 31.105 1.2266 61.508 7.5 92.492 9.375 22.129 1.3984 44.309 0.39453 66.34 2.4453zm-5.8125-137.5c1.0586-6.0469 1.4062-12.188 2.1758-18.309-10.758-14.535-24.152-26.922-39.488-36.504-0.67188 10.312-3.8945 20.301-9.375 29.062l-0.17969 0.17969v-0.003906c9.9844 4.6289 18.645 11.691 25.184 20.543 5.625 7.2188 11.504 14.672 17.082 22.359 1.957-5.6523 3.4922-11.445 4.582-17.324zm-8.4375 28.125c0.054688-0.12109 0.16797-0.17969 0.23438-0.30078v0.003906c-5.7031-9.5-12.312-18.426-19.734-26.652-24.375-27.188-56.156-19.367-87.965-12.086-21.008 4.8086-41.672 10.445-62.211 16.875h-0.003907c-1.2695 0.39062-2.6484 0.14453-3.707-0.66016-1.0586-0.80078-1.668-2.0625-1.6367-3.3906 0-0.066407-0.054687-0.066407-0.054687-0.17969-0.88281-4.2852-1.9961-12.617-7.5664-13.613v0.003906c-5.6094-0.86328-11.309-1.0234-16.957-0.48047-6.6211 0.47656-13.184 1.5625-19.605 3.2344 2.1094 2.3438 4.2188 4.6875 6.2148 7.2188 16.273 19.645 30.73 40.723 43.203 62.973 49.797-0.074219 99.57-1.2656 149.35-1.0117 5.9727-11.164 15.355-20.203 20.41-31.941zm-45.844-58.34c5.5859-8.8242 8.5156-19.074 8.4375-29.52-4.1719-2.2891-8.5117-4.3398-13.031-6.2734 0.58984 7.5664 0.70312 16.023 0.70312 16.023 0.085937 1.8594-1.0898 3.5469-2.8672 4.1055-0.21875 0.22266-0.48047 0.40234-0.76953 0.52344-17.137 6.4609-31.34 15.262-49.762 17.961-15.938 2.2891-31.93 7.9219-47.812 8.5703-1.9883 0.17969-3.7773-1.1992-4.1094-3.168 0-0.066407-0.066406-0.066407-0.066406-0.12109-0.23438-0.35547-0.40234-0.75781-0.64844-1.1172-2.2891 6.0469-4.8086 12.027-7.1523 18.074l0.003906 0.003906c34-10.289 68.723-18.016 103.88-23.121 4.1914-0.60938 8.457-0.51172 12.617 0.29297-0.03125-0.78516 0.16016-1.5625 0.55469-2.2422zm-12.676-22.5c-0.054688-4.2266-0.16797-9.1016-0.64844-13.855h0.003907c-21.367 11.191-43.898 19.992-67.191 26.25-6.0469 1.7617-14.672 4.2852-24.242 6.4023h-0.003906c0.57031 2.1211 1.3789 4.168 2.4102 6.1055 16.418-2.0586 32.695-5.0977 48.75-9.0938 14.098-3.9727 27.789-9.2578 40.895-15.789zm-42.188 201.65c0-1.2383 0.12109-2.4102 0.12109-3.6367-13.613-1.6406-27.234-3.0547-40.969-3.7031 0.17969 1.1797 0.35547 2.4102 0.53516 3.582 13.34 2.0469 26.789 3.3086 40.277 3.7773zm-9.4766 115.87c-0.066406-4.9297 0-9.8516 0.23438-14.785-99.656 0-196.2-12.094-294.73-14.559-54.637-1.3516-108.39-8.2109-162.98-8.1562-47.418 0.054687-93.555-9.375-140.79-10.5 1.1836 3.4492 2.6797 6.7891 4.4609 9.9727 51.055 0.23438 100.88 12.027 151.82 11.672 51.184-0.41406 102.34 2.3672 153.18 8.3359 95.84 11.582 192.27 17.598 288.81 18.02zm-47.43-591.63c2.1172 1.5273 4.2266 3.1133 6.3477 4.6875-0.24219-3.75-0.47656-7.5742-0.58984-11.324-52.941-2.9336-105.82-6.4609-158.87-6.9844-0.054688 0.11328-0.11328 0.17969-0.17969 0.28906-54.281 60.938-146.54 84.75-193.2 153.59 21.34 3.7227 41.285 13.113 57.75 27.188 34.742-52.5 107.76-139.69 178.71-146.77h-0.003907c1.3125-3.3047 3.1992-6.3438 5.5781-8.9805 0.6875-1.5273 1.832-2.8008 3.2812-3.6406 12.414-6.0508 26.344-8.2773 40.023-6.3906 18.195 0.70312 36.094-2.3516 54.168-2.8125 0.30078 0 0.47656 0.066406 0.71094 0.066406l0.003907-0.003906c2.1367-0.73047 4.5039-0.32031 6.2695 1.0898zm-10.68 524.06h0.003907c2.2695-15.348 2.7852-30.906 1.5273-46.371-27.074-0.47266-54.102-2.5312-80.934-6.1562-0.96875-0.17578-1.8633-0.625-2.5781-1.2969-1.7539-0.13672-3.2656-1.2812-3.875-2.9336-8.8203-24.512-22.973-46.758-41.438-65.137-3.2734 7.6016-7.8398 14.582-13.5 20.625-6.9844 7.8672-13.258 16.133-19.836 24.375 13.168 15.012 27.344 29.105 42.43 42.188 16.023 12.965 34.453 22.238 51.301 34.039 22.289-1.3789 44.645-1.168 66.902 0.62891zm-32.57 23.242c13.379 0.28906 41.023 8.1016 32.812-12.039h0.003906c-0.33984-0.77734-0.40625-1.6484-0.17969-2.4648-18.793-1.9219-37.719-2.2344-56.566-0.9375-2.5234 5.1992-6.0547 9.8516-10.387 13.676 11.426 0.77734 22.875 1.4258 34.32 1.7266zm30.805-231.56c2.8125-6.8164 5.5781-13.621 7.9219-20.539l0.003907-0.003906c-14.359 3.3984-29.395 2.582-43.301-2.3516-0.066406 0-0.12109 0.066406-0.24219 0h-0.003907c-11.555 0.37891-23.012 2.2344-34.094 5.5195 4.6875 3.8164 9.2734 7.8672 13.621 12.188 13.77-4.832 28.48-6.3828 42.957-4.5273 5.6992 0.86328 10.613 4.4727 13.141 9.6562zm-25.637 152c12.262 0.70313 24.883 1.1172 38.316 1.2383v-0.003906c-11.379-61.438-43.688-117.04-91.434-157.34-47.562-36.102-106.56-53.816-166.14-49.883-29.367 1.2344-58.086 9.0078-84.066 22.758-25.98 13.746-48.562 33.117-66.102 56.703-25.059 31.977-47.477 57.039-84.375 71.07v13.324c28.941 0.58203 55.172 2.6992 72.477-26.117 0.53516-0.88281 1.0586-1.707 1.5859-2.5859v-0.003906c-0.085938-0.83984 0.054688-1.6875 0.41406-2.457 2.2734-5.4609 5.8867-10.266 10.508-13.969 8.75-12.477 19.109-23.746 30.805-33.516 34.867-28.809 86.859-51.414 132.82-49.117 52.641 2.6328 111.27 15.844 154.59 47.297 35.297 25.598 45.629 82.062 50.613 122.6zm-8.9258-0.58203c-3.4609-27.938-10.387-64.789-25.004-88.914h0.003906c-15.449-23.719-38.828-41.172-65.965-49.238-53.578-18.844-113.32-32.746-168.2-10.977-26.586 10.621-56.691 25.312-76.586 46.48-3.5547 3.8438-6.9062 7.8711-10.039 12.066 14.492 1.0039 31.105 13.621 46.949 18.074 18.824-18.508 42.281-31.613 67.91-37.93 25.633-6.3203 52.492-5.625 77.758 2.0156 56.25 15.609 90.195 50.352 111.27 104.11 14.371 1.8555 28.051 3.3086 41.898 4.3125zm-13.969-189.38h0.003906c-0.43359-1.4492-0.78516-2.918-1.0508-4.4062-17.812 0.35547-29.699-21.242-31.164-39.32-9.2773-1.4805-17.699-6.2891-23.691-13.523-5.9961-7.2344-9.1523-16.402-8.8867-25.793-20.484 3.582-44.43 9.375-60.797-3.582-1.3359 2.9961-2.3008 6.1445-2.8789 9.375 44.539 8.0352 99.891 32.746 102.36 82.867 8.8047-1.4648 17.309-4.1094 26.113-5.5703zm-2.2852-230.42c-0.82422-0.52344-1.6406-1.0586-2.4648-1.5273-48.242-8.8047-99.59 36.562-133.4 66.676-32.512 28.988-52.996 64.199-77.645 99.375v-0.003906c-0.69141 1.0547-1.8008 1.7578-3.0469 1.9414-0.32031 0.21875-0.67969 0.37891-1.0586 0.46875-2.1094 0.28906-4.2266 0.52344-6.3359 0.70312-0.89062 0.73438-2.0156 1.1289-3.168 1.1172-0.26953 0.082032-0.54687 0.14063-0.82812 0.16797-23.008-0.34766-45.602 3.1133-68.605 0.71094-2.1641-0.23438-4.6328-1.8203-4.3984-4.4062 3.4023-34.801-34.332-12.617-43.602-1.5273-8.0977 8.4727-15.227 17.816-21.262 27.863 0.74609 1.7695 1.668 3.4609 2.7578 5.043 13.125 18.602 30.695 8.3906 44.773 3.2266 15.711-6.0312 32.113-10.074 48.824-12.031 2.5117-0.47656 5.0586 0.64062 6.4023 2.8125 6.6211 3.9805 11.926 9.8203 15.254 16.793 27.285-7.6992 55.727-10.461 83.98-8.1562-2.7227-23.527 2.8867-47.27 15.855-67.09 8.5195-12.293 18.965-23.129 30.938-32.098 8.1562-8.1562 18.188-15 27.055-22.883 29.785-26.176 59.168-52.297 89.973-77.176zm-14.203 484.69c-0.54688 0.054688-1.0938 0.078126-1.6406 0.0625-1.2461 0.050782-2.4453-0.49609-3.2266-1.4688-18.195-10.781-35.805-22.516-52.762-35.156-15.734-14.16-30.719-29.133-44.895-44.852-1.1484-2.293-0.96875-5.0273 0.46875-7.1523 5.9922-7.5 11.391-15.32 17.812-22.5 7.3945-6.9727 13.129-15.52 16.781-25.004 0-0.054688 0.054687-0.054688 0.054687-0.11328-18.785-15.719-41.371-26.223-65.492-30.457-21.914-4.4688-44.512-4.3516-66.375 0.34375-7.5586 13.617-15.805 26.84-24.703 39.621-10.957 12.742-23.066 24.441-36.18 34.949-0.37109 0.31641-0.78906 0.57031-1.2383 0.75781-1.0273 1.1172-2.5586 1.625-4.0508 1.3516-8.457-1.6484-16.551-4.8086-23.887-9.3281-3.5156 8.1562-6.6289 22.594-16.602 25.312-0.12109 4.6875-0.35547 9.375-0.58984 14.062 0.70703 1.4375 0.64062 3.1406-0.17969 4.5195-0.17188 4.0352-0.054688 8.0742 0.35547 12.094 1.6445 12.27 6.1406 23.988 13.125 34.207 43.602 4.4609 87.328 6.6953 131.05 9.2734 43.727 2.5781 87.262 6.8164 130.93 10.508l16.727 1.4062c0.49219-0.65234 1.168-1.1406 1.9414-1.4062 5.2539-2.2461 9.6562-6.1055 12.57-11.023zm-2.8594 99.523c0.76953-9.3281 1.707-18.602 2.0625-27.938-58.125-3.4023-116.25-8.7383-173.72-15.43-51.703-6.0469-102-5.6914-153.82-7.1641-48.836-1.4062-96.367-12.188-145.43-11.672-3.25 0.19922-6.2227-1.832-7.2188-4.9297-0.11328-0.17969-0.28906-0.28906-0.41406-0.46875-1.0508-2.1758-2.1641-4.3516-3.2266-6.5156h0.003906c-0.44141-0.47266-0.83203-0.98437-1.1719-1.5312-3.0508-4.9102-4.4492-10.668-3.9961-16.434-21.824 0.17969-43.781 1.4727-64.969-0.34766-18.309-1.5859-36.91-5.1094-55.312-5.2227 0.9375 19.688 0.70313 39.375 0.58984 59.062 26.758 4.2266 65.961 4.2852 94.895 6.2266 69.844 4.6328 139.7 9.1484 209.58 13.555 100.68 6.332 201.39 12.602 302.15 18.809zm-14.625-594.38c-30.227-1.2383-61.098 17.953-85.867 36.094-38.762 29.012-71.66 65.117-96.945 106.41-0.45312 3.7109-1.1992 7.3828-2.2305 10.977-0.054687 0.23438-0.17969 0.46875-0.23438 0.70313-0.71875 4.9102-1.8164 9.7578-3.293 14.496 0.09375-0.046875 0.19922-0.066406 0.30078-0.058593 31.219-44.605 56.926-83.867 100.65-117.99 27.047-21.094 55.039-44.691 87.617-50.625zm-8.043 246.49c-3.0469-44.605-58.633-63.094-96.656-68.84-2.5234 3.9258-4.5742 8.1406-6.1055 12.551-2.8125 6.75-5.3984 13.68-7.9883 20.539 2.4648 0.35547 4.9961 0.58984 7.5 1.0039h0.003907c36.383 4.5781 71.484 16.375 103.25 34.699zm-102.58-78.75c0.69531-9.5859 3.4766-18.898 8.1562-27.293-14.262 16.395-21.945 37.488-21.562 59.215 2.1172-5.5703 4.2852-11.09 6.6953-16.547 1.7148-4.3594 3.9844-8.4805 6.75-12.262 0.027344-0.41797 0.085938-0.83203 0.17578-1.2383-0.16406-0.60938-0.23828-1.2422-0.21484-1.875zm-83.277-15.938c0.11328-0.76953 0.16797-1.5859 0.28906-2.3516v-0.003907c-0.95312-0.25781-1.8516-0.69922-2.6445-1.293-11.305-9.4062-23.582-17.59-36.617-24.402-4.2852 9.1602-8.6797 18.133-12.496 27.469-2.8125 6.6289-7.5 13.379-9.5703 20.363 12.441 3.9297 44.195-0.46875 55.93-1.1719 1.1094-5.6055 2.6367-11.117 4.5742-16.492 0.23438-0.67578 0.35547-1.3789 0.53516-2.043zm-17.195 208.02c3.168-4.6406 6.1016-9.375 8.9727-14.203-8.2852 6.4727-16.059 13.574-23.25 21.246-4.7461 6.1641-11.25 10.742-18.656 13.125-16.258 5.2891-48.75-16.492-65.203-24.121-1.0586 1.5859-2.1758 3.2344-3.2344 4.875 8.9766 7.7578 19.055 14.145 29.906 18.945 10.613 7.1484 22.219 12.703 34.445 16.492 13.691-10.66 26.113-22.859 37.02-36.359zm-25.473 6.2812c10.352-11.066 21.516-21.344 33.395-30.75-16.375 7-31.156 17.262-43.434 30.16-1.2773 1.457-3.4414 1.7344-5.043 0.64844-0.23438 0.027344-0.46875 0.027344-0.70312 0-10.34-3.5117-20.293-8.0742-29.699-13.613-6.2891-4.1719-14.055-5.4727-21.359-3.582 18.977 9.5078 54.105 31.043 66.844 17.137zm5.2773-143.55 0.003907 0.003907c-2.1211-3.4805-5.0898-6.3711-8.625-8.3906-16.355 4.3477-32.469 9.5586-48.273 15.609 7.6445 2.5469 15 5.8906 21.945 9.9727 11.062-6.8594 22.77-12.617 34.953-17.191zm-21.129-77.238c3.4688-8.4375 7.5-16.613 11.391-24.891-9.2344-3.3477-19.277-3.7539-28.754-1.1719-23.414 6.2656-43.711 20.906-57.047 41.148-5.1602 8.2422-8.4297 17.527-9.5703 27.188 12.977-21.242 37.031-47.945 58.219-39.375 7.6367 2.2422 13.844 7.832 16.875 15.195 2.6719-6.1797 6.4297-12.16 8.8867-18.094zm-27.695 103.65c1.8203-1.3516 3.6367-2.5859 5.5117-3.8164l0.003907 0.003907c-9.7461-4.8047-19.922-8.6758-30.395-11.562 0.23438 1.875 0.46875 3.6953 0.81641 5.5703 6.5625 3.8164 13.266 7.5 19.547 11.859 0.3125 0.23047 0.58984 0.50781 0.8125 0.82422 1.2578-0.94531 2.4102-1.9414 3.7031-2.8789zm0.64844 142.61c-2.4648-1.4727-4.9883-2.9336-7.5742-4.2852-10.961-4.8125-21.164-11.199-30.281-18.953-2.6445 3.9844-5.2773 7.9766-8.043 11.914-15.086 21-48.414 17.664-71.57 16.961v25.82-0.003906c11.465 0.60938 22.953 0.45312 34.398-0.46875 5.3984-10.855 14.316-12.094 26.934-11.859 10.035-0.44922 20.09-0.25391 30.102 0.58984 17.699 2.8242 20.691-7.4531 26.035-19.715zm-17.371-128.64c1.9883-1.8203 4.0508-3.6367 6.1016-5.457-3.4023-2.2969-6.9297-4.4062-10.508-6.4609 1.293 4.0547 2.7461 7.9805 4.4062 11.918zm-10.152 219.78c2.6992 0.24219 19.125 0.17969 20.305 2.1758v-0.003907c-4.2734-6.9062-7.4609-14.426-9.4492-22.301-16.961-0.23438-33.75-6.6289-50.711-3.5156-7.332 1.3516-13.434 15.938-7.9219 21.77 5.9258 6.2812 19.48 1.875 26.531 0.9375 7.0938-0.41797 14.215-0.10547 21.246 0.9375zm9.6836-28.961c-0.30078-4.1055-0.41406-8.2773-0.35547-12.383-11.383-0.81641-26.645-2.3984-34.742 3.4688-2.1094 1.4609-4.0508 3.2266-6.0469 4.8672 13.789-0.085937 27.23 3.6641 41.145 4.0469zm-31.465-155.62c-0.35547-0.066406-0.70703-0.16406-1.0469-0.28906-29.645-12.188-25.312-51.469-44.84-72.188h-0.003906c-8.8086-2.957-17.934-4.8867-27.188-5.75-24.523 40.258-44.664 83.102-74.766 119.72-0.91406 1.2461-2.5352 1.7461-3.9922 1.2383-0.11328 0-0.16797 0.054687-0.23438 0.054687-9.0938 0.28906-18.074-0.64844-27.188-0.75781-1.2891 0.015625-2.5117-0.57031-3.3164-1.5781-0.80078-1.0117-1.0938-2.332-0.78906-3.5859 0.007813-0.27734 0.046875-0.55469 0.11328-0.82422 0-0.054687 0.054688-0.054687 0.054688-0.11328 0.10547-0.44141 0.28516-0.85938 0.53516-1.2383 15.43-22.594 32.043-44.363 47.418-67.023 9.0391-13.32 17.484-27.188 26.934-40.258v0.003906c-3.8164 1.6719-7.4688 3.6953-10.91 6.0469l-6.1602 4.2188c-14.383 19.133-26.531 40.5-40.145 60-6.75 9.6836-13.125 19.688-19.961 29.289v-0.003906c-5.6641 5.8281-10.789 12.152-15.316 18.902 0.27734 2.4141 0.37891 4.8438 0.30078 7.2734 41.84 4.6875 86.914 0.58984 126.56 0.58984 0.48047 0.027344 0.96094 0.125 1.4141 0.29297 1.2734-0.21875 2.582 0.078125 3.6367 0.82422 0.6875 0.011719 1.3555 0.21094 1.9336 0.58203 0.96875 0.74219 1.8711 1.5664 2.6992 2.4648 27.168-13.566 45.535-35.512 64.254-57.891zm-32.922 137.05c-0.34766-1.25-0.58594-2.5273-0.70313-3.8164-6.4492 0.11328-12.91 0.58984-19.367 0.75781 0.23438 11.391-0.40234 22.773-0.75781 34.164h-0.003906c7.6367-9.8867 14.598-20.281 20.832-31.105zm-29.691 33.336c0.28906-12.188 1.0508-24.242 0.81641-36.395-2.9453-0.039063-5.8867-0.25391-8.8047-0.64453-0.11328 0.066407-0.16797 0.17969-0.28906 0.17969v-0.003906c-2.2969 0.98438-4.4961 2.1836-6.5625 3.582-0.12109 11.09-0.46875 22.18-1.1719 33.281zm-14.148-107.22c0.03125-0.19922 0.070312-0.39453 0.12109-0.58984-40.5 0.17969-86.25 4.3398-128.44-1.1172-2.5977-0.37891-4.4492-2.7227-4.2188-5.3438v-0.16797c0.16797-2.9336 0.125-5.875-0.12109-8.8008h-11.363c-0.17969 8.9727-0.70312 17.898-0.34766 26.879 2.8125 0.63672 5.6914 1.4609 8.5586 2.0547l0.003906-0.003906c1.2109-1.5586 2.5078-3.0469 3.8789-4.4609 1.2148-1.3125 2.8594-2.1445 4.6328-2.3438 1.4336-1.9141 3.7109-3.0117 6.1016-2.9375 19.246 0.054687 37.969 4.9883 57.336 4.7539h0.003906c16.758-0.78516 33.547-0.6875 50.297 0.29297l0.054688-0.054687v-0.003906c0.61328-2.668 2.6836-4.7578 5.3438-5.3984 2.8125-0.82422 5.5039-1.8203 8.1562-2.7578zm-6.5625-141.68c-3.6875 0.125-7.3594 0.57422-10.969 1.3516-0.13672 0.30469-0.29297 0.59766-0.46875 0.88281-15.441 19.191-28.406 41.195-41.852 61.801-10.801 16.492-23.117 31.875-34.508 47.945 5.9922 0.23438 11.914 0.58984 17.906 0.46875 28.098-34.457 47.289-74.535 69.938-112.45zm-15.676 165.21c-16.434-0.64844-32.867 0.75781-49.305 0.17969-16.434-0.58203-32.391-4.4609-48.75-4.6875h0.003906c-0.11719 0.22266-0.27734 0.42578-0.46875 0.58984-2.1758 2.2891-4.1641 4.6875-6.2266 6.918-0.054688 0.066406-0.054688 0.12109-0.11328 0.17969-0.12109 0.41406-0.23438 0.82422-0.41406 1.293-9.3281 19.426-22.004 36.148-32.812 54.637-8.4375 14.383-14.852 29.691-23.297 43.961 20.363 0.70312 40.492 5.457 60.938 5.5117 19.312 0.054688 36.094 0 58.125 0h0.003906c9.8867-37.699 24.086-74.133 42.316-108.58zm-45.602-136.69h0.003906c-4.0664 2.2812-8.2617 4.3164-12.562 6.1055-0.054687 0.24219-0.13281 0.47656-0.23438 0.70312-5.1562 9.918-11.734 19.031-19.52 27.055-7.5 7.9219-13.734 17.023-22.012 24.242-0.48438 0.44531-1.0391 0.80078-1.6406 1.0508-7.4023 10-13.727 20.75-18.863 32.082h10.445c0.23437 0 0.35547 0.054688 0.58984 0.054688 4.6328-9.918 14.148-16.379 20.184-25.762 8.1016-12.617 16.555-25.18 25.059-37.566 6.3398-9.1211 12.328-18.625 18.555-27.965z"/>
 <path d="m1106.2 439.69c0.9375 2.4102-7.6328 9.0391-20.484 14.559-5.7109 2.4023-11.824 3.7148-18.02 3.8711-4.6875-0.23438-7.332-1.5273-7.5-2.8125-0.16797-1.2852 2.7578-2.6445 6.75-4.1719 3.9922-1.5273 9.2148-3.6953 15.086-6.1016 11.961-5.1562 23.109-8.0898 24.168-5.3438z"/>
 <path d="m1043.1 461.65c0.46875 1.1719-6.5625 4.9883-18.488 9.4492-11.926 4.4609-28.633 8.8594-47.242 13.902-8.625 3-17.605 6.0469-25.473 8.2773-4.0508 1.1719-7.6875 2.2891-11.438 3.2891-3.7031 0.81641-7.1641 1.5859-10.219 2.1094-12.086 2.1094-19.602 4.4062-20.184 3.0547-0.52344-1.1797 6.0469-5.7578 18.367-9.8047 3-0.99219 6.2266-2.1094 9.6836-3.2812 3.4609-1.1719 7.1641-2.5859 11.035-4.0508 7.8672-2.8125 16.547-5.9336 25.707-9.1602 18.488-5.043 35.68-8.5117 47.887-11.035 12.152-2.6914 19.84-4.0898 20.363-2.75z"/>
 <path d="m744.25 570.7c2.4102 1.4062 1.7617 6.2812 0.066406 10.031-0.46094 1.4922-1.2891 2.8477-2.4102 3.9375-0.82422 1.4062-1.6406 2.9922-3.0547 3.168h-0.003907c-1.6406 0.19141-3.2109-0.71484-3.8711-2.2305-1.0664-2.8359-0.98047-5.9766 0.23438-8.75 2.5977-5.5664 6.75-7.4531 9.0391-6.1562z"/>
 <path d="m711.98 529.14c1.2383 2.4102-3.2266 7.5-7.2734 14.062h-0.003906c-1.6367 2.5547-3.0117 5.2695-4.1055 8.0977-0.9375 1.6406-0.99219 4.3398-2.2891 4.7539-1.293 0.41406-3.4023-0.17969-4.6875-4.4609-1.0039-4.7109-0.050782-9.625 2.6445-13.613 5.625-9.0742 14.598-11.363 15.715-8.8398z"/>
 <path d="m669.43 495.87c2.1641 1.7539 0.054687 7.2734-1.875 11.852-0.48828 1.75-1.1328 3.4531-1.9297 5.0898-0.054688 2.0625-0.28906 4.0508-1.5859 4.6406-1.293 0.58984-2.9336 0.23438-4.7539-1.6406h0.003906c-2.1445-3.5078-2.4922-7.8203-0.9375-11.625 3.3906-7.6797 9.1484-9.9648 11.078-8.3164z"/>
 <path d="m642.55 438.18c1.9297 2.1094-1.9961 8.043-4.4609 14.727-1.1719 3.4688-2.0547 6.9297-3.168 9.5078-0.99219 2.8125-2.2891 4.6875-3.6367 4.5859-1.3516-0.10156-2.5859-1.8203-3.3477-4.8203h-0.003906c-0.89453-4.2266-0.58594-8.6172 0.88281-12.676 1.4922-4.1523 4.2148-7.75 7.8086-10.312 2.8125-1.6055 4.9883-2.0078 5.9258-1.0117z"/>
 <path d="m510.27 767.48c18.602 2.1094 37.379 14.137 32.102 35.625-5.2773 21.488-26.465 38.258-48.75 30.57-0.23438-0.11328-0.34766-0.23438-0.58203-0.34766h-0.003907c-0.15625-0.050781-0.31641-0.089844-0.47656-0.12109-15.375-6.9297-29.746-24.375-24.883-42.375 5.0273-18.188 25.164-25.293 42.594-23.352zm19.305 45.074h-0.003906c3.3789-4.7969 5.0664-10.578 4.8008-16.434-0.9375-15.938-18.074-21.008-31.688-19.961-12.383 0.9375-27.703 6.8711-26.879 21.836 0.14453 1.9648 0.47656 3.9102 0.99609 5.8125 0.96875-5.793 4.0195-11.035 8.5781-14.738 4.5586-3.707 10.309-5.6211 16.18-5.3906 14.492-0.12109 29.41 9.0391 28.527 24.992-0.082032 1.3047-0.25391 2.6016-0.51562 3.8828zm-30.574 12.449c10.312-0.64844 23.352-6.2812 22.414-18.43-0.88281-11.859-15.43-16.258-25.312-13.125-18.582 5.9531-9.0742 24.203 2.8984 31.555z"/>
 <path d="m505.75 802.92c-0.12109 0-0.9375-0.23438-1.0586-0.23438-0.61328-0.003906-1.2227 0.054688-1.8203 0.17969-2.3438 0.58203-2.5781 2.5781-0.64844 4.2852v-0.003906c0.80859 0.70703 1.8711 1.0469 2.9375 0.9375 0.17969-0.042969 0.35547-0.10156 0.52344-0.17578 0.12109-0.054687 0.17969-0.12109 0.23438-0.12109l0.32812-0.34766c0.41406-0.45312 0.66406-1.0312 0.70312-1.6406-0.03125-0.37109-0.03125-0.74609 0-1.1172-0.054687-0.12109-0.11328-0.53516-0.17969-0.82422v-0.054687c-0.03125-0.035157-0.050782-0.078126-0.054688-0.125v0.125c-0.10938-0.14844-0.20703-0.30469-0.28906-0.46875-0.38672-0.35938 0.14062-0.066407-0.67578-0.41406zm9.4492-1.5859c2.1719 5.6992-0.42578 12.105-5.9531 14.68-5.5234 2.5742-12.102 0.44531-15.066-4.8828-2.0547-2.9414-2.5234-6.707-1.2539-10.062 1.2695-3.3594 4.1133-5.8711 7.6016-6.7188 5.9609-1.8359 12.336 1.1992 14.672 6.9844z"/>
 <path d="m506.75 803.68c0.003906 0.046874 0.023437 0.089843 0.058594 0.125h-0.054688z"/>
 <path d="m506.8 803.8v0.054687c-0.03125 0-0.058594-0.023437-0.058594-0.054687z"/>
 <path d="m502.17 302.91c0.99219 0.88281-3.5234 8.8047-12.441 20.625-2.3789 3.3203-4.9258 6.5117-7.6289 9.5703-2.9922 3.6367-6.207 7.082-9.6289 10.312-1.7617 1.707-3.582 3.4023-5.3984 5.1641-1.0508 0.88281-2.0547 1.8203-3.1016 2.8125l-2.8125 2.5234c-3.8164 3.4609-7.9219 6.6289-11.914 10.621-3.9922 3.9922-7.8672 7.6875-11.852 11.324l-0.003906 0.003906c-4.0195 3.8711-8.6875 7.0078-13.789 9.2695-4.3359 1.8633-8.7891 3.4531-13.324 4.7539-3.4961 0.91406-6.8242 2.3789-9.8633 4.3398-4.293 3.5469-8.2656 7.4648-11.867 11.711-2.8125 2.9922-4.6875 4.4609-5.2227 4.1055-0.53516-0.35547 0.23438-2.6328 2.1172-6.3359h0.003906c2.6211-5.5117 6.1758-10.531 10.5-14.84 1.6406-1.5273 3.4766-2.832 5.4531-3.8828 2.2305-1.2266 3.8164-1.7539 5.9336-2.6992 4.1641-1.7539 8.3359-3.2812 12.32-5.3359 4.1055-2.0898 7.8516-4.8242 11.09-8.0977l11.625-11.445c3.9297-3.9297 8.5117-7.5 12.617-10.969 1.9297-1.6484 3.8711-3.2891 5.7461-4.875s3.8164-3.2891 5.625-4.875c3.8711-3.1016 6.75-6.3359 9.8047-9.2734 3.0547-2.9336 5.7461-5.6914 8.2695-8.4375 10.109-10.438 16.625-16.953 17.742-16.07z"/>
</svg>
