<?xml version="1.0" encoding="UTF-8"?>
<svg width="1200pt" height="1200pt" version="1.1" viewBox="0 0 1200 1200" xmlns="http://www.w3.org/2000/svg">
 <path d="m599.16 750.28c13.641 0 24.75-11.109 24.75-24.75s-11.109-24.75-24.75-24.75c-13.688 0-24.75 11.109-24.75 24.75-0.046875 13.641 11.062 24.75 24.75 24.75zm0-37.5c7.0312 0 12.75 5.7188 12.75 12.75s-5.7188 12.75-12.75 12.75-12.75-5.7188-12.75-12.75c-0.046875-7.0312 5.7188-12.75 12.75-12.75z"/>
 <path d="m1101.9 568.03 42.562-38.812-34.453-13.922-75 44.859c-0.89062 0-1.6875-0.09375-2.625-0.046875-5.1562 0.28125-8.8125 1.875-11.531 3.7031l22.219-22.266-82.875-68.438-34.781-6.8906 1.7812-5.0625-1.5-2.4375c-12.094-19.547-28.875-18.094-36-14.531l-1.2188 0.60938-90.047-64.312-31.688 23.578 111.7 66.375-13.219 7.4062-2.3906 27.656-172.69 16.594-24.188-65.812-13.406-2.7188-10.688-12.703h-81.656l-10.688 12.703-13.406 2.7188-23.25 63.375-175.69-16.875-2.3906-27.656-13.219-7.4062 111.7-66.375-31.688-23.578-90.094 64.359-1.2188-0.60938c-7.1719-3.5625-23.906-5.0156-36 14.531l-1.5 2.4375 1.7812 5.0625-34.781 6.8906-82.875 68.438 22.219 22.266c-2.7188-1.8281-6.375-3.4219-11.531-3.7031-0.9375-0.046875-1.7812 0.046875-2.625 0.046875l-75-44.859-34.5 13.922 40.594 37.594 47.25 18.281-0.5625 3.375-12 15v59.156l52.125 159.56h44.531l-37.359-127.78c24.375-2.1562 39.094-15.141 44.719-21.141l22.969 12.375 20.438-21.656 190.26-36.703 21.797-17.578 3.4688 42.562 30.75 20.25v61.688h23.906v36.844h101.72v-36.844h25.359v-60.141l33.141-21.844 3.0938-38.438 19.969 16.125 190.31 36.703 20.438 21.656 22.969-12.328c5.625 6 20.344 19.031 44.719 21.141l-37.359 127.78h44.531l51.797-157.69 0.28125-61.031-12.562-14.625v-3.7031zm9.1406-39.375 11.438 4.5938-25.875 24-40.641 15.328c-0.84375-2.5312-2.5312-5.3438-5.4375-7.6875zm-78.047 43.406c8.5312-0.375 10.828 2.625 11.438 3.6094-0.09375 1.8281-1.125 9-10.5 10.969-5.4375-0.65625-10.078-4.7812-10.125-4.8281l-0.1875-0.14062c0.09375-1.9219 0.60938-4.7812 2.2969-6.75 1.5469-1.7344 3.8906-2.6719 7.0781-2.8594zm-16.125-4.875c-3.4688 4.125-4.6875 9-5.0625 12.609l-33.375-1.8281-24.797 27.094-145.82-40.312 118.78-13.406v-28.312l94.078 40.875c-1.5469 1.0312-2.8594 2.2031-3.7969 3.2812zm-260.72-16.688-40.922 15.234 1.7344-21.516-15.609-11.109 162.98-15.703c5.9062 3.4688 24.938 13.688 50.25 16.547v6.6562l-137.81 15.562zm198.74-66.188 70.312 58.078-7.2188 7.2656-92.25-40.031-6.3281-26.156 2.0156-5.7656zm-40.969-21.562-5.0625 14.531c-8.8125-0.046875-14.812-3.4688-17.812-5.9062l6-17.062c3.375-0.75 10.266-0.75 16.875 8.4375zm-115.41-67.406 85.125 60.844-0.98438 2.8125-94.312-56.062zm85.5 85.734c4.6875 3.5625 12.938 8.0156 24.469 8.2031l6.0938 25.359v7.125c-18.141-2.3438-32.672-8.625-40.078-12.469l2.0625-24.094zm-398.95 63.094 1.5938 19.594-42.938-15.938-20.625 5.7188-137.76-15.609v-6.6562c25.406-2.9062 44.391-13.078 50.25-16.547l168.19 16.125zm-159.71-37.547c-7.4062 3.8438-21.844 10.125-40.078 12.469v-7.125l6.0938-25.359c11.578-0.1875 19.828-4.6875 24.469-8.2031l7.4062 4.125zm86.25-106.36-94.312 56.062-1.0312-2.8594 85.125-60.844zm-108.75 51.375 6 17.062c-3 2.3906-8.9062 5.8125-17.859 5.8594l-5.0625-14.531c6.6094-9.0938 13.547-9.0938 16.922-8.3906zm-57.844 29.953 33.469-6.6094 2.0156 5.7656-6.3281 26.156-92.25 40.031-7.2188-7.2656zm28.312 38.766v28.312l118.78 13.406-145.87 40.312-24.797-27.094-33.375 1.8281c-0.375-3.6094-1.5469-8.4844-5.0625-12.609-0.9375-1.0781-2.25-2.2031-3.8438-3.2812zm-99.469 51.891c1.6875 1.9688 2.25 4.8281 2.3438 6.7969l-0.14062 0.14062c-0.046875 0.046875-4.7344 4.1719-10.125 4.8281-8.625-1.8281-10.172-8.0156-10.453-10.641 0.75-1.4531 3.2344-4.4062 11.391-3.9844 3.2344 0.1875 5.4844 1.125 6.9844 2.8594zm-96.375-41.672 11.438-4.5938 60.562 36.281c-2.8125 2.3438-4.5 5.1094-5.3438 7.6875l-40.781-15.375zm105.66 149.48h-1.0312l-8.1562-0.09375 37.312 127.6h-19.828l-48.797-148.55v-54l2.8125-3.4688c3.9375 2.0625 9.9375 4.5469 15.938 5.3906l2.5312 25.734 59.625 32.062c-6.1875 5.7656-19.5 15.328-40.406 15.328zm72.094-12-79.969-42.938-3-30.188c4.5938-1.4531 8.2031-3.8906 10.266-5.4844l33.938-1.8281 56.484 61.734zm207.94-54.656-175.78 33.891-32.016-34.969 168.74-46.641 0.42188 0.046875v-0.1875l18.656-5.1562 30 11.156-107.2 25.781 121.97-16.969 0.98438 12.188zm174.74 142.97h-77.719v-61.641h77.719zm12-36.844v-36.797h-101.72v36.797h-11.906v-46.875h126.94v46.875zm19.875-58.875h-5.5312l9.3281-124.08-21.375 124.08h-104.2l-21.375-124.08 9.3281 124.08h-3.75l-27.141-17.859-7.5-92.812 22.875-16.312 24.562-66.938 10.969-2.2031 9.7969-11.672h70.5l9.7969 11.625 10.969 2.2031 24.562 66.938 22.875 16.312-7.5 92.812zm42.938-63.938 1.0312-13.219 120.1 16.5-107.2-25.734 30.047-11.203 18.656 5.1562v0.1875l0.46875-0.046875 168.74 46.641-32.016 34.969-175.78-33.891zm214.22 55.266 56.531-61.734 33.938 1.8281c2.0625 1.5938 5.6719 4.0312 10.219 5.5312l-3 30.188-79.969 42.938zm130.26-44.297v54l-48.797 148.55h-19.828l37.312-127.6-8.1094 0.09375h-1.0312c-20.906 0-34.266-9.5625-40.5-15.375l59.625-32.016 2.5312-25.734c6-0.79688 11.953-3.3281 15.938-5.3906z"/>
</svg>
