<?xml version="1.0" encoding="UTF-8"?>
<svg width="1200pt" height="1200pt" version="1.1" viewBox="0 0 1200 1200" xmlns="http://www.w3.org/2000/svg">
 <path d="m1142.6 1016.5c1.1406 1.4648 1.7383 3.2812 1.6875 5.1367-0.19922 5.0898-1.6602 10.051-4.2578 14.43 29.852 26.25-5.9609 67.5-28.398 87.188-13.555 11.973-29.504 30.789-46.68 37.266-14.719 5.5508-24.375-1.4609-34.93-10.453-4.9609 2.0742-10.371 2.8398-15.711 2.2227-1.6289-0.16016-3.207-0.67969-4.6133-1.5195-0.97656-0.19922-1.9062-0.57812-2.7461-1.1172-21.562-13.613-33.75-34.754-52.988-50.625-23.016-18.871-46.734-35.812-68.117-56.727-42.938-41.766-82.133-86.98-123.84-129.92-1.8242-1.8008-2.707-4.3477-2.3906-6.8906-0.26172-1.2617-0.20703-2.5664 0.16797-3.7969 0.83203-2.668 2.0547-5.1953 3.6289-7.5-13.969-14.953-32.363-25.004-45.395-40.949-13.848-16.996-25.238-40.715-44.062-52.633-0.41406-0.30078-0.75781-0.58984-1.1172-0.88281-10.145 0.007813-19.801-4.3672-26.48-12.004-6.6836-7.6328-9.7422-17.781-8.3945-27.84-12.617-12.617-36.977-29.27-30.844-49.48 0.25781-0.77734 0.61328-1.5195 1.0508-2.2109-20.504-25.527-39.195-53.438-58.648-79.688-17.699-23.887-34.93-37.969-66.656-29.852-18.75 4.8477-36.918 11.391-55.555 16.648l-0.003906 0.003907c-2.2578 0.66406-4.6953 0.33594-6.6992-0.90234-2.0078-1.2344-3.3906-3.2695-3.8086-5.5859-60.215-60.535-119.74-121.76-179.74-182.58-41.008-41.645-82.113-83.207-123.32-124.69-18.223-18.395-43.516-47.59-60.457-60.262-2.5508-1.8594-3.9492-4.918-3.6836-8.0625-1.8047-3.168-0.98047-7.1836 1.9297-9.375 32.879-28.359 62.215-61.719 92.711-92.57 30.195-30.555 62.812-58.48 92.812-89.203h0.054688c0.87891-2.1094 2.7031-3.6758 4.918-4.2305 2.2188-0.55469 4.5664-0.027344 6.332 1.418 23.305 17.41 43.172 41.719 63.496 62.277 41.594 42 83.031 84.16 124.31 126.48 61.34 62.812 127 123.55 184.19 190.14 2.7773 3.9453 4.0391 8.7578 3.5625 13.559-9.4609 18.984-23.832 38.492-27.977 59.531-5.9609 30.195 10.742 46.5 33.75 62.09 27.281 18.523 58.012 37.566 79.219 63.383 21.027-3.1484 29.617 18.637 42.816 31.379 6.207-2.0938 12.871-2.4258 19.258-0.96484 6.3828 1.4648 12.238 4.668 16.914 9.2539 7.707 8.4375 14.953 22.32 7.9961 31.023 28.633 30.676 63.039 55.031 93.355 83.887 2.6289-1.0078 5.418-1.543 8.2305-1.5781 1.5273 0.011719 3.0195 0.4375 4.3242 1.2305 0.79297 0.12109 1.5625 0.35938 2.2852 0.70312 21.141 10.164 31.078 30.723 47.082 46.668 20.211 20.156 34.82 44.223 57.656 61.922 49.895 38.793 90 86.867 132.19 133.78 0.63672 0.74609 1.1719 1.5742 1.5859 2.4648zm-43.352 94.406c13.727-13.211 49.305-46.152 26.41-64.086-0.76562-0.60156-1.4219-1.3359-1.9336-2.168-16.691 14.547-32.004 30.602-45.738 47.965-6.4062 9.0352-13.516 17.551-21.262 25.473-6.4805 5.0039-12.57 10.492-18.227 16.414 0.35156 0.20312 0.68359 0.4375 0.99219 0.70312 16.941 14.664 27.805 3.5078 40.246-7.7148 6.3672-5.7188 13.418-10.633 19.512-16.586zm27.102-87.047-3.8516-4.3789c-45.395 25.707-71.973 78.684-107.81 114.32 0.41406 0.23438 0.70312 0.52344 1.1172 0.75781 0.17969 0.12109 0.34766 0.30078 0.52344 0.41406 3.082 0.32812 6.1914-0.32812 8.8789-1.875 0.62891-0.30469 1.2969-0.51953 1.9883-0.64844 3.9219-5.6914 8.7344-10.723 14.25-14.895 9.1953-8.2148 17.551-17.32 24.945-27.188 16.402-21.172 34.984-40.555 55.445-57.836 0.14844-0.80859 0.49219-1.5703 0.99219-2.2227 0.76172-0.93359 1.4453-1.9297 2.043-2.9805 0.23828-0.54297 0.51172-1.0664 0.81641-1.5742 0.28125-0.60938 0.42969-1.2461 0.66406-1.8945zm-10.977-12.328c-4.9688-5.625-9.8711-11.25-14.84-16.82-45 26.109-83.242 71.035-118.94 108.48v0.003906c7.6016 8.7773 15.863 16.961 24.711 24.477 0.19922-0.32422 0.41797-0.63672 0.64844-0.9375 36.273-35.922 62.914-88.676 108.42-115.2zm-21.852-24.77c-3.3281-3.75-6.6562-7.5-9.9844-11.25-25.688 20.281-49.184 43.184-70.109 68.344-13.004 17.16-28.965 31.859-47.137 43.406 2.8125 2.6914 5.4922 5.4922 8.1758 8.2969 22.902-23.664 45.797-46.969 70.453-68.879v0.003907c15.102-14.59 31.355-27.941 48.602-39.922zm-73.602 33.75h-0.003906c17.578-18.898 36.477-36.527 56.551-52.75-21.992-24.98-46.094-48.023-72.027-68.879-23.719-18.461-38.324-40.895-59.117-61.633-12.328-12.262-22.32-28.734-35.625-40.539-13.902 11.504-22.613 20.559-28.855 25.707-7.0117 6.1875-10.312 7.9414-11.156 7.125-0.84375-0.81641 0.75781-4.2656 6.6562-11.57l-0.003906 0.003906c8.0234-9.7891 16.855-18.883 26.402-27.188-2.1016-1.4531-4.3789-4.2578-6.6562-4.2578h-0.11328c-0.066406 0-0.23438 0.46094-0.35547 0.46094-19.977 23.082-43.125 43.059-65.195 64.031-14.25 13.555-34.988 27.336-48.309 43.285-0.054687 0.054687-0.054687 0.12109-0.054687 0.23437h-0.003906c0.29297 1.8203-0.125 3.6836-1.1719 5.2031-1.043 1.3086-2.0195 2.6719-2.9219 4.0859 0.58984 0.58203 1.1172 1.1719 1.6406 1.7539 11.816-8.1133 22.953-17.18 33.289-27.113 10.398-9.8828 18.461-17.586 24.703-23.438 12.562-11.691 18.234-15.254 18.992-14.438 0.75781 0.81641-3.2148 6.0859-14.605 18.816-5.7266 6.3672-13.266 14.664-23.484 24.945-10.023 10.184-20.957 19.43-32.66 27.629 37.453 39.375 73.258 80.27 112.4 118.06 18.816 18.168 39.43 33.188 59.586 49.688 26.172-13.52 42.008-38.344 62.098-59.258zm-138.64-232.78c-0.054688-0.054687-0.11328-0.054687-0.17969-0.11328-15.535-15.242-32.297-29.062-48.945-43.051v0.003906c-2.7695 3.0547-5.7383 5.9219-8.8867 8.5859-4.4922 3.7969-8.1758 6.4766-10.977 8.5234-5.625 3.9766-8.0078 5.2578-9 4.3867-0.81641-0.75781 0.12109-3.6289 4.8555-9 2.3359-2.6914 5.625-5.8984 9.6953-9.9297 2.3906-2.3438 5.082-5.082 7.707-8.1836-3.3828-2.8125-6.7695-5.7852-10.105-8.6992-19.219 20.68-37.152 42.289-56.773 62.738-11.457 11.98-22.961 27.188-37.914 35.398l2.6797 3.6289c0.99219 1.2266 2.043 2.3906 3.0391 3.5625h-0.003906c1.4023-1.5039 2.9258-2.8945 4.5547-4.1523 3.7969-3.0938 7.5-5.5508 11.043-7.8828 3.543-2.3359 6.5625-4.5 9.375-6.6562l3.75-3.3945c1.1641-1.2852 2.2773-2.625 3.4414-3.8516 9-10.105 15.938-17.812 21.73-23.719 11.457-11.738 16.305-15.59 17.176-14.719 0.87109 0.87109-2.4453 6.2539-12.441 18.75-5.0234 6.1953-11.738 14.664-20.504 25.125-1.1055 1.3398-2.2773 2.6797-3.3828 4.0859-1.4609 1.3398-2.8672 2.7461-4.3867 4.1992-3.0938 2.5117-6.4219 4.9688-9.9297 7.3672-5.2266 3.2617-10.082 7.082-14.484 11.391 14.371 14.719 31.66 26.055 45.148 41.586 13.555-14.664 31.875-27.449 45.57-40.133 19.609-18.395 39.875-36.035 58.148-55.848zm-73.602-64.434c-4.8477-4.3203-9.6367-8.7578-14.258-13.379-30.086 31.727-55.961 67.18-91.246 93.355 4.3789 5.3164 8.4375 10.922 12.441 16.594 18.461-9 33.656-32.016 47.438-45.449 16.484-16.125 30.09-34.113 45.578-51.121zm-21.617-20.906c-2.1562-2.2227-4.3789-4.4453-6.4883-6.7773h-0.003907c-1.4453-1.582-2.2578-3.6406-2.2773-5.7852h-0.074219c-9.2422 8.1641-18.039 16.824-26.344 25.941-21.262 23.887-40.246 52.164-66.656 70.742 3.9062 2.6172 7.543 5.6094 10.867 8.9375 35.371-25.727 61.02-61.453 90.926-93.059zm-8.3516-31.023-0.003907 0.003907c-1.2383-1.6602-2.625-3.2031-4.1445-4.6133-3.1406-1.9375-6.7461-2.9922-10.438-3.0547s-7.3281 0.87109-10.535 2.6992c-0.53906 0.39062-1.1055 0.74219-1.6953 1.0469-11.68 16.359-29.559 26.879-43.125 41.652-16.648 18.168-34.988 34.875-52.398 52.285-1.1172 9.2891 5.082 21.441 15.367 21.207 23.719-14.195 40.246-36.562 58.004-57.477 3.4102-4.0312 41.031-41.777 48.918-53.746zm-41.184-13.902c-3.9102-4.5-7.1797-9.4688-10.922-14.062-3.7422-4.5938-8.0078-10.164-14.258-9.375h-0.007812c-14.223 17.055-30.004 32.75-47.137 46.875-13.668 12.188-24.074 28.125-40.023 37.445 2.3359 5.3125 5.8633 10.012 10.312 13.734 4.1523 4.2578 8.5859 8.2891 12.852 12.441 16.07-15.938 32.539-31.434 48.02-47.906 12.781-13.512 30.293-23.785 41.113-39.152zm-44.867-26.645c1.1172-1.3398 2.1641-2.6797 3.2148-4.0312-30.375-37.211-84.234-51.695-110.62-92.242l-0.007812 0.003906c-6.4531 8.6406-13.543 16.785-21.203 24.375-4.6836 4.4102-9.6172 8.5469-14.777 12.383 2.1836 1.3984 4.2734 2.9414 6.2539 4.6133 3.0938 2.9805 6.3672 5.625 8.8789 8.5859 2.5117 2.9609 4.9688 5.7852 7.1797 8.4375 2.043 2.8125 3.9766 5.4844 5.7852 7.9961 7.0703 10.227 11.98 18.402 15.777 24.535 1.9219 3.1016 3.5078 5.7266 4.8477 7.8945 1.3398 2.1641 2.457 3.8516 3.2148 5.2578 1.5742 2.8125 1.9766 4.2578 1.5195 4.6875-0.46094 0.42969-1.7539-0.28906-4.1523-2.5117-1.2266-1.1055-2.7461-2.5703-4.5547-4.5-1.8086-1.9297-3.6172-4.3789-5.9531-7.2383-4.5664-5.7852-10.051-13.68-17.242-23.371-1.875-2.3359-3.7969-4.8477-5.8398-7.5-2.043-2.6523-4.4336-5.1367-6.8906-7.8281-2.457-2.6914-5.3164-5.082-8.1758-7.7617-2.5391-2.082-5.2148-3.9961-8.0078-5.7266-2.9258 2.2227-5.7852 4.5547-8.6445 6.8906 1.9531 1.1914 3.793 2.5625 5.4844 4.0977 34.527 30.938 56.082 74.418 84.824 110.29 12.273-9.75 21.789-23.438 33.883-33.414 10.406-8.4609 20.227-17.617 29.391-27.402-6.8359-4.6875-13.266-9.1133-19.164-13.125-7.3594-5.3164-13.969-10.105-19.922-14.43-11.746-8.9922-20.859-16.004-27.461-21.844-13.125-11.68-17.578-16.707-16.82-17.645 0.75781-0.9375 6.6562 2.457 20.625 12.797 7.0703 5.0156 16.414 11.68 28.34 20.148l20.09 13.902c6.1758 4.2188 12.953 8.832 20.078 13.68zm-104.56-166.72c5.9531-12.73 13.125-25.004 18.863-35.867-56.773-65.625-121.57-125.83-182.26-187.81-41.305-42.301-82.727-84.488-124.26-126.56-14.953-15.074-33.824-36.562-49.828-51.113-0.58203 18.047-1.7539 36.102-1.875 54.148-0.058594 0.69922-0.21094 1.3867-0.45703 2.043 0.054688 0.054687 0.054688 0.17969 0.11328 0.28906 18.984 9.5234 37.566 35.867 51.469 49.828 39.375 39.445 78.477 79.168 117.3 119.18 39.664 40.664 79.27 81.363 118.82 122.1 17.227 17.727 33.766 37.059 52.109 53.766zm-8.1172 60.055c-4.9258-16.504-3.5898-34.246 3.75-49.828-58.996-51.562-111.05-114.09-165.66-170.12-38.559-39.488-77.117-79.039-116.08-118.12-13.613-13.668-27.188-27.336-41.129-40.781-5.4375-6.1875-11.418-11.875-17.867-16.996-18.168 16.941-40.895 29.906-56.383 49.246-8.457 12.359-18.078 23.883-28.734 34.406-8.0078 6.8359-16.414 13.125-24.242 20.27 21.297 16.703 40.988 35.363 58.816 55.734 38.5 39.488 76.961 78.996 115.38 118.53 39.145 40.312 78.344 80.562 117.6 120.75 17.289 17.699 33.938 37.621 52.809 53.691 14.367-4.3555 29.609-4.9609 44.277-1.7539 9.9922-8.6445 21.496-15.543 31.023-24.656 9.5469-9.457 18.387-19.605 26.445-30.367zm-149.79 72.266c10.453-3.3828 22.961-8.1172 35.926-12.094-18.113-16.293-34.406-35.578-51.348-52.867-38.125-39.145-76.273-78.305-114.44-117.48-37.449-38.508-74.879-76.984-112.29-115.43-20.445-20.973-39.488-44.277-64.086-60.289h-0.054688c-0.054687-0.054687-0.11328 0-0.16797 0v-0.003906c-16.566-2.1328-33.25-3.2422-49.953-3.3281 17.812 15.543 33.824 34.527 50.176 51 40.895 41.125 81.672 82.352 122.34 123.68 61.34 62.27 122.23 124.89 183.9 186.82zm-191.98-479.5c0.11328-17.41 1.2266-34.82 1.8086-52.172-29.504 29.391-60.637 57.254-90.141 86.699-24.066 24.008-46.969 49.773-71.914 73.023 15-0.066406 30.148 1.875 45.102 3.207 10.312-10.039 22.961-17.699 32.652-28.332 8.4375-9.2266 14.84-20.156 23.371-29.203 18.168-19.219 40.66-33.422 59.352-52.051h0.003906c-0.16406-0.36719-0.24219-0.76953-0.23438-1.1719z"/>
</svg>
