<?xml version="1.0" encoding="UTF-8"?>
<svg width="1200pt" height="1200pt" version="1.1" viewBox="0 0 1200 1200" xmlns="http://www.w3.org/2000/svg">
 <path d="m987.24 645.98c1.4062 64.219 19.555 130.83 8.4375 194.77-0.33203 2.1953-1.4219 4.207-3.082 5.6797-0.9375 3.3711-3.5703 6.0039-6.9375 6.9375-28.461 8.832-57.488 18.02-86.727 26.852 25.734 11.57 56.438 18.02 73.969 39.75 14.793 18.301 7.9219 36.18-8.9727 46.695 39.816 32.672 51.883 115.82-7.6406 133.27v0.003906c-14.035 4.7148-29.148 5.2031-43.457 1.4023-14.309-3.8047-27.188-11.727-37.027-22.789-16.547-20.625-17.953-49.988-18.16-75.852-16.875 5.3242-33.797 12.336-50.832 18.289 22.625 13.66 37.621 37.051 40.594 63.312 2.2344 17.797-2.5 35.773-13.215 50.16-10.715 14.387-26.578 24.074-44.273 27.031-81.254 11.43-83.785-77.398-90-134.26-6.3086-1.2656-12.695-2.5977-19.426-3.8516-32.879-6.4492-66.039-11.008-98.926-17.324-74.586-14.371-143.3-46.688-219.01-56.785-5.8203-0.76953-11.785-1.6133-17.812-2.5977-0.03125 0.33203-0.10156 0.66406-0.20703 0.98437-2.1328 6-5.2383 11.613-9.1875 16.609 4.1328 26.363-1.6133 61.875-25.801 77.195h0.003907c-20.32 11.898-45.398 12.258-66.047 0.9375-27.055-13.668-44.164-36.32-42.617-67.367 1.5391-32.605 22.855-50.691 46.688-68.082h-0.003906c-5.8906-5.4688-11.094-11.637-15.488-18.367-29.305-45.148-14.727-93.59 1.6133-140.99 22.641-65.551 49.566-129.38 78.449-192.44-5.3984-17.391-21.242-49.922-4.7734-64.574 10.379-9.3203 12.758-10.727 11.57-26.25-1.125-14.934-3.0195-29.859-5.3984-44.652-13.547-84.898-12.805-173.87-32.297-257.49-15.938-14.062-63.582-37.855-60.57-63.59 4.4141-37.922 70.461-41.645 98.438-46.875 65.754-12.527 129.95-12.027 196.51-14.137 55.172-1.7539 81.816 23.906 117.19 63.75 48.234 17.812 99.77 26.25 148.63 42.488 46.762 15.496 97.238 20.539 141.9 41.785v-0.003906c0.99219 0.49219 1.9102 1.125 2.7266 1.875 3.5547 1.5898 5.875 5.082 5.9648 8.9727 2.0352 31.34 3.75 62.68 4.1328 94.086 0.49609 30.777-3.75 62.887 1.6875 93.309v0.003906c0.52344 2.8984-0.15625 5.8828-1.875 8.2773-0.69922 3.6953-3.5898 6.582-7.2852 7.2852-79.227 18.75-159.71 39.758-240.26 50.27v-0.003906c-0.92969 0.14453-1.8789 0.14453-2.8125 0l-7.2266-0.20703v0.003906c1.3438 28.105 4.1992 56.117 8.5586 83.914 49.914 11.43 95.137 35.832 144.42 49.922 27.758 7.9219 54.543 18.301 81.883 27.477 23.352 7.8555 47.68 11.43 68.785 24.375h-0.003907c3.1484 1.8164 5.0586 5.1992 4.9805 8.832 0.10938 0.66016 0.1875 1.3203 0.22266 1.9883zm-11.492 186.7c9.1133-56.652-5.7578-116.45-8.9805-173.59-41.562 7.8828-82.621 18.215-122.96 30.938-29.914 12.035-61 20.941-92.754 26.566-6.4492 60.148 7.9883 119.75 4.8359 179.9 72.844-15.637 147.19-39.375 218.44-61.621 0.33203-0.81641 0.81641-1.5625 1.4258-2.1953zm-10.941 172.5c4.7852 8.7578 6.6445 18.816 5.3047 28.703-1.3359 9.8867-5.8008 19.09-12.738 26.262-8.5781 8.168-19.75 13.07-31.57 13.852-11.82 0.78125-23.539-2.6094-33.117-9.5742 4.668 6.7344 11.152 12.012 18.695 15.211 7.5469 3.2031 15.844 4.1992 23.934 2.8711 58.82-4.6875 47.465-85.527 5.3984-105.79-0.34766-0.21484-0.5625-0.35547-0.84375-0.5625-7.8477 2.5859-15.703 5.1836-23.559 7.707 0.011719 0.19141-0.011719 0.38281-0.066406 0.5625 17.852-0.16797 39.516 4.1094 48.562 20.797zm-14.859 47.531c10.789-11.992 15.703-34.688 2.0234-46.875h0.003906c-10.027-8.0898-22.785-12.008-35.625-10.941 0.49219 4.4102 2.4766 8.5156 5.625 11.645 4.5078 4.0664 8.4062 8.7656 11.566 13.949 3.8516 6.8711 2.1641 21.309-7.3672 22.855-10.117 0.45313-20.137-2.1602-28.746-7.5-4.5547-2.3164-9.375-4.7734-13.949-7.5742 3.7227 30.441 42.977 50.785 66.469 24.48zm-13.32-97.5c23.832-7.9219 23.137-18.16 12.188-27.273-3.5039 1.1914-7.0898 2.1328-10.727 2.8125-0.84375 0.20703-1.875 0.42188-3.0195 0.70313 1.8633 2.2891 2.8125 5.1836 2.6641 8.1289-0.085937 3.7578-2.5742 7.0391-6.168 8.1367-3.5703 1.3984-7.2188 2.6641-10.789 3.918l-0.003906 0.003907c1.3594 2.5195 2.9023 4.9375 4.625 7.2266 3.7305-1.1797 7.4141-2.3828 11.23-3.6367zm-9.8906-303.84c9.1133-2.3164 18.301-4.4805 27.488-6.5625-22.227-9.2539-47.672-14.062-69.695-21.938-23.27-8.3438-46.969-14.867-70.312-22.855-46.555-15.938-90.797-37.867-139.17-47.539 2.1172 46.965 7.5078 93.723 16.125 139.94 3.75 0.70312 7.6484 1.2656 11.43 1.9609-5.5312-36.562-12.758-72.844-17.383-109.37v-0.003907c-0.23438-1.043-0.042969-2.1367 0.53906-3.0312 0.58203-0.89844 1.5-1.5195 2.5469-1.7305 1.2031-1.2812 3.082-1.6562 4.6875-0.9375 75.16 28.809 154.59 44.793 230.79 70.668 0.75391 0.25 1.4453 0.65625 2.0352 1.1914zm10.238 268.94c-0.48828-0.28125-0.98437-0.5625-1.5391-0.84375-21.039-10.66-45.508-17.391-64.922-30.777-3.4414 0.98438-6.8047 1.875-10.238 2.8789 19.797 7.4258 38.777 16.871 56.645 28.18 2.6641 1.5391 5.6797 3.0078 8.625 4.5547v0.003906c3.5547-1.9727 7.418-3.3242 11.43-3.9961zm-13.602 112.88c9.1133-3.0195-11.98-22.086-13.875-25.105h-0.003906c-3.4805-6.2969-4.8359-13.551-3.8633-20.68-8.9727 2.9453-18.02 5.7578-27.055 8.625 0.066406 5.1953 0.14062 10.66 0.48828 16.199 0.074219 0.066407 0.21484 0.066407 0.28125 0.20703 5.8047 4.8281 12.215 8.8828 19.066 12.055 5.6836 3 18.086 11.008 24.957 8.6992zm-15.492-650.46c2.8125-0.63672 5.625-1.332 8.4375-1.9688-1.7305-25.586-2.0586-51.25-0.98437-76.875-0.42578-28.539-1.4297-57.023-3.0078-85.461-4.0039 0.48828-7.8555 1.0508-11.785 1.5469 7.7539 52.688 6.957 109.27 7.3398 162.76zm7.2188 579.52c-1.6211-2.2617-3.0508-4.6523-4.2734-7.1523-36.883 12.129-74.879 19.902-111.14 33.965-8.2383 3.1836-16.727 5.6719-25.379 7.4336 1.332 3.4219 2.0195 7.0547 2.0273 10.727 7.0938-1.582 14.094-3.5703 20.961-5.9531 22.367-7.9961 44.738-15.496 67.238-22.855 16.848-5.5156 33.738-10.84 50.566-16.164zm-3.4414-754.3-0.20703-3.5703h0.003906c-0.69531 0.26953-1.4297 0.4375-2.1758 0.48828-43.184 4.3906-86.102 11.062-128.58 19.988-30.637 5.7461-59.805 16.547-90.582 20.117 1 4.1562 1.7266 8.3711 2.1758 12.617 19.836-5.7461 40.52-6.5625 60.43-12.336 20.055-5.8203 39.684-12.695 59.598-18.75 32.492-9.1406 65.738-15.352 99.34-18.555zm1.4062 728.91c-1.2656-0.69531-2.8125-1.4727-4.6328-2.5859-6.0273-3.582-12.121-7.0859-18.227-10.52l0.003907 0.003906c-17.164-9.8906-35.715-17.16-55.031-21.562-1.6719-0.29687-3.1992-1.1328-4.3477-2.3828-25.312 6.8633-50.551 13.172-75.648 18.43-1.1562 0.19141-2.3359 0.23828-3.5039 0.14062-0.92578 0.18359-1.8711 0.25781-2.8125 0.21875-36.34-2.6914-72.5-7.3867-108.32-14.062-2.5977 29.164-21.383 49.922-52.855 43.473v-0.003907c-13.59-2.7266-25.863-9.9648-34.82-20.539-8.9609-10.578-14.082-23.871-14.539-37.727-30.355-3.7109-60.711-7.543-91.07-11.492 2.8125 14.438 40.66 13.18 51.461 16.406 3 0.8125 5.25 3.3047 5.7461 6.375 1.4453 0.58594 2.4258 1.9492 2.5234 3.5078v28.039c-0.019532 1.0078-0.48047 1.957-1.2578 2.5977l3.8516 1.0508c45.914 12.109 92.406 21.891 139.3 29.305 50.898 8.832 95.766 27.488 146.32 7.2188 38.363-15.336 79.238-21.375 117.86-35.887zm-31.688-274.12c8.9727-2.1758 17.945-4.4141 26.914-6.6641-11.699-3.8516-23.484-7.5-35.258-11.008 0.34766 5.1953 1.125 10.379 1.7539 15.496 1.875 0.62891 3.8516 1.1172 5.7461 1.6797l0.003906 0.003906c0.28906 0.14844 0.57031 0.31641 0.84375 0.49609zm15.938-277.5c-0.074218-7.5742-0.074218-15.215-0.14062-22.996-28.883 7.0117-56.859 17.391-86.023 23.277-29.305 5.9531-58.961 8.9727-87.637 17.523-0.066406 0.074219-0.14062 0-0.20703 0.074219-0.14062 6.7969-0.20703 13.527-0.28125 20.324 58.445-9.793 116.71-24.238 174.34-38.188zm-0.12891-33.781c-0.074219-4.8359-0.074219-9.7422-0.14062-14.652l-9.6758 2.7383c-0.066406 4.7734-0.066406 9.6094-0.066406 14.445 3.3203-0.84375 6.6211-1.7539 9.8828-2.5312zm-0.21484-25.52c-0.066406-5.4648-0.13281-10.867-0.27344-16.266-3.1602 0.77734-6.2422 1.6133-9.375 2.457 0.066406 5.3984 0.066406 10.941 0.066406 16.473 3.2344-0.91016 6.3945-1.8203 9.6172-2.6641zm-0.55469-26.992c-0.14062-5.3242-0.35547-10.586-0.5625-15.844-3.0195 1.0508-6.0273 2.1758-9.0469 3.3008 0.21484 4.9023 0.28125 9.8828 0.42188 14.926 3.0586-0.83594 6.1406-1.6797 9.2266-2.3828zm-1.1055-26.707c-0.21484-3.0195-0.35547-6.1016-0.5625-9.1133-3.0195 0.9375-5.9609 2.0352-8.9727 3.1484 0.27344 3.0859 0.41406 6.168 0.62891 9.2539 2.8984-1.1172 5.8398-2.2422 8.9062-3.2891zm-10.379-16.688c2.9453-1.125 5.8867-2.1758 8.8984-3.1484-0.34766-3.3672-0.55469-6.7305-0.9375-10.098-3.0859 0.70312-6.168 1.6133-9.2539 2.5859 0.47656 3.543 0.89062 7.0859 1.2461 10.66zm6.6562-23.766c-0.42188-3.4297-0.84375-6.9375-1.332-10.312-3.3672 0.48828-6.6562 0.9375-9.957 1.4727 0.70312 3.75 1.4062 7.6406 1.9688 11.43 3.0391-0.94141 6.125-1.8789 9.293-2.5898zm-14.699 99.766c0.074219-5.625 0-11.25 0-17.043-3.668 0.79297-7.3984 1.2617-11.148 1.4062-0.24609 0.59375-0.62891 1.1172-1.1133 1.5391 0.20703 5.7578 0.48438 11.508 0.83594 17.25 3.8594-1.0508 7.6367-2.1016 11.426-3.1523zm-0.066406 25.164c0-4.6875 0-9.4609 0.066406-14.297-3.6484 1.0508-7.2188 2.0234-10.867 3.0078 0.21484 4.7734 0.35547 9.5352 0.28125 14.305 3.5078-1.0469 7.0156-2.0312 10.52-3.0156zm-0.074219-52.789c-0.066406-4.7617-0.14062-9.5352-0.28125-14.371v-0.003906c-3.3008 0.84375-6.6836 1.3398-10.086 1.4727 0.20703 4.7734 0.20703 9.5352 0.13281 14.371h-0.003906c3.4414-0.27344 6.8594-0.76172 10.238-1.4688zm-0.76953-24.957c-0.14062-3.0859-0.34766-6.2422-0.5625-9.375-3.3242 0.94141-6.7266 1.5977-10.16 1.9688 0.20703 2.9453 0.42188 5.9531 0.62891 8.8984l-0.003907-0.003906c3.418-0.070313 6.8086-0.57031 10.098-1.4883zm-1.293-19.914c-0.35156-3.7109-0.77344-7.4297-1.2656-11.148v0.003906c-3.0898 0.85547-6.2578 1.3945-9.4609 1.6094l0.62891 11.57c3.4219-0.35938 6.8047-1.043 10.098-2.0352zm-2.5234-21.562c-0.63672-4.3398-1.4062-8.625-2.25-12.898-2.0234 0.35547-4.1328 0.70312-6.2344 1.0508-0.14063 4.4258-0.14063 8.8398-0.074219 13.32 2.8789-0.23047 5.7305-0.71094 8.5234-1.4336zm-24.156 415.57c5.2578 1.3984 10.586 2.8672 15.844 4.3398-0.69531-5.1172-1.332-10.312-1.5391-15.488-4.8359-1.4062-9.6758-2.7383-14.512-4.0703v0.003907c-0.42578 5.0664-0.35547 10.164 0.20703 15.215zm-4.0703-455.57c12.273-2.2422 24.469-4.4141 36.816-6.2344-37.93-12.348-78.805-18.656-116.38-30.992-46.555-15.281-95.418-22.855-141.2-40.172-0.35547-0.14062-0.77734-0.28125-1.125-0.42188-1.332-0.5625-2.6641-0.9375-3.9922-1.5391h-0.003906c-0.78125 0.1875-1.582 0.30469-2.3906 0.34766-0.55469 0-1.0508 0.074218-1.6133 0.074218h0.003907c0.44531 16.293 2.7734 32.477 6.9453 48.234 3.4297 18.02 4.4805 36.102 6.8711 54.188 2.3047 0.49609 4.6211 0.9375 7.0039 1.332-1.4609-9.3477-2.1836-18.789-2.1641-28.25-0.77734-13.602-0.49609-27.188-1.1992-40.875h-0.003907c-1.3125-1.8008-1.3945-4.2227-0.20312-6.1094 1.1914-1.8867 3.4141-2.8516 5.6055-2.4375 69.992 13.52 139.12 31.168 207.03 52.855zm5.8203 472.67c3.6484-0.9375 7.293-1.875 11.008-2.7266l-11.57-3.1602c0.17969 1.9688 0.42188 3.9258 0.5625 5.8867zm6.1016-359.93c0.9375-27.617-3.5078-54.965-2.7383-82.5h0.003906c-16.859 3.2422-33.504 7.5039-49.848 12.758-11.07 3.75-22.434 6.5625-33.75 9.1875 2.9453 29.445 5.3242 55.527 5.625 87.422 27.074-8.2852 53.785-17.961 80.711-26.867zm0.5625 52.305 0.003906-0.003907c-0.44531-0.76172-0.66797-1.6367-0.63672-2.5195 0.074219-3.9297 0-7.7812-0.14062-11.711-8.2031 2.2422-16.473 4.4805-24.742 6.5625 0.35938 5.0742 0.003906 10.168-1.0586 15.141 8.9062-2.3516 17.738-4.875 26.578-7.4727zm-1.2656-24.957c-0.34375-5.2578-0.625-10.516-0.84375-15.777-8.625 2.8789-17.242 5.8203-25.801 8.7656 0.21484 4.4141 0.77734 9.0469 1.4062 13.809 8.4141-2.1953 16.832-4.4922 25.242-6.7969zm-15.777 335.62c-0.14062-3.9297-0.48828-7.8555-0.83594-11.711-6.168-1.6133-12.348-3.1484-18.582-4.6875 0.9375 7.3594 1.875 14.652 2.8125 21.945 5.4609-1.8828 11-3.8125 16.609-5.5664zm-1.6797-38.211c-6.5625-1.875-13.246-3.75-19.836-5.5391 0.14062 5.3984 0.48828 10.875 0.9375 16.266 6.2422 1.4727 12.477 3.0859 18.648 4.6328v-0.007813c-0.40234-5.1211-0.32031-10.27 0.25391-15.375zm-81.676 501.63c36.664 17.738 81.328-16.875 69.121-56.926l0.003907-0.003906c-6.2031-23.457-23.688-42.281-46.621-50.203-0.14062 0-0.20703-0.066406-0.34766-0.14062-3.2266 0.70312-6.5625 1.4062-9.8906 1.9688-1.6797 0.28125-3.2891 0.34766-4.9688 0.55469-0.074218 1.6875-0.21484 3.4414-0.35547 5.1172 8.4688 0.14453 16.73 2.6484 23.852 7.2305 7.1211 4.582 12.824 11.062 16.461 18.711 7.9219 16.875 12.414 39.965 3.2266 56.934-8.625 16.125-33.75 19.633-51.742 15.984 0.49609 0.26172 0.86328 0.54297 1.2656 0.75zm61.875-764.06 0.003906-0.003906c2.1211-4.6719 2.9219-9.8398 2.3164-14.934-10.238 2.5977-20.477 5.0547-30.711 7.293-0.28125 4.7734-0.62891 9.4688-0.83594 14.164 9.7422-1.6875 19.414-3.5078 29.062-5.8867 0.13281-0.21484 0.054687-0.42188 0.19531-0.63672zm1.4062-25.445c-0.42188-4.3516-0.77734-8.6992-1.125-12.977-10.023 3.4414-20.117 6.7305-30.215 9.957h0.003906c0.87891 3.3242 1.418 6.7266 1.6133 10.16 9.9844-2.1641 19.863-4.5742 29.793-7.1445zm-10.766 336.73c1.332-0.49609 2.7383-0.98437 4.1328-1.4727-1.1172-9.4688-2.3828-18.863-3.4297-28.258-6.168-1.4727-12.336-3.0195-18.441-4.5547 1.7539 10.508 4.3516 21.102 6.5625 31.199 3.7383 1.0508 7.3867 2.1016 11.176 3.0859zm-8.8516-478.85c7.5-1.0508 14.934-2.3047 22.434-3.5703-14.867-4.7734-29.934-9.1133-45.148-13.246 1.0508 6.6562 1.1172 13.453 1.875 20.117 0.24609 0.10937 0.48047 0.25391 0.69141 0.42187 6.7031-1.4727 13.438-2.7383 20.148-3.7227zm-10.434 433.34c6.2422 1.6133 12.555 3.1602 18.75 4.6328-0.42188-4.9141-0.70312-9.8164-0.77734-14.793v-0.003906c0.035157-0.55078 0.15625-1.0938 0.35547-1.6094-6.1016-1.6875-12.188-3.4414-18.234-5.1953-0.58984 5.6406-0.62109 11.324-0.09375 16.969zm-57.488 451.08c-13.387 46.059 73.125 50.336 69.273 8.0625-2.3828-26.363-11.57-46.688-38.633-49.988h-0.003906c-0.03125 0.58594-0.03125 1.1719 0 1.7539 0.35547 9.8164 6.168 10.867 13.125 15.496 7.1914 6.7695 10.508 16.695 8.832 26.43-3.0859 10.379-10.867 10.941-20.258 8.1367-11.148-3.4414-21.871-6.2422-32.324-10.312zm56.934-398.71c-0.12109-0.45703-0.21484-0.92578-0.28125-1.3945l-17.457-5.0547c0.55469 3.75 1.0508 7.4336 1.5391 11.25 5.3984-1.5 10.801-3.0469 16.199-4.8008zm-19.492-18.008c5.625 1.6133 11.25 3.2266 16.82 4.9023-2.2422-10.164-4.6211-20.477-6.0938-30.777-5.1953-1.332-10.379-2.6641-15.496-4.0703 1.4062 10.031 3.1602 19.988 4.7734 29.945zm9.5352-37.078c-0.36719-5.707-0.20313-11.434 0.48828-17.109-5.9609-1.6875-11.852-3.5078-17.812-5.2578 0.28125 6.1016 0.76953 12.133 1.4727 18.16 5.2695 1.4609 10.594 2.8555 15.852 4.207zm0.76953-279.24c-0.03125-3.1133-0.50781-6.207-1.4062-9.1875-2.1016 0.62891-4.1992 1.4062-6.375 2.0352v-0.003907c-1.6875 0.53906-3.5312 0.078126-4.7695-1.1875-0.22266-0.12109-0.43359-0.26172-0.62891-0.42187-5.1172 1.4062-10.164 2.9453-15.281 4.2734 0.066407 3.3008 0.20703 6.5625 0.34766 9.8164 9.4688-1.5469 18.785-3.375 28.113-5.3359zm-1.3867 24.598c0.14062-4.4141 0.63672-9.1211 1.0586-13.883-9.0469 1.8203-18.16 3.5703-27.273 5.043 0.20703 4.4258 0.48438 8.8438 0.83594 13.258 8.5039-1.5469 16.887-3.0195 25.379-4.418zm-13.969 707.32c7.2266 2.25 11.852 0.70312 8.7656-7.7812-2.3164-6.5156-6.3086-7.1445-11.352-10.367-12.758-8.0625-9.6094-24.121-8.7656-37.367v-0.003906c-10.551 0.41016-21.113-0.17578-31.547-1.7539 1.0508 12.543 1.332 27.758 2.8672 42.898v0.003906c12.824 6.125 26.238 10.941 40.031 14.371zm2.0352-79.219c0.67188-3.9844-0.69531-8.0391-3.6484-10.801-9.4375 0.98828-18.949 0.98828-28.387 0-2.4453 3.7891-4.5117 7.8047-6.1797 11.992 12.742 1.1484 25.57 0.75 38.215-1.1914zm2.0352-803.65c-0.17969-6.875-1.0742-13.711-2.6641-20.402-6.7305-1.7539-13.461-3.4297-20.195-5.1172v21.945c7.6406 0.91016 15.281 1.9609 22.859 3.5742zm-3.6484 131.8c-0.066406-7.9883-0.28125-15.629-0.5625-23.062-4.4141 1.6133-8.8984 3.1484-13.32 4.6211-0.066406 7.4336 0 14.867 0.14063 22.305 4.5547-1.2695 9.1875-2.6562 13.742-3.8672zm-1.125-34.004c-0.13281-3.0859-0.34766-6.0938-0.55469-9.0391-4.0039 1.1172-7.9961 2.1016-12.066 3.0078-0.066406 3.5078-0.066406 7.0781-0.14062 10.586 4.2852-1.4727 8.5625-3.0078 12.762-4.5547zm-1.332-19.773c-0.28125-3.9922-0.62891-8.0625-1.0508-12.055-3.2891 0.62891-6.6562 1.1914-10.023 1.7539 0 4.4141-0.074219 8.832-0.14062 13.258 3.7812-0.84766 7.5312-1.832 11.215-2.957zm0.14062 414.38c-0.62891-5.625-1.4727-11.148-2.3047-16.762l-14.73-4.1914c-1.6797-0.42188-3.4297-0.9375-5.1172-1.332 0.78516 8.3672 2.0977 16.68 3.9297 24.883v0.21484c6.125-0.58984 12.211-1.5391 18.223-2.8398zm-2.1016-436.78c-0.34766-2.9453-0.62891-5.9531-0.9375-9.0391-2.6641 0.62891-5.3984 1.1914-8.0625 1.7539 0 2.9453 0 5.8125-0.074218 8.7578 2.7383-0.41406 5.4766-0.9375 8.2031-1.4727 0.29297 0.03125 0.58594 0.019531 0.875-0.027344zm-14.793-44.062c3.9297-1.0586 7.8555-2.0352 11.711-3.0195-3.8516-0.62891-7.7812-1.1914-11.711-1.6797zm12.836 452.69c-1.6875-9.957-3.3672-19.988-4.7734-29.945-6.5117-1.875-13.031-3.8359-19.555-5.8867 1.1914 6.168 2.3047 12.414 3.3672 18.648 0.69531 4.1445 1.1914 8.2031 1.6797 12.348 6.5234 1.6211 12.953 3.168 19.281 4.7773zm-6.1016-41.297c-0.70312-6.1016-1.125-12.133-1.332-18.301-7.0781-2.1758-14.164-4.4141-21.18-6.7305 0.49609 6.2422 1.2656 12.555 2.25 18.75 6.7305 2.1562 13.473 4.2539 20.262 6.2227zm-9.7422-240.88c-0.35547-4.5547-0.63672-9.1875-0.9375-13.742-5.7461 0.84375-11.492 1.6133-17.242 2.25-0.21484 5.3984-0.35547 10.789-0.49609 16.125 6.1875-1.7539 12.434-3.2266 18.676-4.6328zm-1.4062-24.188c-0.14062-2.9453-0.28125-5.8867-0.34766-8.832-5.1914 1.1016-10.473 1.707-15.777 1.8203-0.066406 3.0859-0.14062 6.1016-0.28125 9.1133 5.5391-0.55469 10.941-1.332 16.406-2.1016zm-0.32812-99.066c0.066406-2.7266 0.066406-5.4648 0.066406-8.2031-6.168 1.3398-12.273 2.6719-18.367 4.1445 0.34766 2.6641 0.5625 5.3906 0.84375 8.1289 5.7344-1.6992 11.562-3.0586 17.457-4.0703zm-0.21484 24.188c0.074219-4.4805 0.074219-8.9727 0.14062-13.453-5.5312 0.91406-10.988 2.2227-16.332 3.9219 0.20703 3.582 0.34766 7.2266 0.5625 10.801v-0.003907c5.2266-0.03125 10.445-0.45312 15.609-1.2656zm0 55.312c-0.14062-7.293-0.20703-14.652-0.20703-21.945-4.8477 1.2031-9.7656 2.0938-14.727 2.6641 0 7.0859-0.14062 14.23-0.34766 21.32v-0.003906c5.1406-0.1875 10.25-0.86328 15.262-2.0234zm-0.20703-32.746c0-3.9922 0.066406-7.9883 0.066406-11.914-4.9766 0.65234-9.9844 1.0273-15 1.125 0.14062 4.5547 0.14062 9.1797 0.20703 13.734 4.9727-0.58984 9.8906-1.5703 14.707-2.9336zm-1.125 585.76c3.2266-60.43-11.43-120.31-4.7617-180.8-64.047-8.1602-127.08-22.867-188.13-43.883-55.875-19.492-120.16-31.828-173.16-58.754 1.125 79.012 20.336 160.2 32.109 238.12 59.383 8.4375 118.9 15.281 178.36 22.855 51.457 6.6289 103.83 18.621 155.57 22.473zm-0.5625-678.16v0.003906c-0.082031-0.37109-0.13281-0.74609-0.14062-1.125v-6.2344c-5.3984-0.62891-10.727-1.332-16.051-2.1758 0.066406 4.4141 0.14062 8.9062 0.20703 13.387 5.3164-1.1992 10.641-2.5117 15.965-3.8438zm-0.14062-17.664v-22.805c-5.7461-1.3984-11.492-2.8125-17.242-4.1328 0.42188 8.1289 0.76953 16.332 0.9375 24.535 5.4297 1.0117 10.887 1.7148 16.285 2.418zm-24.836 495.26c6.5156 0.9375 13.039 1.875 19.555 2.8125-1.7539-8.7656-2.8672-17.531-3.8516-26.363-7.0547-1.8516-13.969-4.2148-20.68-7.0781 1.7539 10.23 3.4297 20.391 4.9766 30.629zm14.438-34.5c-0.55469-4.5547-1.2578-9.1133-2.1016-13.594-1.0508-6.0273-2.2422-12.066-3.2891-18.02-7.1523-2.5234-14.305-5.1953-21.383-7.9961 1.6797 10.238 3.4297 20.477 5.1836 30.777h0.14062c6.7969 3.7383 13.992 6.7031 21.449 8.832zm-7.2852-43.32c-0.9375-6.168-1.5469-12.336-1.875-18.582-7.4336-2.5234-14.793-5.2578-22.086-7.9883 0.76953 6.0938 1.6875 12.188 2.5977 18.289 7.0586 2.9531 14.211 5.6836 21.367 8.2812zm-3.5039 390.64c1.5117-4.1992 3.3945-8.2617 5.625-12.129-12.965-1.9688-26.43-4.9766-41.785-8.1367-50.129-10.367-100.82-15.844-150.31-29.23-46.555-12.617-93.18-25.453-139.52-38.633-58.961-16.82-148.49-26.352-137.48-107.2 11.504-83.773 65.344-158.86 91.875-238.23v-0.003907c0.30078-0.92188 0.73047-1.793 1.2852-2.5898-6.6641-23.07-14.867-45.789-21.664-68.852-8.2695 9.5352 5.7461 40.031 7.9219 48.094v0.003906c-0.18359 3.9219-0.84375 7.8047-1.9609 11.566-24.824 54.195-48.75 108.95-68.711 165.1-16.266 45.852-48.516 113.64-7.0117 155.5 39.121 39.543 89.531 39.676 140.91 48.75 48.938 8.5586 94.445 27.488 142.04 41.016 52.445 14.934 106.78 19.836 159.85 31.547 6.5195 1.4453 12.766 2.4961 18.934 3.4141zm-4.6328-583.87c0.14062-53.699 5.625-109.69-0.48828-162.44-6.4492 1.6797-12.836 3.5703-19.211 5.625 0.20703 18.301-3.0859 36.562-4.0703 55.18-1.875 35.117-4.5547 69.965-4.9766 105.09l0.003906 0.003906c0.65234 0.0625 1.3125 0.085938 1.9688 0.074219 0.56641 0.050781 1.125 0.14453 1.6797 0.28125 0.34766-0.074219 0.62891-0.21484 0.98437-0.28125 7.9844-1.0703 16.047-2.2578 24.109-3.5234zm-0.5625-200.51c0-5.8125-0.13281-11.633-0.27344-17.523-1.3398-0.28125-2.6719-0.49609-4.0039-0.84375-3.2891-0.76953-6.5625-1.6133-9.8828-2.457-0.074219 7.7148-0.074219 15.496 0.066407 23.277 4.7031-0.69922 9.3984-1.4688 14.094-2.4531zm-0.48828-28.32c-0.20703-8.2695-0.62891-16.547-1.0508-24.816l-14.719-3.3672 0.003906 0.003906c2.0117 8.2031 2.7695 16.664 2.2383 25.094 4.4844 1.125 9.0469 2.1016 13.531 3.0859zm-23.969-6c0.66406-8.4805-0.66016-17-3.8633-24.883-6.0273-1.332-11.992-2.6719-17.945-3.9297 0.5625 7.5 1.1914 15.141 1.875 22.781 6.6094 2.2148 13.266 4.1562 19.934 6.0312zm-0.14062 38.008c-0.21484-9.1211-0.35547-18.234-0.14062-27.348-6.2422-1.6797-12.477-3.5703-18.656-5.4648 1.125 11.352 2.457 22.641 4.3516 33.508l2.3828 0.42188-0.003906-0.003906c0.55859-0.125 1.1211-0.21875 1.6875-0.28125 3.4297-0.10156 6.9375-0.40234 10.379-0.79688zm-16.199 108.34c1.6133-29.578 9.957-61.688 1.875-90.789v0.003906c-0.60937 0.019532-1.2227-0.027344-1.8203-0.14062-70.039-11.07-137.62-29.23-206.2-46.621-31.688-8.0625-63.656-17.664-95.84-23.438-18.254-1.8672-35.934-7.4492-51.945-16.406l-14.719 1.875c17.316 76.977 19.414 158.3 29.23 236.9 0.62891 5.1172 60.148 11.008 66.816 11.852 23.484 2.8125 48.094 2.0352 71.25 6.168v-0.003906c45.16 7.7969 90.828 12.309 136.64 13.5 18.75 0.5625 38.906 6.2422 57.273 4.7734 5.6797-0.5 7.0117-89.047 7.4336-97.672zm-5.5703 350.68c2.6719 0.5625 5.3359 1.125 7.9961 1.6133-2.6641-16.258-5.2578-32.523-7.5742-48.863-14.777-25.117-26.699-51.809-35.539-79.574l-22.293 5.6797c22.387 38.211 33.887 83.57 57.41 121.14zm-2.5859-157.04v-0.003906c0.66797-0.19922 1.3477-0.36328 2.0312-0.48438-4.2109-26.852-5.6797-54.055-7.7891-81.254-8.2695-0.35547-16.539-0.84375-24.742-1.332 3.0078 16.613 7.2852 32.945 10.098 49.633 2.1016 12.273 3.2148 24.816 6.375 36.883 3.75-1.0508 7.4336-2.0352 11.148-3.0195v-0.003907c0.94531-0.26953 1.9219-0.41016 2.9062-0.42187zm-16.762-305.81 15.844 2.7383c-1.875-11.504-3.2891-23.277-4.3398-35.129-5.0547-1.6133-9.957-3.3672-14.934-5.1172l-0.003906-0.003906c-0.011719 0.625 0.011719 1.25 0.066406 1.875-0.37891 11.973 0.76172 23.949 3.3945 35.633zm16.059 386.51c-2.1758-19.211-3.6484-38.559-4.1328-57.984-5.8203 1.6133-11.711 3.1602-17.531 4.7734l-0.003906-0.003906c5.6641 18.34 12.922 36.145 21.695 53.215zm-5.625-430.26c-0.5625-7.2188-1.125-14.445-1.7539-21.562l-12.77-2.6992c0.21484 6.3828 0.28125 12.836 0.35547 19.211 4.6797 1.75 9.4414 3.3633 14.215 5.0508zm-42.281 494.34c12.188 3.2891 24.543 6.3086 36.883 9.1133-20.758-36.742-32.043-79.5-53.633-115.31-8.625 2.1094-17.316 4.2109-25.941 6.2422h-0.003906c5.293 11.031 9.7461 22.441 13.32 34.145 9.3672 22.133 19.117 44.164 29.422 65.812zm18.383-136.96c-0.49609-1.8203-0.98438-3.6484-1.3398-5.4648-43.125 8.6914-83.773 24.262-127.59 30.496-37.367 5.2578-75 17.879-112.94 19.211 0.20703 2.3164 0.34766 4.5547 0.48828 6.8711 81.297-12.816 161.87-29.879 241.39-51.113zm-4.4922-22.012h0.20703c-1.0508-7.5-2.0234-15-3.6367-22.359-3.3672-15.844-7.0859-31.621-9.6094-47.605-38.492-2.6641-76.875-5.8867-115.54-7.7148v-0.003906c-44.547-1.3477-88.977-5.2773-133.07-11.773 1.875 46.762 16.199 92.68 22.434 138.96 39.965-0.9375 83.852-14.062 123.39-20.539 39.543-6.4805 76.668-21.219 115.86-29zm-4.4531 386.7c0.074218-0.34766 0.14062-0.70312 0.21484-0.98438-3.9297-0.69531-7.8555-1.332-11.785-1.9609-2.6641 16.473-17.035 31.688-35.117 25.312-3.6758-1.3398-7.0391-3.418-9.8906-6.1016 5.2852 6.0703 12.438 10.215 20.336 11.773 22.508 4.6133 34.773-5.5391 36.242-28.039zm-15.062-685.6c2.7266 0.55469 5.4648 1.0508 8.1953 1.6133-2.8672-21.461-5.6719-42.91-9.0391-64.359v-0.003906c-2.3906-11.645-3.8203-23.465-4.2773-35.344-3.0195 0.21484-6.1016 0.35547-9.1211 0.63672 1.125 18.02 5.3359 36.664 7.9961 54.375v0.003906c1.3359 14.457 3.4219 28.836 6.2461 43.078zm-17.605-118.12c3.6484-0.35547 7.293-0.63672 10.941-0.9375h-0.003906c-6.9805-8.0547-14.629-15.512-22.855-22.285-12.344-9.7773-27.402-15.504-43.125-16.398 0.70703 1.4922 1.293 3.0391 1.7539 4.6211 0.19141 0.73437 0.28516 1.4844 0.28125 2.2422 3.4297 0 6.9375-0.14062 10.445-0.14062h-0.003907c0.058594 0.058594 0.13672 0.085938 0.21875 0.074219 0.34766 0 0.69531-0.074219 1.0508-0.074219 18.512 1.0586 31.414 18.301 41.293 32.887zm4.1133 115.17 2.0352 0.42188c-3.75-17.102-4.6875-35.195-7.1523-52.5-1.875-13.668-4.9766-27.555-6.0273-41.363-7.4336 0.76953-14.934 1.6797-22.359 2.7383h-0.003906c4.8242 15.523 10.535 30.762 17.102 45.637 6.1953 14.848 10.473 30.207 16.406 45.066zm6.0273 457.18c-7.9219-16.875-15.488-33.863-22.855-51.039-5.8125-13.742-8.1289-30.852-17.523-42.695-7.7148 1.7539-15.422 3.4297-23.062 5.1836v0.003906c3.9297 8.2578 7.3242 16.762 10.164 25.453 6.8711 17.664 13.883 35.68 21.945 52.855 0.14063 0.35547 0.14063 0.62891 0.27344 0.9375 10.191 3.2734 20.57 6.4219 31.012 9.3008zm-21.355 243.56c5.2148 1.3281 10.75 0.19922 15.027-3.0664 4.2773-3.2656 6.8242-8.3086 6.918-13.688-10.66-1.6797-21.242-3.2266-31.875-4.5547-1.0586-0.14062-2.0352-0.28125-3.0938-0.34766-0.47266 4.5352 0.54297 9.0977 2.8906 13.008 2.3477 3.9062 5.9062 6.9414 10.133 8.6484zm-26.43-710.34c9.8164 2.3828 19.633 4.6875 29.512 6.9375-5.625-14.793-10.238-29.793-16.406-44.445h0.003906c-5.9961-13.668-11.145-27.691-15.414-41.992-9.1133 1.3984-18.16 2.8672-27.188 4.4805 14.484 22.293 21.777 49.707 29.492 75.02zm18.43-103.48c-1.7539-2.2422-3.4961-4.4922-5.3906-6.5625-4.2812-4.6133-9.9531-11.176-16.684-11.523-0.22656-0.089844-0.46484-0.13672-0.70312-0.14062-0.20703 0-0.34766 0.14062-0.5625 0.14062-52.574-0.5625-106 8.2695-158.16 14.062-22.641 2.457-45.215 4.6875-67.789 7.2266-30.938 3.4961-16.34 19.07-2.1758 33.367 48.75-6.375 97.66-12.477 146.39-19.492 34.836-5.0898 69.887-12.523 105.08-17.078zm-21.309 554.62c2.1016 0.77734 4.2734 1.4062 6.4492 2.1094-4.4141-10.172-8.625-20.41-12.824-30.711-5.3984-12.965-8.9805-30.141-17.184-41.992-7.8477 1.7539-15.77 3.3672-23.625 4.9766 4.3086 7.8828 7.7656 16.203 10.312 24.816 3.75 11.148 8.6172 21.805 12.188 33.02 8.3828 2.5195 16.625 5.1172 24.688 7.7812zm-8.9727-454.02h0.003906c-5.9609-24.766-15.77-48.441-29.062-70.172-9.3281 1.6797-18.582 3.2266-27.836 4.7617 3.6875 7.5469 6.8203 15.348 9.375 23.344 3.75 11.363 9.4609 21.945 13.246 33.168 11.422 3.0586 22.848 6.0312 34.277 8.8984zm-20.68-135.21c-0.84375-2.5977-1.875-5.1953-2.8125-7.7148-4.4141 0-8.9805 0.074219-13.68 0.074219h0.003906c-47.797-1.5703-95.645 0.65234-143.09 6.6562-4.9766 0.76953-31.547 5.8203-58.258 12.188 2.0352 3.8633 4.6328 7.5742 6.7969 10.867 4.9766-0.48828 9.4688-0.69531 12.695-1.1172 64.93-7.8281 132.44-18.871 198.34-20.953zm-35.125 569.82c9.3242 2.6641 18.582 5.3242 27.77 7.9883-2.8789-7.707-6.1797-15.207-8.8398-23.062h-0.003906c-2.6289-10.195-6.7891-19.934-12.336-28.883-7.4336 1.5391-14.934 3.0195-22.359 4.4141 2.3828 5.1172 4.3398 10.52 6.2344 15.938 2.8789 8.043 6.5234 15.684 9.5352 23.605zm8.3438-447.01c0.28125 0.066406 0.48828 0.14062 0.76953 0.20703-3.1484-7.7148-7.0039-15.215-9.6758-23.137-2.9453-9.7773-6.8398-19.238-11.637-28.25-4.9023 0.76953-9.8164 1.5391-14.719 2.1641-2.1094 0.35547-4.2109 0.5625-6.3086 0.9375v0.003906c6.293 12.707 10.41 26.383 12.188 40.453 9.8242 2.5039 19.641 4.9492 29.383 7.6211zm-8.2695 731.3v-11.633c-22.367-3.9297-57.91-4.4922-55.742-33.027-7.4258-0.9375-14.859-2.0234-22.293-3.0859 6.8047 33.863 44.734 46.902 78.035 47.746zm-37.652-295.57c8.2031 2.5977 16.473 5.1172 24.75 7.5664-2.3906-5.625-4.7734-11.25-6.8047-17.102-1.9219-5.7344-4.2227-11.336-6.8906-16.762-6.9375 1.3398-13.809 2.5977-20.746 3.8633 2.5391 7.7031 6.4688 14.934 9.6914 22.434zm-11.773-450.52 16.961 4.1992c-2.3164-12.617-4.2734-26.914-12.898-35.961-4.5547 0.62891-9.0391 1.1914-13.602 1.875 3.1562 9.9922 6.4453 19.93 9.5391 29.887zm-1.6133 446.16c-2.6211-5.2773-4.8711-10.734-6.7305-16.332-8.4375 1.3984-16.969 2.8672-25.453 4.1992 10.445 4.4258 21.168 8.4219 32.184 12.133zm-10.312-449.06c-2.7266-8.4844-5.4648-17.043-8.2031-25.594-5.9531 0.76953-11.992 1.6133-17.945 2.3828h0.003906c1.082 5.1523 3.1797 10.035 6.168 14.371 0.98047 1.1445 1.2539 2.7383 0.70312 4.1445 0.62891 0.20703 1.332 0.28125 1.9609 0.48828zm-16.613 736.43c-10.082-10.262-16.344-23.672-17.734-37.996-3.6523-1.5273-5.6914-5.4492-4.8398-9.3164-12.336-82.941-33.301-169.39-33.516-253.38-0.066407-0.066406 0-0.20703 0-0.28125-11.43 29.805-24.676 58.754-38.062 87.852-16.48 35.887-37.227 74.383-42.703 114.21-4.9023 36.242 8.0625 60.637 44.945 71.645 18.508 5.4766 37.012 11.25 55.527 16.762 12.121 3.6484 24.254 7.0781 36.383 10.508zm-14.727-743.63c-2.4023-4.6328-4.1914-9.5586-5.3242-14.652-12.898 1.6797-25.867 3.4297-38.84 5.1172 14.543 3.9531 29.285 7.1367 44.164 9.5352zm-23.906 428.02c1.875-0.27344 3.6484-0.55469 5.3984-0.83594-2.9453-56.25-23.438-111.56-25.031-168.12-4.9688-0.9375-10.023-2.1016-15-3.2266v0.14062c3.2266 21.945 9.0469 47.109 3.9922 69.195 9.332 34.559 22.859 67.859 30.641 102.85zm-45.43 350.34v-0.066407c-2.3828-0.49609-4.7617-0.98438-7.0781-1.6133 1.7227 2.0547 3.1836 4.3164 4.3477 6.7305 0.74219-1.1758 1.4219-2.3945 2.0352-3.6445 0.27344-0.44922 0.50781-0.92578 0.69531-1.418zm-28.633 82.789c17.25-11.008 22.359-35.055 19.836-54.543-3.2969-4.2031-6.3594-8.5859-9.1758-13.125l-0.84375 1.6875c0.36328 0.57422 0.625 1.207 0.76953 1.875 4.2734 22.855-0.70313 70.594-34.352 65.41-38.07-5.9609-51.562-62.887-17.812-82.5 0.30469-0.17578 0.63672-0.29688 0.98438-0.34766 0.066406-3.8633 0.14062-7.6406 0.20703-11.504h-6.8633c-13.57 8.9258-22.852 23.059-25.66 39.055-1.6328 10.258 0.17578 20.77 5.1484 29.891 4.9688 9.1211 12.824 16.336 22.332 20.52 12.926 6.5898 31.863 12.207 45.43 3.582zm-4.0312-884 7.8477-1.0039c-11.316-11.617-23.203-26.129-20.121-37.5 2.2266-5.75 7.2148-9.9844 13.25-11.25-1.9766-3.2305-3.7578-6.5781-5.3281-10.023-25.941 6.8633-47.605 14.512-43.602 20.184 11.914 16.547 30.637 27.066 46.547 39.891v0.003907c0.45703-0.15234 0.92969-0.25391 1.4062-0.30078zm-8.1562 873.2c11.711-7.5664 14.578-24.957 13.809-39.609-0.5625 0.98438-1.0508 2.0352-1.6875 3.0195-5.1836 8.6172-13.387 24.328-24.535 26.711-11.992 2.5977-18.16-7.9219-17.457-18.93 0.62891-9.75 0.9375-19.426 1.1914-29.164-5.5859 5.2031-9.125 12.234-9.9727 19.824-0.84766 7.5859 1.0508 15.227 5.3516 21.535 5.8398 9.7422 20.418 25.031 33.301 16.613zm-4.7734-29.859c9.9023-15.004 18.488-30.84 25.66-47.324-13.395-3.8789-26.234-9.4688-38.203-16.621 0.066406 2.0352 0.14062 4.0703 0.27344 6.168 0.98828 0.96875 1.0508 2.5391 0.14062 3.582 1.2539 12.945 1.1406 25.984-0.34766 38.906-2.1758 7.1016-2.7734 14.59-1.7539 21.945 2.9727 8.7656 12.574-4.3477 14.184-6.6562z"/>
 <path d="m972.03 823.36c0.14062 2.0039-1.0586 3.8594-2.9414 4.5547-0.57031 0.53125-1.2734 0.89844-2.0352 1.0625-32.035 8.1953-62.531 19.762-94.086 29.23-31.406 9.375-64.219 12.336-95.203 23.344h-0.003907c-1.6328 0.58203-3.4531 0.24219-4.7695-0.88672-1.3164-1.1289-1.9297-2.875-1.6055-4.5781-0.16406-0.42578-0.26172-0.875-0.28125-1.332-1.4062-47.465-3.6484-94.434-3.5078-141.98h0.003906c0.007813-1.6797 0.83594-3.2539 2.2148-4.2148 1.3789-0.96484 3.1406-1.1953 4.7227-0.62109 38.492-3.75 75.648-17.242 113.02-26.352 22.227-5.4766 45.289-17.879 68.148-18.441h-0.003907c1.4414-0.085938 2.8398 0.48047 3.8164 1.5391 0.97656 1.0586 1.4297 2.5 1.2305 3.9258v0.14062c6.5664 44.59 10.336 89.547 11.285 134.61zm-10.648-3.75c-0.074218-4.7734-0.28125-9.6094-0.49609-14.371-6.8711 1.8203-13.809 3.5703-20.68 5.3984 0.70312 4.6875 1.4062 9.375 2.1016 14.156 6.3047-1.7812 12.688-3.543 19.074-5.1445zm-0.84375-24.816c-0.14062-2.6719-0.28125-5.2578-0.42188-7.9219-7.3594 2.5859-14.859 5.1094-22.293 7.4258 0.28125 1.9688 0.5625 3.8633 0.84375 5.8203 6.7227-1.7539 13.527-3.4297 20.324-5.2578 0.51172-0.078125 1.0312-0.085937 1.5469-0.027344zm-1.5469-18.656c0.14453 0.011719 0.28906-0.011719 0.42188-0.066407-0.42188-5.8867-0.76953-11.773-1.2578-17.738-8.0625 2.2422-16.059 4.4141-24.055 6.5156 0.63672 6.3086 1.4062 12.555 2.25 18.797 7.5664-2.2773 15.074-4.7305 22.641-7.4688zm-1.8203-28.461c-0.69922-7.8516-1.4727-15.699-2.3164-23.551-7.7148 2.4453-15.562 4.9766-23.344 7.5664 0.42188 7.2188 0.76953 14.371 1.332 21.039v-0.003907c0.007812 0.51563 0.054687 1.0312 0.14062 1.5391 7.9883-2.0625 16.051-4.2656 24.207-6.5547zm-4.0703-34.004c0.14062-0.066406 0.28125 0 0.34766-0.066406-0.76953-6.5625-1.6133-13.125-2.5234-19.566h0.003906c-8.418 1.2344-16.652 3.4688-24.535 6.668 2.0742 6.5898 3.4609 13.379 4.1328 20.258 7.5781-2.4844 15.141-4.9414 22.578-7.2539zm-20.887 114.14c-0.77734-4.8359-1.5469-9.6758-2.25-14.512-6.5625 1.7539-13.18 3.4414-19.773 5.1172 0.42188 5.2578 0.77734 10.594 0.9375 15.938 6.9883-2.2969 14-4.4727 21.086-6.543zm-3.8633-24.957c-0.28125-1.8203-0.62891-3.6484-0.9375-5.5391-6.2422 1.8281-12.555 3.582-18.93 5.1953 0.20703 1.7539 0.48828 3.5703 0.70312 5.3242 6.4062-1.6523 12.793-3.3281 19.168-5.0156zm-2.3828-16.125c-0.84375-6.3086-1.6133-12.684-2.2422-19.07-6.5625 1.7539-13.258 3.4297-19.773 5.1172 1.0508 6.3086 2.1016 12.695 3.0859 19.07 6.3164-1.6484 12.652-3.3242 18.934-5.1523zm-3.2266-29.652c-0.42188-6.6641-0.84375-14.23-1.4062-21.945-7.5664 2.5234-15.141 4.9766-22.781 7.3594 1.125 6.6641 2.3164 13.32 3.5078 19.914 6.875-1.7188 13.812-3.5469 20.684-5.3672zm-2.3828-32.672h0.007812c-0.67969-6.7422-1.9727-13.406-3.8633-19.914-4.2734 1.5586-8.625 2.8945-13.039 3.9961l-9.4609 2.5312c0.76953 7.0039 1.7539 14.062 2.8789 21.027 7.9219-2.4922 15.703-5.082 23.484-7.6797zm-41.918 120.76c7.4258-2.5234 14.859-5.043 22.293-7.5-0.074219-5.625-0.35547-11.148-0.76953-16.688-7.9961 2.0352-15.938 4.0703-23.906 6.0273 0.69531 6.1055 1.5391 12.133 2.3828 18.16zm20.465-34.773c-0.20703-1.8281-0.34766-3.75-0.55469-5.5391-7.9961 1.875-15.938 3.5078-24.121 4.9766 0.21484 2.2422 0.42188 4.4141 0.62891 6.6562 8.0625-2.0234 16.059-4.0547 24.047-6.0898zm-2.0234-16.059c-0.9375-6.375-1.9688-12.684-3.0195-19.07-7.3594 1.875-14.719 3.582-22.086 5.1953 0.49609 6.375 0.9375 12.684 1.5469 18.992 7.9297-1.6367 15.766-3.2852 23.559-5.1133zm-4.8398-29.332c-1.1992-6.4492-2.3164-12.898-3.4414-19.352-6.375 1.875-12.758 3.75-19.133 5.5391 0.48828 6.2344 1.0508 12.543 1.5391 18.75 7.0117-1.6094 13.996-3.2227 21.035-4.9375zm-5.1641-29.832c-1.1172-7.1523-2.1758-14.371-3.0859-21.562-5.8867 1.6133-11.852 3.1602-17.738 4.7734 0.9375 7.3594 1.7539 14.793 2.457 22.219 6.1797-1.7812 12.246-3.5352 18.367-5.4297zm-18.441 113.44c-0.9375-6.3086-1.7539-12.617-2.5234-18.992-6.4492 1.6797-12.824 3.2891-19.273 4.9766 0.28125 6.6562 0.42188 13.387 0.42188 20.117v0.003907c7.2227-1.6484 14.348-3.6914 21.348-6.1133zm-3.75-29.512c-0.28125-2.457-0.48828-4.9023-0.70312-7.3594-0.9375 0.14062-1.8203 0.34766-2.7266 0.48828-5.2578 0.84375-10.516 1.8242-15.777 2.9453 0.20703 2.8789 0.42188 5.7578 0.62891 8.6992 6.1758-1.625 12.418-3.2344 18.59-4.7812zm-1.668-17.531c-0.49609-6.3203-0.98438-12.555-1.4727-18.863-6.1797 1.3984-12.414 2.6641-18.582 3.9297 0.62891 6.2344 1.1914 12.543 1.7539 18.75 6.2344-1.293 12.34-2.625 18.301-3.8164zm-2.3164-29.305c-0.49609-6.168-0.98438-12.273-1.5469-18.441-6.375 1.6133-12.758 3.0078-19.211 4.3398l1.875 18.094c6.332-1.2656 12.641-2.5977 18.883-3.9922zm-2.457-29.062c-0.70313-7.3672-1.5391-14.727-2.3828-22.086-1.2656 0.34766-2.457 0.62891-3.6484 0.98438-5.1172 1.3984-10.312 2.7266-15.496 4.1328h0.003906c0.19141 0.39453 0.3125 0.82422 0.35547 1.2656 0.55469 6.7227 1.1914 13.387 1.8203 20.117 6.4492-1.3047 12.898-2.7656 19.348-4.3789zm-21.664 113.75c0-0.066406-0.066406-0.20703-0.066406-0.28125 0.066406-6.5156-0.074219-12.965-0.28125-19.414-7.3594 1.8203-14.652 3.75-22.012 5.7461 0.066406 5.6797 0.14062 11.43 0.066406 17.176v-0.003907c-0.019531 0.4375-0.11328 0.86719-0.28125 1.2656 7.5742-1.4688 15.074-2.9414 22.574-4.4883zm-0.83594-30.496c-0.21484-3.0078-0.42188-6.0938-0.63672-9.1797-7.0117 1.5391-14.062 3.0078-21.027 4.3398 0 3.5078 0.066406 7.0117 0.14062 10.52 7.1445-1.8945 14.297-3.7891 21.523-5.6797zm-1.3398-18.75c-0.55469-6.375-1.1172-12.684-1.7539-19.07-6.4492 1.1914-12.824 2.3164-19.273 3.4297 0 0.9375 0.066406 1.875 0.14062 2.8125 0.066406 5.625 0.20703 11.148 0.34766 16.754 6.8047-1.2266 13.742-2.5586 20.512-3.9648zm-2.8398-29.484c-0.62891-6.0273-1.2656-12.055-1.875-18.16-6.4492 1.125-12.898 2.0352-19.352 2.6719 0.9375 6.3086 1.7539 12.543 2.3164 18.852 6.3555-1.0508 12.66-2.1719 18.91-3.3633zm-2.9453-28.602c-0.69922-6.9375-1.3242-13.879-1.875-20.82-6.5625 1.6875-13.125 3.1602-19.773 4.5547 0.42188 6.3828 1.125 12.695 1.9609 18.93 6.5469-0.63281 13.07-1.543 19.66-2.668zm-23.699 113.72v-0.003906c-0.71875-0.89453-1.1172-2.0078-1.125-3.1602 0.074219-4.8359 0-9.6016 0-14.438-7.5 2.0352-15.066 3.9922-22.5 6.0273-0.14062 0.066406-0.28125 0-0.42188 0.066406 0.21484 5.8203 0.42188 11.711 0.5625 17.531 7.7539-2.3789 15.609-4.3477 23.457-6.0273zm-1.125-28.461c-0.066407-3.75-0.066407-7.6406-0.13281-11.504l0.003906-0.003906c-7.8281 1.2305-15.719 1.9844-23.637 2.25 0.14062 5.1094 0.35547 10.312 0.49609 15.488 7.6797-2.1016 15.461-4.1367 23.242-6.2344zm-0.35547-21.746c-0.14062-6.0938-0.20703-12.188-0.42188-18.289-0.054687-0.37109-0.078125-0.75-0.066406-1.125-7.9219 1.1914-15.844 2.3164-23.84 3.2891 0.21484 6.0391 0.35547 12.066 0.5625 18.094 7.9531-0.17969 15.891-0.83594 23.766-1.9688zm-1.2656-29.793c-0.55469-6.5625-1.4727-13.18-2.3047-19.773-7.1523 0.42187-14.371 0.49609-21.562 0.21484 0.14062 7.5664 0.34766 15.141 0.48828 22.715 7.8672-0.91406 15.652-1.9688 23.359-3.1562zm-3.75-30.215c-0.76953-5.8867-1.4727-11.773-1.875-17.738-6.0938 1.125-12.262 2.0352-18.441 2.7383 0 5.043 0.074219 10.098 0.14062 15.141 6.7305 0.28125 13.465 0.20703 20.195-0.14062z"/>
 <path d="m717.89 732.19c5.9922 50.789 8.7305 101.91 8.2031 153.05-0.046875 1.8789-1.0938 3.5859-2.7422 4.4805-1.6523 0.89844-3.6562 0.84375-5.2539-0.14062-48.75-10.93-97.875-14.578-147.09-22.078-46.199-7.0117-92.195-19.285-138.82-23.137-0.97656-0.10938-1.9023-0.5-2.6602-1.125-1.707-0.40625-3.0703-1.6875-3.582-3.3672-20.625-64.988-27.695-132.85-44.934-198.62-0.46094-1.8008 0.074219-3.7148 1.4062-5.0156 1.3281-1.3008 3.25-1.793 5.043-1.293 1.3789-0.53906 2.9297-0.40625 4.1992 0.35547 46.875 25.867 104.12 35.961 155.16 50.961 54.75 16.125 108.95 28.398 164.34 41.016 1.5508-0.28516 3.1523 0.078124 4.4258 1.0078 1.2734 0.92969 2.1055 2.3398 2.3047 3.9062zm-2.3906 146.14c0-4.2109 0-8.4375-0.066406-12.617-7.2188-1.1914-14.586-2.1758-21.871-3.2266 0.48828 3.4414 0.83594 6.8711 1.3984 10.312 0.015624 0.46875-0.007813 0.94141-0.066407 1.4062 6.8711 1.2578 13.742 2.6523 20.605 4.125zm-0.14062-23.137c-0.066406-6.7969-0.27344-13.527-0.48828-20.324-8.0625-1.0508-16.191-2.0352-24.328-3.0195 0.48828 6.6641 1.0508 13.246 1.7539 19.914 7.7148 1.0469 15.422 2.1719 23.062 3.4297zm-0.83594-30.938c-0.21484-5.25-0.35547-10.508-0.5625-15.77-0.11719 0.015625-0.23828 0.039062-0.35547 0.066406-8.1289-1.1172-16.258-2.3828-24.375-3.5078 0.14062 5.3984 0.42188 10.801 0.70312 16.199 8.1836 1.0039 16.387 1.9805 24.59 3.0312zm-25.66-29.793c8.1289 1.125 16.191 2.3164 24.328 3.5078-0.42188-6.7969-0.84375-13.602-1.4062-20.398-7.7812-1.4727-15.562-2.8125-23.344-4.2109 0.066406 7.1055 0.20703 14.145 0.42578 21.121zm22.078-27.695c-0.62891-7.0781-1.3984-14.156-2.1758-21.242-0.27344 0-0.48828 0.14062-0.76953 0.074219-6.7305-0.70312-13.461-1.2656-20.117-1.8281 0.14062 6.3203 0.28125 12.695 0.34766 19.004 7.5781 1.3477 15.152 2.6133 22.719 4.0117zm-26.566 105.47c-0.5625-3.75-1.0508-7.5742-1.5391-11.363-11.156-1.5391-22.367-2.9453-33.59-4.3516 0.14062 3.4414 0.21484 6.8711 0.21484 10.312 11.633 1.6172 23.27 3.4141 34.914 5.4023zm-2.6641-22.023c-0.62891-6.5156-1.1914-13.125-1.6133-19.621-10.941-1.3398-21.805-2.5977-32.672-3.8633 0.5625 6.4492 1.0508 12.898 1.4062 19.352 10.934 1.332 21.941 2.6641 32.879 4.1367zm-2.3164-30.215c-0.28125-5.4648-0.48828-10.93-0.70312-16.406-11.43-1.6133-22.855-3.2891-34.285-4.9023 0.70312 5.8203 1.3398 11.633 1.9688 17.457 11.008 1.2656 22.062 2.5234 33.023 3.8516zm-0.9375-26.992c-0.20703-7.1523-0.34766-14.297-0.48828-21.449-12.617-2.1758-25.238-4.2773-37.855-6.3086 1.0508 7.5664 2.0352 15.141 3.0078 22.715zm-0.73828-32.031c-0.074219-6.0273-0.21484-11.992-0.35547-18.02-13.527-1.0508-26.992-2.1094-40.453-3.3008 0.5625 5.0547 1.1914 10.031 1.875 15.074 12.918 1.9609 25.957 4.0703 38.934 6.2461zm-0.63672-28.781v-2.0352c-14.062-3.3008-28.18-6.7305-42.188-10.172 0.28125 2.8125 0.5625 5.5391 0.84375 8.3438 13.723 1.4453 27.469 2.6367 41.344 3.8633zm-38.137 133.24c-0.066406-3.4297-0.20703-6.8711-0.42187-10.238-12.336-1.4727-24.609-2.8672-36.945-4.3398 0.28125 3.2891 0.49609 6.5625 0.63672 9.8828v0.14062c12.262 1.4688 24.531 2.9414 36.73 4.5547zm-38.438-25.098c12.398 1.5391 24.832 3.0078 37.293 4.4141-0.625-6.4492-1.3984-12.898-2.3164-19.352-12.543-1.4727-25.098-2.8672-37.574-4.3516 0.79688 6.4531 1.707 12.906 2.5508 19.289zm33.391-25.641c-0.98438-5.9609-1.875-11.914-2.8789-17.879-12.055-1.7539-24.188-3.4297-36.242-5.1836 0.34766 6.3086 0.9375 12.543 1.6797 18.75 12.477 1.4141 24.965 2.8867 37.441 4.3125zm-4.5547-28.68c-0.21484-1.2578-0.42188-2.5859-0.5625-3.8516-0.9375-6.3086-1.5469-12.695-2.1094-19.07-10.508-1.6133-21.027-3.0859-31.613-4.5547-0.28125 7.5-0.49609 15-0.49609 22.5 11.57 1.668 23.25 3.2812 34.781 4.9609zm-3.3008-33.195c-0.28125-4.7617-0.5625-9.5352-0.76953-14.23-9.8906-0.98438-19.773-2.1758-29.652-3.6484 0 4.4141-0.14062 8.9062-0.28125 13.398 10.285 1.4141 20.465 2.9609 30.703 4.4805zm-1.3984-25.586c-0.14062-3.3008-0.35547-6.5625-0.63672-9.8906-9.8164-2.3828-19.633-4.9766-29.445-7.5 0.42188 4.4922 0.77734 9.0469 0.9375 13.527 9.7227 1.4922 19.398 2.7578 29.148 3.8828zm-38.633 131.82 5.625 0.62891c-0.14062-3.3672-0.42188-6.7305-0.69531-10.098-9.8906-1.125-19.688-2.3828-29.523-3.5703 0 3.1484 0 6.3086-0.066407 9.5352 8.1875 1.3281 16.391 2.5195 24.66 3.5039zm-6.7969-21.242 10.473 1.2539c-0.83594-6.4492-1.8203-12.824-2.7266-19.273l-26.645-3.1602c0.42188 6.168 0.70312 12.414 0.9375 18.656 5.9336 0.91016 12 1.7539 17.961 2.5195zm-19.688-31.828 26.156 3.1484c-0.8125-6.3281-1.3047-12.691-1.4727-19.07-8.8398-1.2656-17.672-2.5234-26.438-3.75 0.62109 6.5547 1.1836 13.078 1.7344 19.668zm25.66-59.062c0.14062-4.5664 0.21484-9.0469 0.21484-13.602-11.148-1.875-22.293-4.1328-33.516-7.1523 0.42188 5.4648 0.9375 10.867 1.4062 16.332 2.9453 0.35547 5.8125 0.70312 8.7656 1.125 7.6875 1.082 15.441 2.1328 23.109 3.2578zm-0.1875-25.145c-0.20703-4.9023-0.55469-9.8164-1.1914-14.652-11.145-2.9453-22.289-5.957-33.441-9.0391 0.14062 5.625 0.35547 11.148 0.62891 16.68 11.504 2.7344 22.754 5.1172 34.004 7.0117zm-0.9375 57.77c0.14062-7.5 0.42188-15 0.70312-22.5-10.164-1.4062-20.336-2.5977-30.496-3.8516 0.76953 7.4258 1.5391 14.926 2.3164 22.359zm-33.301 74.25c0.074219-3.0859 0.074219-6.1016 0.074219-9.1875-8.9805-1.1914-17.879-2.5977-26.785-4.1328 0.34766 2.5234 0.70312 4.9023 0.9375 7.4336l0.003907-0.003906c0.007812 0.35156-0.015626 0.70312-0.078126 1.0508 8.7305 1.6797 17.281 3.2891 25.906 4.8359zm-28.32-24.816c9.375 1.6133 18.77 3.1523 28.18 4.6211-0.20703-6.1016-0.48828-12.188-0.9375-18.301-10-1.25-20-2.5352-30-3.8516 0.98438 5.8203 1.9688 11.68 2.8125 17.531zm26.43-24.375c-0.5625-6.668-1.1875-13.332-1.875-19.988-10.727-1.5391-21.562-3.2266-32.316-4.8359 1.0508 6.9453 2.1016 13.883 3.2266 20.82 10.336 1.4531 20.641 2.7852 31.02 4.0508zm-2.9453-30.711c-0.76953-7.3594-1.5391-14.719-2.3164-22.012-2.3164-0.28125-4.6211-0.62891-7.0117-0.9375-9.1133-0.98438-18.148-1.9688-27.188-3.0195 1.2578 7.2188 2.5234 14.23 3.5703 21.039 11.082 1.6641 21.996 3.3594 33 4.9727zm-3.3672-32.879c-0.5625-5.9609-1.0547-11.922-1.4727-17.879-12.055-3.3008-24.328-6.7305-36.664-10.098 0.62891 7.8555 1.6797 15.844 3.0078 23.84 11.766 1.4453 23.477 2.8125 35.188 4.1797zm-2.1758-28.883c-0.34766-5.6797-0.5625-11.25-0.70312-16.969-2.8125-0.84375-5.625-1.5391-8.4375-2.3164-8.625-2.4453-17.391-4.7617-26.25-7.1523v-0.003906c-0.82422 5.4531-1.2227 10.965-1.1875 16.48 12.449 3.4141 24.645 6.7773 36.637 10.004zm-25.949 134.71c-0.28125-2.7266-0.70312-5.4648-1.125-8.1953-9.7422-1.6875-19.492-3.4414-29.305-5.1172 0.9375 2.6641 1.875 5.3906 2.8789 8.0625 9.1875 1.6797 18.363 3.4961 27.551 5.25zm-2.6641-19.762c-0.84375-5.6797-1.7539-11.363-2.6719-17.109-10.625-1.4766-21.281-3.0195-31.969-4.6328 0.98438 5.625 2.1094 11.148 3.5078 16.621 10.379 1.6133 20.758 3.3672 31.137 5.1211zm-4.3516-27.91c-1.1914-6.9375-2.3164-13.949-3.3672-20.887l-30.777-4.6328c0.5625 7.0117 1.2656 13.949 2.1758 20.82 10.664 1.6914 21.312 3.2266 31.973 4.6992zm-34.918-36.18c9.957 1.4805 19.977 2.9531 29.934 4.4922-0.76953-4.9766-1.5391-9.8828-2.1758-14.793-0.28125-1.9609-0.5625-3.9297-0.84375-5.9531-9.375-1.125-18.75-2.3906-28.039-3.8633 0.36719 6.7305 0.71094 13.398 1.125 20.117zm25.172-27.336c-1.4062-8.4844-2.6719-16.969-3.4414-25.453-8.4375-2.2422-16.875-4.4805-25.312-6.5625 0.84375 9.3281 1.4805 18.75 1.9688 28.258 8.918 1.375 17.812 2.6328 26.793 3.7578zm-3.9297-36.18c-0.078126-5.4883 0.29297-10.977 1.1172-16.406-9.957-2.6641-19.977-5.3984-29.934-8.2695 1.125 5.8867 2.1094 11.852 2.8125 17.879 8.6992 2.1758 17.391 4.4844 26.016 6.7969zm-18.75 140.01c-0.9375-2.5859-1.8203-5.2578-2.5977-7.9219-6.0273-0.9375-12.121-1.875-18.148-2.7266 0.55469 2.3828 1.0508 4.7617 1.6797 7.1445 0.066407 0.21484 0 0.35547 0.066407 0.63672 6.3555 0.83203 12.758 1.8164 19.039 2.8672zm-5.625-19.211c-1.2656-5.5391-2.3828-11.008-3.2266-16.613l-16.875-2.7383c0.76953 5.625 1.6133 11.25 2.6641 16.969 5.8516 0.70703 11.672 1.4844 17.496 2.4219zm-21.383-30.215c5.5391 0.9375 11.082 1.875 16.688 2.8125-0.84375-6.8711-1.4727-13.809-1.9688-20.746l-16.613-2.5312c0.62109 6.8633 1.1836 13.668 1.9492 20.465zm14.062-28.602-1.0586-20.398c-5.9531-1.0508-11.914-2.1758-17.879-3.4414 0.63672 4.4922 1.125 9.0469 1.4805 13.602 0.27344 2.5977 0.41406 5.1953 0.62891 7.7148zm-1.6133-31.34c-0.49609-9.8164-1.1992-19.555-2.25-29.23-7.4258-1.7539-14.859-3.4414-22.293-4.9766 1.9688 10.098 3.9297 20.258 5.625 30.496 6.3203 1.3281 12.629 2.5938 18.938 3.7109zm-3.5625-40.117c-0.76953-5.5391-1.6797-11.148-2.8672-16.621-0.10938-0.60156-0.10938-1.2188 0-1.8203-7.9961-2.3828-15.938-5.0547-23.773-7.8555 1.0586 7.0859 2.25 14.164 3.582 21.18 7.75 1.6289 15.352 3.3086 23.059 5.1172zm-11.848 145.21c-0.69531-2.5977-1.332-5.2578-1.875-7.8477-3.3555-0.42188-6.7969-0.70312-10.164-1.0586 0.76953 2.5977 1.4727 5.2578 2.3164 7.8555zm-15.207-19.773c3.75 0.35547 7.5 0.76953 11.25 1.125-0.98438-5.8203-1.7539-11.645-2.457-17.531-4.5547-0.76953-9.1133-1.5391-13.668-2.3828 1.6211 6.3125 3.1211 12.555 4.875 18.789zm7.6406-27.188c-0.63672-6.6641-1.1914-13.398-1.875-20.195-5.8867-0.9375-11.852-1.7539-17.738-2.6641 1.4727 7.0781 2.9453 14.062 4.5547 21.102v0.003906c0.95312-0.40625 2-0.52734 3.0195-0.35547 4.043 0.76953 8.0352 1.3594 12.039 2.1016zm-2.7383-30.852c-0.20703-2.0352-0.42188-4.0586-0.62891-6.168-0.49609-5.3984-1.2656-10.789-2.0352-16.125-7.1484-1.75-14.301-3.7109-21.449-5.8867 1.6797 8.4844 3.3672 16.875 5.043 25.379h0.42187c6.2344 0.89453 12.414 1.8164 18.648 2.7891zm-4.4062-33.648c-1.6875-10.031-3.5703-19.988-5.4648-30-7.293-1.332-14.652-2.5977-21.883-3.5703 1.875 9.1133 3.6484 18.227 5.3984 27.336 7.2852 2.3633 14.582 4.3594 21.949 6.2344zm-7.5-40.875c-1.332-7.7148-2.6641-15.496-3.75-23.277-8.7578-3.4297-17.316-7.3594-25.66-11.57 2.5977 10.379 4.9766 20.82 7.2266 31.266 7.3789 0.97656 14.816 2.168 22.184 3.5742z"/>
 <path d="m662.81 255.94c0.10938 0.46094 0.17969 0.93359 0.20703 1.4062-1.875 53.699-1.875 111.47-11.992 164.4-0.30469 2.3711-2.4688 4.043-4.8359 3.75-0.52734 0.12891-1.0703 0.17578-1.6133 0.14062-23.766-2.5859-46.059-8.9727-70.387-9.6758-26.914-0.76953-54.047-0.5625-80.906-2.8672l-9.6016-0.84375c-0.66016 0-1.3203-0.070313-1.9688-0.20703-45.105-3.2617-89.953-9.4688-134.25-18.578-2.3203-0.39063-3.9531-2.4961-3.75-4.8398-10.648-68.633-4.5547-141.41-27.133-207.87h0.003907c-0.51953-1.3789-0.35156-2.918 0.45312-4.1523 0.80078-1.2344 2.1445-2.0078 3.6133-2.0898 1.5586-1.1758 3.6367-1.3906 5.4023-0.5625 29.445 13.398 60.289 15.852 91.414 22.855 25.594 5.6797 49.574 17.457 75.16 22.648 51.562 10.445 103.48 22.996 155.57 30.355h-0.003907c1.0703-0.58984 2.3086-0.78906 3.5078-0.5625 2.5156 0.41406 5 1 7.4336 1.7539 2.2109 0.61328 3.7266 2.6484 3.6758 4.9414zm-10.867 19.414c0.14063-5.1094 0.28125-10.164 0.48828-15.207-0.70312-0.14062-1.4062-0.35547-2.1016-0.49609h0.003907c-0.98047 0.48047-2.0742 0.67578-3.1602 0.5625-5.1172-0.70313-10.238-1.6133-15.281-2.5234-0.9375 4.5547-1.5469 9.1875-2.0352 13.949 7.4062 0.94922 14.766 2.1133 22.059 3.7539zm-1.0586 33.75c0.28125-7.7812 0.49609-15.496 0.77734-23.203-7.4648-1.5859-15.035-2.6641-22.648-3.2227-0.48828 8.4375-0.5625 17.176-0.5625 25.727 7.4062 0.4375 14.906 0.71094 22.406 0.78516zm-1.6133 36.18c0.49219-8.5547 0.91406-17.109 1.2656-25.66-7.4336-0.074219-14.719-0.35547-22.086-0.70312 0.074219 5.8203 0 11.633-0.14062 17.25-0.066406 2.9453-0.066406 5.8125-0.13281 8.6914 6.9766 0.36719 14.062 0.50781 21.066 0.50781zm-3.3359 39.207c1.0508-9.4688 1.9609-19.004 2.5977-28.613-6.8711-0.066406-13.742-0.20703-20.539-0.48828-0.14062 9.0469-0.14062 18.086-0.14062 27.348 5.4648 0.41406 10.93 0.76953 16.398 1.2578h-0.003906c0.58203 0.089843 1.1484 0.25391 1.6875 0.49609zm-1.2656 9.9453c-0.14062 0-0.20703 0.074218-0.42188 0.074218-5.4648-0.48828-10.93-0.76953-16.332-1.1914v19.184c4.4922 0.84375 9.0469 1.6133 13.602 2.1758 1.2109-6.6367 2.2617-13.371 3.1719-20.242zm-25.078-123.95c0.375-4.9375 1-9.8477 1.875-14.719-6.7305-1.3398-13.527-2.8789-20.258-4.3516 0.48828 5.8867 0.70312 11.773 1.0508 17.664 5.8398 0.42188 11.586 0.84375 17.332 1.4062zm-0.70312 37.367c0.074219-8.5508 0-17.109 0.21484-25.66-5.3984-0.28125-10.727-0.35547-16.059-0.49609 0.42188 8.3438 0.70312 16.688 0.98438 25.031 4.9766 0.42188 9.8828 0.76953 14.859 1.125zm-0.55469 16.52c0.14062-1.9688 0.20703-4.0039 0.27344-5.9609-4.7617-0.34766-9.5352-0.70312-14.23-1.125 0.21484 8.8398 0.35547 17.598 0.42188 26.438 4.2109 0.28125 8.4375 0.5625 12.617 0.76953 0.21484-6.7695 0.49609-13.504 0.91797-20.121zm-14.062 83.57c4.4141 0.76953 8.7656 1.6133 13.125 2.457-0.066407-5.8203-0.066407-11.785-0.14063-17.812-4.1992-0.28125-8.4375-0.62891-12.684-0.84375-0.054688 5.4258-0.12109 10.824-0.26172 16.227zm12.898-26.082c-0.074219-8.9062-0.074219-17.879 0.066406-26.926-4.1328-0.28125-8.2695-0.48828-12.402-0.76953 0 8.9062 0 17.879-0.074219 26.785 4.1719 0.30859 8.3633 0.65625 12.449 0.9375zm-22.922-1.5469c0.066406-8.9727 0.066406-17.945 0.066406-26.914-7.2188-0.5625-14.371-1.1914-21.562-1.875 0.14062 9.1797 0.42188 18.367 0.98438 27.617 6.9492 0.36328 13.746 0.77734 20.551 1.1992zm-21.562-39.188c7.2188 0.70312 14.371 1.332 21.562 1.875-0.074219-8.9062-0.28125-17.812-0.49609-26.711-7.0781-0.70312-14.156-1.5469-21.168-2.3906v0.5625c0.10547 9.0273 0.039062 17.859 0.10547 26.691zm21.18 65.41 0.20703-15.355c-6.4492-0.27344-12.898-0.62891-19.352-0.9375 0.48828 5.1172 0.9375 10.164 1.7539 15.281 3.75 0.14062 7.4336 0.28125 11.25 0.48828 1.9609 0.12891 4.1094 0.26953 6.1406 0.55078zm-0.35547-100.81c-0.28125-8.1367-0.62891-16.266-1.0508-24.328-7.8477-0.21484-15.703-0.70312-23.625-1.6875 1.2656 7.8555 2.5234 15.637 3.2266 23.559 7.1523 0.87109 14.297 1.7031 21.449 2.4844zm-26.707-38.543 24.957 1.2656c-0.34766-5.8867-0.62891-11.773-1.0508-17.664-0.042969-0.57031 0.03125-1.1445 0.21484-1.6875-8.6992-1.9609-17.324-3.9297-26.016-5.7461 0.0625 7.9805 0.69531 15.945 1.8945 23.832zm-17.879 137.42c5.6797 0.14062 11.363 0.28125 17.035 0.48828-0.69531-5.1172-1.2539-10.238-1.6797-15.355-5.4648-0.20703-10.867-0.48828-16.34-0.69531 0.49609 5.1836 0.84375 10.332 0.98438 15.562zm-2.1758-26.793c5.5391 0.28125 11.148 0.48828 16.762 0.76953-0.63672-9.3203-0.9375-18.75-1.125-28.18-6.6562-0.62891-13.32-1.3984-19.977-2.1016 1.5352 9.8242 3.082 19.641 4.3398 29.512zm15.496-37.648c0-4.6211-0.074219-9.2539-0.074219-13.949 0-4.6953-0.34766-9.1133-0.69531-13.668-8.0625-1.125-16.199-2.2422-24.328-3.5078 0.42187 4.9766 0.9375 9.957 1.6133 14.934 0.5625 4.6211 1.2578 9.2539 1.9609 13.883zm-1.8203-38.438c-0.98438-7.8477-2.1094-15.629-3.2266-23.438-7.4336-0.98437-14.934-1.875-22.367-2.8789 0.42188 7.6406 0.84375 15.281 1.4062 22.855 8.0664 1.2461 16.129 2.4375 24.191 3.4883zm-4.6875-35.195h0.003907c-1.0312-8.3477-1.5039-16.754-1.4062-25.164-0.9375-0.21484-1.8203-0.42188-2.7383-0.5625-6.5625-1.125-13.039-2.1758-19.633-3.2266 0.98438 8.9727 1.6875 18.02 2.25 27.055 7.0703 0.8125 14.289 1.4375 21.516 1.9258zm-32.531 137.42 15.207 0.41406c-0.20703-5.3242-0.55469-10.586-1.0508-15.844-6.0938-0.28125-12.188-0.69531-18.301-1.0508 1.1172 5.5703 2.4492 11.035 4.1367 16.508zm-6.168-27.414c6.375 0.27344 12.758 0.48828 19.133 0.76953-1.1914-10.098-2.7383-20.117-4.3516-30.215-6.0273-0.70312-12.055-1.332-18.148-2.0352 0.6875 10.613 1.6719 21.059 3.3594 31.512zm-3.9375-41.848c5.625 0.62891 11.352 1.332 17.102 1.9609-1.2578-8.1367-2.5234-16.266-3.4297-24.469l-0.42188-4.6328c-4.9023-0.76953-9.8828-1.5391-14.934-2.2422 0.42188 4.4141 0.70312 8.9062 0.9375 13.258 0.18359 5.3438 0.45703 10.68 0.74609 16.125zm-2.6641-40.105c4.9766 0.70312 10.023 1.4727 15 2.2422-0.5625-7.5664-1.0508-15.074-1.4062-22.641-5.3906-0.70312-10.727-1.332-16.125-2.0352 0.84766 7.4531 1.7578 14.953 2.5352 22.387zm-3.5781-33.02 16.547 1.875c-0.48828-9.2539-1.125-18.441-2.1758-27.617-5.3242-0.84375-10.648-1.875-15.938-2.8789 0.019531 9.4297 0.58203 19.039 1.5664 28.621zm-0.066406 141.84 5.3984 0.20703c-1.6133-5.5391-2.9531-11.148-4.0703-16.754-3.3008-0.14062-6.5625-0.28125-9.8906-0.5625-3.8516-0.20703-7.707-0.5625-11.492-0.9375 0.42188 5.6797 0.76953 11.352 1.125 16.969 6.3164 0.44141 12.625 0.80859 18.93 1.0938zm-8.5586-27.629c2.6719 0.14062 5.3359 0.21484 7.9961 0.35547-1.6133-10.66-2.5977-21.461-3.2266-32.25l-10.312-1.0586c-3.2266-0.34766-6.5625-0.69531-9.75-0.9375 1.0508 11.082 2.1016 22.152 2.9453 33.234 4.1445 0.25391 8.1758 0.53516 12.348 0.67578zm4.2109-42.348-0.62891-14.926c-0.21484-4.9141-0.5625-9.8906-0.98438-14.793-7.5-1.0586-14.934-2.0352-22.434-2.8789 1.2656 10.312 2.3828 20.539 3.5078 30.777 6.8672 0.50781 13.742 1.0703 20.539 1.8398zm-2.5977-40.52c-0.83594-7.3594-1.6797-14.793-2.5234-22.152-2.5977-0.35547-5.2578-0.70312-7.8477-0.98438-5.0547-0.62891-10.172-1.1914-15.289-1.6797 0.98438 7.2188 1.9688 14.438 2.8789 21.656 2.6641 0.35547 5.3984 0.63672 8.0625 1.0586zm-26.992-34.633c7.7812 0.70312 15.562 1.4727 23.438 2.2422-0.76953-7.6406-1.332-15.281-1.5469-22.922-0.56641 0.19141-1.1562 0.30859-1.7539 0.34766-7.8477 0-15.562-0.42188-23.129-1.0508 1.0352 7.0977 2.0195 14.25 2.9922 21.402zm4.4141 143.3c-0.34766-5.625-0.69531-11.352-1.1172-17.035-5.8203-0.5625-11.711-1.125-17.531-1.7539 1.2656 5.3984 2.457 10.727 3.9297 15.938l0.003907 0.003906c0.10937 0.53125 0.15625 1.0703 0.14062 1.6133 4.8359 0.55078 9.7383 0.91797 14.578 1.2539zm3.2266-174.5c-3.9922-1.1914-7.9883-2.457-11.84-3.8516-0.28125-0.14062-0.63672-0.21484-0.9375-0.35547 0.21484 1.2656 0.35547 2.5234 0.5625 3.75 4.1523 0.26172 8.1562 0.40234 12.215 0.47656zm-5.1836 147.39c-0.84375-11.07-1.875-22.152-3.0195-33.301-7.2188-0.42188-14.512-0.76953-21.797-1.0508 1.6797 11.008 3.5703 21.871 5.8125 32.598 6.3086 0.70312 12.695 1.2656 19.004 1.7539zm-3.9922-43.398c-1.125-10.445-2.3203-20.891-3.582-31.34-7.7812-0.76953-15.488-1.4727-23.203-2.0234 1.4062 10.867 2.8125 21.656 4.4141 32.457 7.4336 0.20312 14.934 0.48438 22.371 0.90625zm-4.9766-42.555c-0.9375-7.1523-1.875-14.305-2.8125-21.449-7.7148-0.77734-15.496-1.4805-23.211-2.1094 0.9375 7.1523 1.875 14.371 2.8125 21.562 7.7109 0.52734 15.492 1.1562 23.207 2zm-4.1562-31.199c-1.0586-7.1523-2.0352-14.297-3.0859-21.383-7.9297-0.84375-15.777-1.8203-23.633-2.8125 1.2656 7.3594 2.457 14.727 3.5078 22.152 7.7344 0.67578 15.438 1.3398 23.211 2.043zm-4.5664-31.406-0.83594-5.6797h0.003906c-0.046874-0.3125-0.023437-0.63281 0.0625-0.9375-8.3438-2.6641-16.828-4.9023-25.312-6.9375 0.76953 3.75 1.5391 7.5742 2.2422 11.363 8.0156 0.86328 15.938 1.6289 23.859 2.2305zm-5.7461 173.48c-1.6133-5.8867-3.0078-11.84-4.4141-17.812-12.055-1.332-24.113-2.8125-36.18-4.2734 0.77734 5.8125 1.5469 11.711 2.3906 17.457 12.703 1.8164 25.461 3.3359 38.203 4.6289zm-6.5625-27.898c-2.1094-10.445-3.9297-21.102-5.5391-31.762-11.25-0.34766-22.434-0.69531-33.656-1.332 1.1992 9.6094 2.457 19.145 3.75 28.68 11.887 1.6484 23.66 3.1172 35.512 4.4492zm-7.0859-41.785c-1.5391-10.867-2.9453-21.805-4.3398-32.738-10.867-0.63672-21.73-1.1914-32.672-1.6133 1.1953 10.93 2.4453 21.867 3.75 32.812 11.105 0.80859 22.18 1.2305 33.324 1.5742zm-5.7461-43.961c-0.9375-7.2188-1.875-14.438-2.8672-21.664-10.594-0.83594-21.102-1.6797-31.695-2.5859 0.70312 7.6406 1.4805 15.281 2.25 22.922 10.852 0.31641 21.652 0.73828 32.375 1.3672zm-4.2734-31.406c-1.0508-7.5742-2.2422-15.074-3.5078-22.5-9.7422-1.1172-19.492-2.1016-29.512-2.5859 0.5625 7.4258 1.1172 14.719 1.7539 22.152 10.504 1.0781 20.949 1.9883 31.328 2.9727zm-5.3984-32.043c-0.83594-4.1328-1.6133-8.3359-2.5234-12.543-9.0469-1.9688-18.086-3.75-27.133-5.625 0.34766 4.9766 0.84375 10.023 1.1914 15h-0.003906c3.8242 0.023438 7.6445 0.30469 11.43 0.84375 5.793 0.89062 11.418 1.668 17.098 2.3633zm-19.852 170.9c-0.83594-5.6797-1.6133-11.43-2.3828-17.176l-17.879-2.1094c0.70313 5.3984 1.332 10.867 2.1094 16.266 6.0312 1.0508 12.059 2.0352 18.152 3.0195zm-21.562-29.793 17.812 2.3047c-1.1992-9.3203-2.3906-18.57-3.582-27.965-5.6719-0.42187-11.352-0.9375-17.035-1.5469 0.81641 9.0469 1.7266 18.195 2.7773 27.203zm13.039-35.973c-1.2578-10.789-2.5234-21.562-3.6484-32.391l-14.934-0.42188c0.42188 10.312 1.125 20.691 1.875 30.992 5.5312 0.70312 11.141 1.332 16.68 1.8203zm-19.16-43.539c4.8359 0.074219 9.6016 0.21484 14.438 0.28125-0.76953-7.8477-1.6133-15.703-2.3164-23.625-4.7617-0.42188-9.5352-0.84375-14.23-1.332 0.89844 8.2031 1.6875 16.473 2.1094 24.676zm-3.3672-35.117c4.8359 0.5625 9.6758 1.1172 14.512 1.6133-0.63672-7.1523-1.125-14.164-1.6875-21.32-4.9023 0.14062-9.957 0.49609-15.074 0.70312 0.70312 6.3828 1.4727 12.691 2.25 19.004zm-3.1602-28.82 15.215-0.62891c-0.48828-5.6797-0.98438-11.504-1.4062-17.176v-0.21484c-4.9766-1.0508-9.8828-2.1758-14.859-3.3672 0.066407 7.1562 0.42188 14.262 1.0508 21.387zm5.2578 168.26-2.1016-15.562c-6.7305-0.77734-13.461-1.5469-20.129-2.25 0.49609 4.5664 1.125 9.1211 1.875 13.602 6.7344 1.4766 13.52 2.8789 20.359 4.2109zm-3.3672-26.148c-1.125-9.1172-2.1055-18.234-2.9453-27.348-6.5625-0.9375-13.125-2.1758-19.633-3.6484 0.70312 9.6094 1.4727 19.211 2.457 28.742 6.7383 0.71094 13.395 1.4141 20.125 2.2578zm-3.9297-38.07c-0.5625-7.4336-0.9375-14.934-1.2578-22.367-0.074219-2.4453-0.21484-4.8359-0.35547-7.2188-6.4492-0.14062-12.965-0.28125-19.414-0.34766 0.5625 8.6914 1.1172 17.383 1.6797 26.008 6.3867 1.5078 12.836 2.875 19.352 3.9258zm-21.801-40.453 19.492 0.20703c-0.76953-8.5508-1.6133-17.176-2.5859-25.727-6.4492-0.70312-12.898-1.5469-19.285-2.3828 0.90625 9.2578 1.6836 18.574 2.3789 27.902zm15.711-36.102c-0.63672-5.7578-1.2656-11.57-1.875-17.391-6.7227 0.13672-13.438-0.59375-19.977-2.1758 0.9375 5.7461 1.7539 11.504 2.457 17.316 0.39453-0.058593 0.79297-0.082031 1.1914-0.066406 6.0742 0.84375 12.168 1.6133 18.203 2.3164zm-2.6719-27.488c-0.55469-8.0625-0.83594-16.051-0.76953-24.113h0.003907c-9.4062-2.4805-18.656-5.5273-27.695-9.1211 2.8789 9.8164 5.3359 19.688 7.293 29.664 6.8203 2.3125 13.969 3.5195 21.168 3.5703z"/>
</svg>
