<?xml version="1.0" encoding="UTF-8"?>
<svg width="1200pt" height="1200pt" version="1.1" viewBox="0 0 1200 1200" xmlns="http://www.w3.org/2000/svg">
 <path d="m1076.2 933.47c-24-41.684-56.844-75.789-94.738-106.11-22.738-17.684-46.738-32.844-70.738-48-6.3164-3.7891-12.633-7.5781-18.949-12.633 5.0508-6.3164 8.8438-11.367 13.895-17.684 6.3164 5.0508 12.633 8.8438 18.949 13.895 17.684 12.633 34.105 27.789 53.051 39.156 42.949 26.527 78.316 58.105 104.84 101.05 0 1.2617 0 1.2617 1.2617 2.5273l1.2617-1.2617c0-1.2617 0-1.2617-1.2617-2.5273-1.2617-2.5273-2.5273-3.7891-2.5273-6.3164-12.633-22.738-29.051-42.949-49.262-59.367-20.211-16.422-41.684-29.051-63.156-44.211-20.211-15.156-40.422-30.316-61.895-45.473 5.0508-5.0508 7.5781-8.8438 12.633-12.633 1.2617-1.2617 3.7891-1.2617 5.0508-1.2617 11.367 2.5273 22.738 5.0508 34.105 10.105 41.684 18.949 82.105 41.684 117.47 69.473 8.8438 7.5781 17.684 15.156 26.527 21.473-49.262-51.789-112.42-83.367-179.37-112.42 3.7891-2.5273 6.3164-5.0508 8.8438-5.0508 50.527 0 98.527 10.105 141.47 40.422 1.2617 1.2617 2.5273 1.2617 3.7891 2.5273 0 0 0-1.2617 1.2617-1.2617-6.3164-5.0508-12.633-10.105-20.211-15.156-37.895-24-80.844-31.578-125.05-31.578 3.7891-6.3164 7.5781-11.367 10.105-17.684 2.5273-6.3164 5.0508-12.633 7.5781-20.211 1.2617-3.7891 2.5273-8.8438 5.0508-12.633 2.5273-5.0508 6.3164-8.8438 8.8438-13.895 0 0-1.2617 0-1.2617-1.2617-3.7891 2.5273-6.3164 5.0508-10.105 8.8438 3.7891-11.367 15.156-15.156 16.422-26.527-3.7891 3.7891-8.8438 6.3164-12.633 8.8438l-1.2617-1.2617c5.0508-6.3164 11.367-12.633 16.422-18.949h-1.2617c-2.5273 1.2617-5.0508 2.5273-6.3164 3.7891l-1.2617-1.2617c6.3164-8.8438 12.633-18.949 18.949-27.789 0 0-1.2617 0-1.2617-1.2617-2.5273 3.7891-6.3164 6.3164-10.105 11.367 1.2617-15.156 16.422-22.738 16.422-37.895-3.7891 3.7891-6.3164 7.5781-10.105 10.105l-1.2617-1.2617c5.0508-10.105 11.367-21.473 16.422-31.578h-1.2617c-1.2617 1.2617-3.7891 2.5273-6.3164 5.0508 3.7891-8.8438 6.3164-16.422 10.105-25.262-1.2617 0-1.2617-1.2617-2.5273-1.2617-1.2617 2.5273-2.5273 5.0508-3.7891 7.5781-3.7891-7.5781 2.5273-12.633 3.7891-18.949-2.5273 2.5273-5.0508 3.7891-7.5781 6.3164v-1.2617c2.5273-3.7891 5.0508-7.5781 8.8438-12.633-2.5273 1.2617-5.0508 2.5273-7.5781 2.5273 1.2617-6.3164 2.5273-12.633 2.5273-18.949h-7.5781c1.2617-3.7891 2.5273-7.5781 2.5273-10.105-1.2617-1.2617-3.7891-2.5273-3.7891-3.7891 0-10.105 0-18.949 1.2617-29.051 2.5273-26.527 5.0508-54.316 12.633-80.844 3.7891-13.895 7.5781-29.051 11.367-42.949 5.0508-17.684 8.8438-36.633 15.156-54.316 18.949-49.262 27.789-101.05 20.211-154.11-2.5273-15.156-3.7891-30.316-10.105-45.473-3.7891-10.105-11.367-13.895-21.473-13.895-25.262 1.2617-50.527 7.5781-73.262 20.211-24 12.633-44.211 30.316-64.422 46.738-30.316 25.262-61.895 49.262-97.262 66.949-1.2617 1.2617-3.7891 1.2617-6.3164 2.5273 1.2617-2.5273 1.2617-5.0508 1.2617-7.5781-6.3164 6.3164-11.367 10.105-16.422 15.156 0 0-1.2617 0-1.2617-1.2617 0-2.5273 0-5.0508 1.2617-7.5781-1.2617 1.2617-2.5273 1.2617-2.5273 1.2617-5.0508 5.0508-10.105 8.8438-17.684 6.3164h-2.5273c-3.7891 2.5273-6.3164 2.5273-7.5781-2.5273-6.3164 0-11.367 1.2617-16.422 1.2617-3.7891 0-7.5781-1.2617-11.367-1.2617s-8.8438 0-13.895-1.2617c-6.3164-1.2617-12.633-3.7891-18.949-3.7891-7.5781-1.2617-13.895-1.2617-21.473-1.2617 1.2617-1.2617 2.5273-3.7891 3.7891-5.0508-10.105 6.3164-20.211 1.2617-29.051 0-1.2617 0-3.7891-1.2617-5.0508 0-12.633 3.7891-24 0-36.633-2.5273-5.0508-1.2617-8.8438 0-13.895 1.2617-2.5273 0-5.0508 1.2617-7.5781 0-3.7891-2.5273-6.3164-1.2617-8.8438 0-8.8438 2.5273-18.949 3.7891-29.051 6.3164 0-2.5273 1.2617-2.5273 1.2617-3.7891-5.0508 1.2617-11.367 2.5273-17.684 5.0508 1.2617-2.5273 2.5273-3.7891 2.5273-3.7891-6.3164 1.2617-12.633 2.5273-18.949 3.7891-6.3164 1.2617-12.633 2.5273-18.949 3.7891v-5.0508c-5.0508 3.7891-10.105 6.3164-15.156 10.105v-7.5781c-3.7891 2.5273-6.3164 6.3164-10.105 8.8438-2.5273-1.2617-3.7891-3.7891-6.3164-5.0508-6.3164 2.5273-10.105-3.7891-13.895-5.0508v3.7891c-15.156-7.5781-29.051-15.156-44.211-24-25.262-13.895-46.738-32.844-68.211-50.527-36.633-31.578-77.051-54.316-123.79-65.684-7.5781-1.2617-16.422-2.5273-24-2.5273-12.633 0-18.949 6.3164-21.473 18.949-1.2617 11.367-1.2617 21.473-1.2617 32.844 0 35.367 2.5273 72 7.5781 107.37 6.3164 37.895 17.684 73.262 29.051 109.89 2.5273 6.3164 3.7891 13.895 5.0508 20.211 2.5273 8.8438 5.0508 17.684 6.3164 26.527 1.2617 6.3164 3.7891 11.367 3.7891 17.684 0 24 3.7891 48 12.633 69.473v2.5273c-2.5273-1.2617-3.7891-1.2617-3.7891-2.5273-2.5273 5.0508 8.8438 8.8438 1.2617 15.156 1.2617 1.2617 2.5273 3.7891 5.0508 5.0508l-5.0508 5.0508c-2.5273-1.2617-3.7891-2.5273-7.5781-3.7891 2.5273 5.0508 5.0508 10.105 6.3164 13.895-8.8438 6.3164-2.5273 11.367 0 17.684-1.2617 0-2.5273 1.2617-3.7891 1.2617 1.2617 5.0508 3.7891 8.8438 5.0508 13.895-1.2617-1.2617-2.5273-1.2617-5.0508-2.5273 2.5273 5.0508 5.0508 8.8438 7.5781 11.367 0 0 0 1.2617-1.2617 1.2617-2.5273-1.2617-3.7891-1.2617-7.5781-2.5273 1.2617 5.0508 2.5273 8.8438 3.7891 13.895h-2.5273c1.2617 2.5273 2.5273 6.3164 3.7891 8.8438 1.2617 3.7891 1.2617 6.3164 3.7891 10.105 1.2617 2.5273 3.7891 5.0508 5.0508 7.5781 0 0 0 1.2617-1.2617 1.2617-2.5273-1.2617-6.3164-1.2617-8.8438-2.5273 5.0508 7.5781 10.105 16.422 15.156 24 0 0-1.2617 0-1.2617 1.2617-1.2617-1.2617-3.7891-2.5273-5.0508-3.7891l-1.2617 1.2617c3.7891 3.7891 6.3164 7.5781 10.105 12.633-3.7891-1.2617-5.0508-1.2617-8.8438-2.5273 5.0508 6.3164 8.8438 11.367 13.895 17.684l-1.2617 1.2617c-2.5273-1.2617-5.0508-1.2617-6.3164-2.5273v1.2617c5.0508 3.7891 10.105 7.5781 15.156 11.367 0 0 0 1.2617-1.2617 1.2617-1.2617-1.2617-3.7891-1.2617-6.3164-2.5273 3.7891 5.0508 6.3164 8.8438 8.8438 12.633l-1.2617 1.2617c-2.5273-2.5273-3.7891-3.7891-6.3164-6.3164h-1.2617c3.7891 5.0508 6.3164 10.105 10.105 16.422h-5.0508c5.0508 7.5781 8.8438 13.895 13.895 21.473-2.5273-1.2617-5.0508-1.2617-7.5781-2.5273v1.2617c5.0508 3.7891 11.367 8.8438 16.422 12.633 0 0 0 1.2617-1.2617 1.2617s-3.7891-1.2617-6.3164-1.2617c7.5781 7.5781 13.895 15.156 17.684 25.262-3.7891-2.5273-6.3164-5.0508-10.105-6.3164 7.5781 11.367 20.211 16.422 26.527 29.051-35.367 5.0508-68.211 16.422-99.789 32.844-30.316 16.422-58.105 37.895-78.316 66.949 2.5273-2.5273 5.0508-5.0508 7.5781-7.5781 45.473-49.262 102.32-77.051 166.74-89.684 1.2617 0 2.5273 0 3.7891 1.2617 7.5781 5.0508 10.105 13.895 12.633 20.211-22.738 10.105-45.473 18.949-66.949 30.316-48 21.473-79.578 58.105-96 108.63 0 1.2617-1.2617 3.7891-1.2617 5.0508 3.7891-7.5781 7.5781-16.422 11.367-24 15.156-29.051 34.105-54.316 61.895-72 20.211-12.633 41.684-24 63.156-31.578 8.8438-3.7891 18.949-6.3164 27.789-8.8438h2.5273c0 1.2617-1.2617 2.5273-1.2617 3.7891 5.0508 1.2617 5.0508 2.5273 0 10.105 8.8438-2.5273 10.105 3.7891 11.367 8.8438-2.5273 1.2617-5.0508 3.7891-7.5781 5.0508-15.156 7.5781-30.316 15.156-45.473 24-58.105 31.578-106.11 73.262-137.68 132.63-1.2617 1.2617-1.2617 2.5273-2.5273 5.0508 1.2617 0 1.2617-1.2617 1.2617-1.2617 8.8242 0.007812 8.8242-1.2578 10.086-3.7812 18.949-32.844 42.949-61.895 72-87.156 34.105-27.789 72-48 111.16-66.949 2.5273-1.2617 5.0508-2.5273 7.5781-2.5273 6.3164 6.3164-1.2617 7.5781-2.5273 11.367 3.7891 0 6.3164-1.2617 10.105-1.2617 0 0 0 1.2617-1.2617 1.2617l7.5781 7.5781c-5.0508 3.7891-8.8438 7.5781-13.895 11.367-36.633 21.473-66.949 51.789-96 82.105-17.684 18.949-32.844 39.156-44.211 61.895-2.5273 5.0508-3.7891 8.8438-6.3164 13.895 1.2617 0 1.2617-1.2617 2.5273-1.2617 13.895-27.789 30.316-53.051 51.789-74.527 24-25.262 48-49.262 77.051-69.473 17.684-11.367 36.633-20.211 51.789-34.105 24-20.211 50.527-36.633 80.844-45.473 6.3164-1.2617 11.367-6.3164 17.684-8.8438v-1.2617c-3.7891 1.2617-7.5781 1.2617-12.633 2.5273 1.2617-1.2617 1.2617-2.5273 2.5273-3.7891-5.0508 1.2617-10.105 2.5273-15.156 3.7891v-1.2617c6.3164-6.3164 13.895-8.8438 22.738-7.5781 5.0508 0 10.105 0 15.156-5.0508h-6.3164c-5.0508 0-10.105 1.2617-13.895 1.2617-1.2617 0-3.7891 0-3.7891-1.2617 0-5.0508-3.7891-2.5273-6.3164-3.7891-5.0508 0-8.8438 0-13.895-1.2617 10.105-7.5781 21.473-6.3164 31.578-10.105-12.633 0-26.527-1.2617-39.156-1.2617v-1.2617c5.0508-1.2617 11.367-2.5273 16.422-2.5273 6.3164-1.2617 11.367-1.2617 17.684-2.5273 5.0508 0 11.367 0 16.422 1.2617v-2.5273c-2.5273-1.2617-3.7891-2.5273-6.3164-2.5273h-13.895c-35.367 5.0508-69.473 10.105-104.84 16.422-13.895 2.5273-27.789 5.0508-41.684 7.5781h-7.5781v-2.5273c1.2617 0 3.7891-1.2617 5.0508-1.2617 39.156-7.5781 78.316-15.156 117.47-21.473 12.633-2.5273 21.473-8.8438 32.844-13.895-10.105 0-20.211 1.2617-29.051 1.2617 0-1.2617 1.2617-2.5273 1.2617-2.5273 1.2617 0 1.2617-1.2617 2.5273-1.2617-10.105-2.5273-18.949-5.0508-27.789-6.3164v-1.2617h16.422c-18.949-7.5781-40.422-6.3164-55.578-20.211 11.367 3.7891 24 6.3164 36.633 10.105v-1.2617c-1.2617 0-3.7891-1.2617-5.0508-1.2617-24-8.8438-50.527-15.156-66.949-37.895-5.0508-6.3164-7.5781-13.895-12.633-21.473-2.5273-3.7891-6.3164-6.3164-5.0508-11.367 0-2.5273-3.7891-5.0508-6.3164-7.5781 3.7891 1.2617 5.0508 1.2617 7.5781 2.5273 1.2617-6.3164-1.2617-12.633-6.3164-16.422 2.5273-1.2617 3.7891-1.2617 5.0508-1.2617-3.7891-3.7891-6.3164-6.3164-8.8438-10.105h3.7891c-3.7852-3.8008-5.0469-6.3281-5.0469-6.3281 1.2617-1.2617 3.7891-2.5273 5.0508-3.7891h-18.949c-5.0508 3.7891-11.367 8.8438-17.684 13.895 3.7891 0 5.0508 0 7.5781-1.2617-1.2617 1.2617-1.2617 2.5273-1.2617 2.5273 5.0508-3.7891 7.5781 0 12.633 1.2617-1.2617 1.2617-2.5273 2.5273-2.5273 3.7891 1.2617 1.2617 2.5273 1.2617 5.0508 2.5273-7.5781 5.0508-12.633 11.367-20.211 15.156-8.8438 5.0508-18.949 5.0508-24 1.2617 7.5781 1.2617 15.156 1.2617 21.473-6.3164-2.5273 0-3.7891 1.2617-5.0508 1.2617v-1.2617c3.7891-2.5273 7.5781-5.0508 11.367-7.5781-8.8438 1.2617-16.422 2.5273-24 3.7891v-1.2617c1.2617-1.2617 3.7891-2.5273 5.0508-3.7891-3.7891 0-6.3164 1.2617-8.8438 1.2617 6.3164-3.7891 6.3164-3.7891 5.0508-7.5781-2.5273 0-5.0508 1.2617-7.5781 1.2617v-1.2617c2.5273-1.2617 5.0508-3.7891 7.5781-5.0508 0 0 0-1.2617-1.2617-1.2617-1.2617 0-2.5273 0-3.7891 1.2617 1.2617-3.7891 2.5273-6.3164 3.7891-8.8438h-1.2617c-2.5273 2.5273-3.7891 5.0508-6.3164 7.5781 1.2617-3.7891 2.5273-6.3164 3.7891-10.105 0 0-1.2617 0-1.2617-1.2617-3.7891 2.5273-7.5781 5.0508-11.367 7.5781 1.2617-11.367 16.422-13.895 17.684-25.262-2.5273 2.5273-6.3164 5.0508-8.8438 7.5781v-7.5781c-2.5273 1.2617-5.0508 2.5273-8.8438 3.7891 7.5781-11.367 13.895-20.211 18.949-30.316 0 0-1.2617 0-1.2617-1.2617-6.3164 5.0508-11.367 10.105-17.684 15.156 0 0 0-1.2617-1.2617-1.2617 5.0508-5.0508 10.105-10.105 13.895-15.156s7.5781-11.367 11.367-17.684h-1.2617l-18.949 18.949-1.2617-1.2617v-5.0508c-2.5273 1.2617-3.7891 2.5273-5.0508 2.5273v-1.2617c3.7891-3.7891 6.3164-8.8438 10.105-12.633l-1.2617-1.2617c-2.5273 1.2617-5.0508 3.7891-7.5781 5.0508 10.105-11.367 21.473-22.738 29.051-36.633-10.105 7.5781-16.422 18.949-27.789 24 0-1.2617 1.2617-2.5273 2.5273-3.7891 8.8438-8.8438 17.684-17.684 22.738-29.051 1.2617-3.7891 2.5273-7.5781 5.0508-11.367 5.0508-7.5781 10.105-15.156 6.3164-25.262l1.2617-1.2617c6.3164 5.0508 12.633 11.367 18.949 16.422-2.5273-5.0508-3.7891-8.8438-5.0508-13.895l1.2617-1.2617c13.895 6.3164 18.949 21.473 31.578 31.578-8.8438-12.633-16.422-24-25.262-35.367l1.2617-1.2617c3.7891 2.5273 6.3164 3.7891 10.105 6.3164-3.7891-5.0508-6.3164-8.8438-8.8438-12.633l1.2617-1.2617c5.0508 7.5781 11.367 13.895 16.422 21.473h1.2617c-3.7891-7.5781-7.5781-15.156-11.367-22.738l1.2617-1.2617c3.7891 2.5273 7.5781 5.0508 11.367 7.5781-3.7891-7.5781-7.5781-15.156-11.367-21.473l1.2617-1.2617c8.8438 10.105 18.949 20.211 27.789 29.051-11.367-13.895-24-26.527-29.051-44.211 5.0508 6.3164 10.105 11.367 16.422 17.684h1.2617c-1.2617-5.0508-3.7891-8.8438-5.0508-13.895 0 0 1.2617 0 1.2617-1.2617 6.3164 12.633 10.105 26.527 22.738 35.367-13.895-13.895-13.895-32.844-21.473-50.527 3.7891 1.2617 5.0508 2.5273 7.5781 2.5273l1.2617-1.2617c-5.0508-3.7891-10.105-8.8438-15.156-12.633 3.7891-2.5273 3.7891-2.5273 22.738 8.8438-2.5273-3.7891-6.3164-6.3164-8.8438-10.105 0 0 0-1.2617 1.2617-1.2617 7.5781 5.0508 15.156 10.105 22.738 13.895-5.0508-5.0508-10.105-12.633-15.156-18.949l1.2617-1.2617c6.3164 3.7891 12.633 8.8438 18.949 12.633-2.5273-3.7891-5.0508-7.5781-6.3164-11.367 0 0 0-1.2617 1.2617-1.2617 5.0508 2.5273 10.105 5.0508 13.895 7.5781-1.2617-5.0508-3.7891-10.105-6.3164-16.422h1.2617c1.2617 1.2617 2.5273 2.5273 3.7891 5.0508 0-1.2617 1.2617-2.5273 1.2617-2.5273 3.7891 2.5273 7.5781 3.7891 11.367 6.3164l1.2617-1.2617c-1.2617-3.7891-2.5273-6.3164-5.0508-10.105h1.2617c2.5273 2.5273 5.0508 6.3164 7.5781 10.105v-3.7891c5.0508 3.7891 10.105 8.8438 15.156 12.633-10.105-16.422-27.789-22.738-41.684-34.105 0 0 0-1.2617 1.2617-1.2617 11.367 6.3164 21.473 11.367 32.844 17.684-5.0508-6.3164-10.105-12.633-16.422-17.684-6.3164-5.0508-13.895-7.5781-21.473-10.105 0 0 0-1.2617 1.2617-1.2617 21.473 5.0508 39.156 18.949 54.316 36.633-10.105-18.949-22.738-32.844-39.156-45.473l1.2617-1.2617c7.5781 3.7891 15.156 7.5781 22.738 11.367-2.5273-3.7891-3.7891-7.5781-7.5781-8.8438-7.5781-3.7891-16.422-7.5781-24-10.105-21.473-10.105-44.211-7.5781-69.473-6.3164 18.949 3.7891 36.633 1.2617 53.051 7.5781-10.105 1.2617-20.211 1.2617-30.316 1.2617-10.105 0-20.211-1.2617-29.051-1.2617 13.895 2.5273 27.789 3.7891 41.684 6.3164v1.2617h-31.578c7.5781 1.2617 18.949 2.5273 27.789 3.7891-16.422 1.2617-36.633 1.2617-55.578 2.5273v1.2617h42.949c6.3164 0 13.895 1.2617 20.211 2.5273v1.2617c-15.156 1.2617-31.578 2.5273-46.738 3.7891v1.2617h44.211v1.2617h-32.844v1.2617c11.367 1.2617 24 2.5273 35.367 3.7891v1.2617h-16.422v1.2617c3.7891 1.2617 7.5781 1.2617 13.895 2.5273-5.0508 1.2617-7.5781 1.2617-11.367 2.5273v1.2617c3.7891 1.2617 8.8438 2.5273 12.633 5.0508-10.105-1.2617-20.211-1.2617-30.316-2.5273v1.2617c5.0508 1.2617 8.8438 3.7891 13.895 5.0508v1.2617c-3.7891 0-7.5781 0-12.633-1.2617v1.2617c6.3164 2.5273 12.633 3.7891 17.684 6.3164h-17.684c1.2617 1.2617 2.5273 1.2617 3.7891 2.5273-3.7891 1.2617-7.5781 1.2617-10.105 2.5273v1.2617c2.5273 0 5.0508 1.2617 8.8438 1.2617-5.0508 2.5273-10.105 6.3164-13.895 8.8438-3.7891-10.105-6.3164-20.211-10.105-31.578-1.2617 0 0 15.156 1.2617 22.738h-1.2617c-2.5273-6.3164-10.105-20.211-10.105-20.211 1.2617 6.3164 2.5273 12.633 5.0508 18.949h-1.2617c-3.7891-5.0508-6.3164-11.367-10.105-17.684 1.2617 6.3164 1.2617 11.367 2.5273 16.422h-1.2617c-1.2617-5.0508-2.5273-10.105-5.0508-15.156v6.3164c-6.3164-16.422-7.5781-56.844-10.105 0 0 6.3164 6.3164 10.105 8.8438 15.156 2.5273 5.0508 3.7891 10.105 7.5781 13.895 5.0508 5.0508 5.0508 10.105 5.0508 15.156-1.2617-2.5273-2.5273-3.7891-3.7891-6.3164h-1.2617c1.2617 2.5273 1.2617 5.0508 2.5273 7.5781h-1.2617c-1.2617-1.2617-2.5273-2.5273-3.7891-3.7891-1.2617 1.2617-1.2617 1.2617-2.5273 2.5273-2.5273-3.7891-3.7891-6.3164-6.3164-8.8438h-1.2617c3.7891 7.5781 6.3164 15.156 10.105 21.473 0 0-1.2617 0-1.2617 1.2617-3.7891-6.3164-7.5781-12.633-10.105-18.949-7.5781-15.156-17.684-30.316-29.051-44.211-5.0508-5.0508-8.8438-11.367-11.367-17.684-5.0508-10.105-8.8438-20.211-11.367-30.316-17.684-53.051-25.262-107.37-21.473-162.95 1.2617-10.105 1.2617-20.211 8.8438-26.527-2.5273 1.2617-6.3164 3.7891-10.105 6.3164-0.007813 6.3125-0.007813 8.8359-0.007813 11.363-6.3164 63.156 0 123.79 21.473 183.16 6.3164 17.684 15.156 32.844 27.789 46.738 7.5781 7.5781 13.895 17.684 17.684 27.789 5.0508 15.156 10.105 31.578 20.211 45.473 3.7891 6.3164 3.7891 12.633 1.2617 20.211-1.2617 3.7891-3.7891 5.0508-7.5781 2.5273-10.105-6.3164-18.949-13.895-21.473-26.527-2.5273-12.633-6.3164-26.527-8.8438-39.156 0-2.5273-1.2617-6.3164 0-8.8438 3.7891-7.5781-1.2617-16.422-10.105-18.949 0 3.7891-1.2617 6.3164 0 10.105 2.5273 8.8438 5.0508 17.684 7.5781 27.789 1.2617 6.3164 3.7891 13.895 5.0508 20.211h-1.2617c-1.2617-2.5273-2.5273-6.3164-3.7891-8.8438-7.5781-13.895-13.895-29.051-15.156-44.211-1.2617-7.5781-2.5273-16.422-5.0508-24-16.422-37.895-27.789-78.316-32.844-120-5.0508-37.895-6.3164-75.789-3.7891-114.95 1.2617-20.211 3.7891-29.051 32.844-24 21.473 3.7891 42.949 11.367 63.156 22.738 26.527 13.895 50.527 31.578 72 50.527 31.578 27.789 65.684 51.789 104.84 68.211 15.156 6.3164 26.527 15.156 32.844 31.578 1.2617 2.5273 2.5273 5.0508 3.7891 7.5781 1.2617 1.2617 1.2617 1.2617 2.5273 2.5273h1.2617c-3.7891-7.5781-6.3164-16.422-10.105-24h3.7891c-2.5273-2.5273-3.7891-5.0508-6.3164-6.3164v-1.2617c2.5273 0 5.0508 0 7.5781 1.2617 6.3164 5.0508 12.633 10.105 16.422 15.156 6.3164 8.8438 11.367 18.949 17.684 27.789-5.0508-18.949-16.422-34.105-31.578-48 12.633-2.5273 24-5.0508 35.367-7.5781 6.3164-1.2617 12.633 2.5273 13.895 10.105 1.2617 5.0508 1.2617 10.105 1.2617 15.156-2.5273 11.367-6.3164 21.473-10.105 32.844-1.2617 6.3164-3.7891 11.367-5.0508 17.684h1.2617c3.7891-10.105 7.5781-20.211 11.367-30.316 5.0508-15.156 11.367-29.051 0-44.211 6.3164-1.2617 11.367-1.2617 16.422-2.5273 5.0508-1.2617 11.367-1.2617 16.422-2.5273 17.684-3.7891 16.422-5.0508 24 11.367 2.5273 6.3164 6.3164 11.367 10.105 17.684-3.7891-10.105-8.8438-18.949-12.633-30.316h27.789c-3.7891 11.367-3.7891 18.949 0 26.527 0-3.7891-1.2617-6.3164-1.2617-10.105s1.2617-8.8438 2.5273-12.633c0-1.2617 5.0508-2.5273 5.0508-2.5273 2.5273 2.5273 3.7891 1.2617 6.3164 0 12.633-5.0508 24-2.5273 35.367 2.5273-6.3164 12.633-7.5781 24-2.5273 36.633 2.5273 7.5781 6.3164 15.156 10.105 21.473 8.8438 13.895 12.633 30.316 11.367 46.738-1.2617 11.367 0 22.738 0 32.844 0 7.5781-1.2617 13.895-6.3164 20.211-3.7891 3.7891-6.3164 7.5781-10.105 11.367-5.0508 6.3164-7.5781 13.895-7.5781 20.211 5.0508-8.8438 10.105-18.949 17.684-27.789 6.3164-8.8438 8.8438-17.684 7.5781-27.789-1.2617-8.8438 0-16.422 0-25.262 0-8.8438 1.2617-18.949-1.2617-27.789-2.5273-11.367-7.5781-22.738-12.633-34.105-3.7891-8.8438-7.5781-17.684-6.3164-27.789 1.2617-6.3164 2.5273-13.895 11.367-16.422 10.105-2.5273 18.949 0 29.051 2.5273-11.367 20.211-1.2617 35.367 7.5781 51.789-1.2617-3.7891-2.5273-6.3164-3.7891-10.105-2.5273-8.8438-5.0508-16.422-7.5781-25.262 0-3.7891 1.2617-8.8438 3.7891-10.105 7.5781-3.7891 16.422-6.3164 25.262-5.0508-6.3164 11.367-7.5781 15.156-7.5781 25.262 0 6.3164 0 12.633-1.2617 18.949 0 2.5273-1.2617 6.3164-2.5273 8.8438 3.7891-8.8438 6.3164-17.684 5.0508-27.789 0-3.7891 0-7.5781 1.2617-11.367 2.5273-8.8438 12.633-13.895 21.473-10.105-2.5273 2.5273-3.7891 3.7891-6.3164 6.3164-1.2617 2.5273-2.5273 5.0508-3.7891 6.3164 7.5781-6.3164 13.895-12.633 22.738-12.633-3.7891 6.3164-8.8438 11.367-12.633 17.684-3.7891 6.3164-2.5273 13.895-1.2617 21.473 2.5273-8.8438 2.5273-17.684 6.3164-26.527 3.7891-8.8438 12.633-12.633 22.738-15.156-3.7891 6.3164-7.5781 12.633-11.367 17.684 20.211-16.422 44.211-24 65.684-36.633-12.621 16.426-25.25 31.582-42.934 42.953-6.3164 3.7891-12.633 8.8438-18.949 13.895-5.0508 3.7891-6.3164 6.3164-3.7891 12.633 3.7891-2.5273 8.8438-5.0508 12.633-7.5781 17.684-15.156 36.633-30.316 53.051-46.738 36.633-36.633 73.262-70.738 114.95-102.32 27.789-21.473 58.105-32.844 92.211-36.633 13.895-1.2617 20.211 2.5273 24 16.422 1.2617 2.5273 1.2617 3.7891 1.2617 6.3164 13.895 56.844 10.105 113.68-10.105 169.26 0 0-1.2617 1.2617-1.2617 2.5273 2.5273-12.633 3.7891-24 5.0508-35.367 5.0508-29.051 7.5781-58.105 6.3164-88.422 0-15.156-1.2617-29.051-7.5781-42.949-6.3164-13.895-17.684-20.211-31.578-17.684-16.422 2.5273-30.316 8.8438-44.211 16.422-22.738 11.367-41.684 27.789-60.633 44.211-31.578 26.527-60.633 58.105-87.156 89.684-10.105 11.367-15.156 25.262-21.473 39.156 10.105-15.156 17.684-32.844 32.844-44.211-10.105 8.8438-15.156 20.211-20.211 31.578-3.7891 11.367-8.8438 24-8.8438 36.633 8.8438-6.3164 18.949-13.895 27.789-20.211l1.2617 1.2617c-16.422 8.8438-25.262 22.738-29.051 41.684 1.2617-1.2617 2.5273-1.2617 2.5273-1.2617 8.8438-7.5781 17.684-15.156 25.262-24 6.3164-5.0508 12.633-8.8438 20.211-11.367 8.8438-2.5273 17.684-3.7891 27.789-6.3164-16.422-1.2617-30.316 2.5273-45.473 7.5781 7.5781-5.0508 15.156-10.105 24-11.367 20.211-2.5273 40.422-5.0508 56.844-7.5781-13.895 0-32.844-1.2617-51.789 2.5273-8.8438 1.2617-18.949 3.7891-27.789 6.3164v-1.2617c30.316-17.684 64.422-17.684 98.527-22.738-22.738 2.5273-45.473 5.0508-66.949 8.8438-15.156 2.5273-30.316 8.8438-42.949 17.684-1.2617 1.2617-2.5273 1.2617-2.5273 2.5273-1.2617 0-1.2617 1.2617-2.5273 1.2617 16.422-16.422 36.633-26.527 58.105-35.367 6.3164-2.5273 12.633-5.0508 18.949-6.3164 13.895-2.5273 29.051-5.0508 44.211-8.8438-10.105 1.2617-17.684 1.2617-26.527 2.5273-24 3.7891-46.738 11.367-68.211 24 2.5273-2.5273 5.0508-5.0508 6.3164-6.3164-3.7891 2.5273-7.5781 3.7891-11.367 6.3164 7.5781-8.8438 16.422-15.156 27.789-20.211 3.7891-1.2617 7.5781-2.5273 12.633-3.7891 12.633-3.7891 24-7.5781 36.633-11.367-24 3.7891-46.738 10.105-68.211 21.473v-2.5273c-5.0508 2.5273-8.8438 6.3164-13.895 8.8438 3.7891-3.7891 7.5781-6.3164 11.367-10.105 2.5273-2.5273 5.0508-5.0508 7.5781-7.5781h-2.5273c7.5781-8.8438 15.156-16.422 22.738-24-5.0508 3.7891-11.367 7.5781-16.422 10.105 0 0 0-1.2617-1.2617-1.2617 3.7891-3.7891 7.5781-6.3164 12.633-10.105-3.7891 2.5273-6.3164 3.7891-10.105 6.3164v-1.2617l3.7891-3.7891c-5.0508 3.7891-8.8438 7.5781-13.895 11.367l-1.2617-1.2617c3.7891-6.3164 8.8438-10.105 12.633-15.156 5.0508-7.5781 15.156-12.633 22.738-18.949 2.5273-2.5273 6.3164-3.7891 8.8438-6.3164 0 0 0-1.2617-1.2617-1.2617-3.7891 1.2617-6.3164 3.7891-10.105 5.0508 0 0 0-1.2617-1.2617-1.2617 6.3164-5.0508 12.633-11.367 18.949-16.422 0 0 0-1.2617 1.2617-1.2617 17.684-15.156 34.105-31.578 54.316-44.211 2.5273-1.2617 6.3164-3.7891 8.8438-5.0508 17.684-12.633 36.633-20.211 56.844-25.262 11.367-2.5273 20.211 2.5273 24 12.633 3.7891 7.5781 6.3164 16.422 6.3164 24 5.0508 50.527-1.2617 101.05-15.156 150.32-2.5273 10.105-5.0508 20.211-10.105 29.051-6.3164 12.633-15.156 22.738-22.738 34.105-1.2617 2.5273-3.7891 5.0508-5.0508 7.5781l1.2617 1.2617c2.5273-1.2617 5.0508-2.5273 7.5781-3.7891 0 2.5273-1.2617 5.0508-2.5273 6.3164-3.7891 3.7891-3.7891 7.5781-3.7891 12.633 0 6.3164 1.2617 12.633-1.2617 17.684-5.0508 13.895-10.105 27.789-15.156 41.684 2.5273-3.7891 6.3164-6.3164 7.5781-11.367 5.0508-15.156 13.895-30.316 13.895-46.738 0-2.5273 1.2617-3.7891 1.2617-6.3164 3.7891-10.105 7.5781-18.949 11.367-29.051 2.5273-5.0508 3.7891-10.105 6.3164-15.156h1.2617c0 5.0508-1.2617 10.105-1.2617 15.156-2.5273 20.211-8.8438 39.156-18.949 55.578-2.5273 5.0508-5.0508 10.105-3.7891 15.156 1.2617 11.367 0 21.473-5.0508 30.316-6.3164 11.367-12.633 15.156-25.262 8.8438-2.5273-1.2617-5.0508-2.5273-8.8438-3.7891 0 0 0 1.2617-1.2617 1.2617 7.5781 5.0508 16.422 10.105 24 15.156 2.5273 3.7891 6.3164 8.8438 10.105 12.633-2.5273 0-3.7891 0-6.3164-1.2617 1.2617 2.5273 1.2617 6.3164 2.5273 8.8438-1.2617 0-2.5273 0-5.0508 1.2617 2.5273 2.5273 3.7891 5.0508 6.3164 7.5781-3.7891 0-7.5781-1.2617-10.105-1.2617 0 0 0 1.2617-1.2617 1.2617 2.5273 2.5273 5.0508 3.7891 7.5781 6.3164 2.5273 2.5273 3.7891 3.7891 6.3164 7.5781-2.5273-1.2617-3.7891-1.2617-5.0508-1.2617 1.2617 3.7891 7.5781 5.0508 6.3164 10.105-3.7891-1.2617-6.3164-1.2617-10.105-2.5273v1.2617c6.3164 3.7891 11.367 6.3164 17.684 10.105-1.2617 0-2.5273 0-3.7891 1.2617 1.2617 1.2617 2.5273 2.5273 3.7891 3.7891v1.2617c-6.3164 0-12.633 1.2617-17.684 1.2617 5.0508 6.3164 12.633 5.0508 18.949 5.0508v1.2617c-3.7891 2.5273-7.5781 3.7891-11.367 6.3164v1.2617h10.105c-1.2617 1.2617-3.7891 2.5273-5.0508 3.7891 2.5273 1.2617 5.0508 2.5273 7.5781 5.0508-5.0508 3.7891-10.105 6.3164-13.895 10.105v1.2617c3.7891-1.2617 8.8438-1.2617 12.633-2.5273v1.2617c-3.7891 2.5273-7.5781 6.3164-11.367 8.8438v1.2617c2.5273 0 5.0508-1.2617 7.5781-1.2617-6.3164 6.3164-11.367 12.633-17.684 18.949 0 0 0 1.2617 1.2617 1.2617 3.7891-2.5273 7.5781-3.7891 12.633-6.3164l1.2617 1.2617c-5.0508 5.0508-11.367 10.105-17.684 16.422 3.7891-1.2617 6.3164-1.2617 8.8438-2.5273-3.7891 5.0508-7.5781 7.5781-11.367 11.367l1.2617 1.2617c2.5273-1.2617 3.7891-1.2617 6.3164-2.5273l1.2617 1.2617c-6.3164 8.8438-12.633 17.684-18.949 26.527l1.2617 1.2617c5.0508-3.7891 10.105-7.5781 15.156-11.367-6.3164 10.105-12.633 17.684-18.949 26.527l1.2617 1.2617c2.5273-1.2617 5.0508-3.7891 7.5781-5.0508l1.2617 1.2617c-5.0508 6.3164-10.105 11.367-13.895 17.684 2.5273-1.2617 5.0508-3.7891 7.5781-5.0508-3.7891 5.0508-8.8438 10.105-12.633 13.895l1.2617 1.2617c1.2617 0 2.5273 0 5.0508-1.2617-5.0508 5.0508-8.8438 8.8438-12.633 12.633l1.2617 1.2617c5.0508-2.5273 8.8438-5.0508 13.895-6.3164-6.3164 6.3164-12.633 12.633-20.211 17.684l1.2617 1.2617c5.0508-2.5273 10.105-5.0508 16.422-7.5781-5.0508 11.367-16.422 13.895-24 21.473 3.7891-1.2617 8.8438-3.7891 12.633-5.0508v1.2617c-5.0508 5.0508-11.367 8.8438-16.422 13.895l3.7891 3.7891c-6.3164 5.0508-6.3164 5.0508-13.895 3.7891-10.105-1.2617-18.949-2.5273-29.051-2.5273-10.105-1.2617-20.211-1.2617-30.316-2.5273-22.738-5.0508-46.738-8.8438-70.738-10.105-3.7891 0-6.3164 0-8.8438 3.7891 26.527 2.5273 51.789 1.2617 75.789 10.105-31.578-2.5273-61.895-3.7891-93.473-6.3164 7.5781 5.0508 17.684 5.0508 21.473 15.156 5.0508-1.2617 59.367 20.211 64.422 26.527-10.105-3.7891-20.211-6.3164-29.051-8.8438-11.367-3.7891-22.738-8.8438-34.105-13.895-2.5273-1.2617-5.0508-1.2617-7.5781-1.2617-3.7891 0-6.3164 1.2617-10.105 2.5273-3.7891 1.2617-6.3164 1.2617-10.105 1.2617h8.8438c2.5273 0 6.3164 1.2617 8.8438 2.5273 8.8438 3.7891 8.8438 6.3164 3.7891 13.895-13.895-5.0508-27.789-10.105-41.684-13.895 0 1.2617 0 1.2617-1.2617 2.5273 1.2617 1.2617 2.5273 2.5273 3.7891 2.5273 5.0508 2.5273 11.367 5.0508 16.422 7.5781 27.789 10.105 54.316 22.738 77.051 41.684 8.8438 7.5781 18.949 13.895 29.051 20.211 1.2617 1.2617 2.5273 1.2617 5.0508 2.5273v-1.2617c-18.949-13.895-37.895-27.789-58.105-40.422v-1.2617c5.0508 1.2617 11.367 1.2617 16.422 2.5273v-1.2617c-8.8438-2.5273-17.684-5.0508-26.527-8.8438v-1.2617c1.2617 0 2.5273 1.2617 3.7891 1.2617-2.5273-3.7891-5.0508-5.0508-7.5781-2.5273-6.3164-2.5273-11.367-5.0508-16.422-7.5781v-2.5273c2.5273 0 3.7891-1.2617 6.3164-1.2617h5.0508c-1.2617-1.2617-2.5273-2.5273-2.5273-2.5273-2.5273-1.2617-5.0508-2.5273-7.5781-5.0508 1.2617 0 2.5273-1.2617 2.5273-1.2617 15.156 3.7891 30.316 8.8438 45.473 12.633 1.2617 0 1.2617 1.2617 2.5273 2.5273 7.5781 7.5781 13.895 17.684 24 24 18.949 13.895 34.105 30.316 49.262 48 5.0508 5.0508 8.8438 11.367 12.633 16.422l1.2617-1.2617c-8.8438-13.895-18.949-27.789-27.789-40.422 1.2617-1.2617 3.7891-2.5273 5.0508-3.7891-1.2617-1.2617-1.2617-1.2617-1.2617-2.5273 3.7891-5.0508 8.8438-10.105 12.633-15.156 1.2617 1.2617 2.5273 1.2617 3.7891 2.5273 21.473 13.895 39.156 29.051 53.051 50.527 10.105 13.895 20.211 29.051 30.316 42.949 20.211 29.051 37.895 58.105 46.738 92.211 1.2617 3.7891 2.5273 6.3164 2.5273 10.105v-3.7891c-5.0508-24-12.633-45.473-25.262-65.684-17.684-27.789-35.367-54.316-54.316-80.844-11.367-16.422-25.262-29.051-40.422-40.422-5.0508-3.7891-11.367-7.5781-17.684-11.367 1.2617-1.2617 1.2617-1.2617 1.2617-2.5273l1.2617-1.2617c39.156 25.262 79.578 49.262 113.68 80.844 34.105 32.844 63.156 68.211 83.367 111.16v-3.7891c-1.2734-3.793-5.0625-12.633-10.113-21.477zm-659.37-200.84c0 1.2617 1.2617 1.2617 1.2617 2.5273-36.633 16.422-73.262 31.578-109.89 48 0 0 0-1.2617-1.2617-1.2617 35.367-21.477 72-36.637 109.89-49.266zm-12.633-2.5273v1.2617c-6.3164 2.5273-12.633 3.7891-18.949 6.3164 0-1.2617 0-1.2617-1.2617-2.5273 7.5781-1.2617 13.895-3.7891 20.211-5.0508zm-107.37 20.211c18.949-8.8438 77.051-25.262 98.527-27.789-32.844 16.422-69.473 20.211-103.58 34.105 0-1.2617 0-1.2617-1.2617-2.5273 2.5195 0 5.0469-2.5273 6.3125-3.7891zm-63.16-125.05v-1.2617c5.0508 0 11.367 1.2617 16.422 1.2617v2.5273c-5.0547-1.2617-11.367-1.2617-16.422-2.5273zm46.738-10.105c-1.2617 1.2617-1.2617 2.5273-2.5273 3.7891 3.7891 1.2617 6.3164 3.7891 5.0508 7.5781 2.5273 2.5273 6.3164 3.7891 8.8438 6.3164 2.5273 2.5273 3.7891 5.0508 5.0508 8.8438 1.2617 1.2617 5.0508 3.7891 7.5781 6.3164 0 0 0 1.2617-1.2617 1.2617 1.2617 0 3.7891-1.2617 5.0508-1.2617 1.2617 2.5273 2.5273 3.7891 3.7891 6.3164 1.2617 1.2617 5.0508 2.5273 6.3164 3.7891 1.2617 1.2617 2.5273 3.7891 3.7891 6.3164-3.7891 1.2617-6.3164 2.5273-8.8438 3.7891 10.105-6.3164 18.949 3.7891 29.051 3.7891-1.2617 1.2617-2.5273 2.5273-3.7891 2.5273 3.7891 1.2617 7.5781 2.5273 11.367 2.5273v8.8438c2.5273 0 3.7891-1.2617 6.3164-1.2617-1.2617 1.2617-1.2617 2.5273-2.5273 3.7891 2.5273 0 3.7891-1.2617 6.3164-1.2617v1.2617c-5.0508 2.5273-8.8438 5.0508-13.895 7.5781 5.0508 0 10.105-1.2617 16.422-2.5273-2.5273 3.7891-5.0508 5.0508-6.3164 7.5781l1.2617 1.2617c3.7891-1.2617 6.3164-2.5273 10.105-3.7891v2.5273c-3.7891 1.2617-8.8438 2.5273-12.633 5.0508h-2.5273c-3.7773-1.2617-7.5664 1.2617-11.359 1.2617-11.367 1.2617-22.738 0-34.105 1.2617-1.2617 0-1.2617 0-2.5273-1.2617 10.105-1.2617 20.211-3.7891 30.316-5.0508v-1.2617c-6.3164 0-13.895 1.2617-20.211 1.2617-6.3164 0-11.367-5.0508-15.156-8.8438-2.5273-1.2617-5.0508-2.5273-8.8438-3.7891-1.2617-1.2617-3.7891-1.2617-5.0508-2.5273v-1.2617c8.8438 2.5273 17.684 5.0508 26.527 6.3164v-1.2617c-3.7891-1.2617-8.8438-2.5273-12.633-5.0508 0 0 0-1.2617 1.2617-1.2617-1.2617-1.2617-2.5273-2.5273-3.7891-3.7891-5.0508-2.5273-10.105-3.7891-15.156-5.0508v-1.2617c2.5273-1.2617 3.7891-1.2617 6.3164-2.5273-11.367-3.7891-24-5.0508-35.367-13.895 6.3164 1.2617 12.633 3.7891 17.684 3.7891 2.5273 0 6.3164 0 7.5781-1.2617s1.2617-5.0508-2.5273-5.0508c-5.0508-1.2617-11.367-2.5273-16.422-3.7891 6.3164-2.5273 13.895-3.7891 20.211-6.3164v-2.5273c-3.7891 0-8.8438 1.2617-11.367 1.2617 1.2617-2.5273 2.5273-6.3164 3.7891-8.8438-6.3164 2.5273-12.633 5.0508-20.211 7.5781v-1.2617c5.0508-1.2617 8.8438-2.5273 13.895-3.7891v-2.5273h-6.3164-6.3164c3.7891-1.2617 6.3164-1.2617 10.105-2.5273v-1.2617c-1.2617 0-3.7891-1.2617-5.0508-1.2617 2.5273-1.2617 5.0508-3.7891 7.5781-5.0508v-1.2617c-1.2617 0-2.5273 1.2617-3.7891 1.2617 0-2.5273 1.2617-6.3164 1.2617-8.8438-1.2617-1.2734 12.633-5.0625 17.688-1.2734zm-16.422-36.629s1.2617 0 1.2617 1.2617c-2.5273 6.3164-5.0508 13.895-7.5781 20.211 1.2617-1.2617 2.5273-3.7891 3.7891-5.0508 1.2617-1.2617 2.5273-1.2617 2.5273-2.5273l1.2617 1.2617c-1.2617 2.5273-2.5273 3.7891-3.7891 6.3164-1.2617 1.2617-1.2617 3.7891-2.5273 5.0508 1.2617-3.7891 3.7891-5.0508 8.8438-5.0508-1.2617 10.105-2.5273 11.367-8.8438 11.367 1.2617 0 2.5273-1.2617 2.5273-1.2617 1.2617 0 2.5273-1.2617 2.5273-1.2617 0-1.2617-1.2617-1.2617-1.2617-2.5273-2.5273 2.5273-6.3164 3.7891-8.8438 6.3164l-1.2617-1.2617c1.2617-1.2617 3.7891-2.5273 5.0508-5.0508-10.105 2.5273-20.211 2.5273-30.316 1.2617 7.5781-1.2617 13.895-2.5273 21.473-3.7891-1.2617-1.2617-3.7891-2.5273-5.0508-3.7891 3.7891-2.5273 6.3164-5.0508 10.105-7.5781 0 0 0-1.2617-1.2617-1.2617-3.7891 1.2617-7.5781 3.7891-10.105 5.0508 8.8398-5.0586 15.156-11.371 21.473-17.688zm-20.211 18.945c-6.3164 3.7891-13.895 5.0508-21.473 0h21.473zm-48-210.95c6.3164 17.684 15.156 34.105 25.262 50.527 1.2617 1.2617 2.5273 2.5273 3.7891 3.7891 2.5273 2.5273 6.3164 6.3164 5.0508 7.5781-1.2617 3.7891-5.0508 7.5781-7.5781 10.105-1.2617 1.2617-3.7891 1.2617-6.3164 2.5273 1.2617-2.5273 2.5273-3.7891 2.5273-6.3164-3.7891-2.5273-7.5781-3.7891-11.367-6.3164-2.5273-2.5273-5.0508-5.0508-5.0508-7.5781-7.5781-17.684-11.367-35.367-10.105-55.578 2.5273 1.2617 3.7891 1.2617 3.7891 1.2617zm435.79-160.42c2.5273 10.105 6.3164 18.949 10.105 27.789-15.156-15.156-18.949-49.262-2.5273-59.367-5.0508 11.367-10.105 21.473-7.5781 31.578zm291.79 501.47c5.0508 1.2617 11.367 3.7891 16.422 5.0508v1.2617c-5.0508-1.2617-11.367-2.5273-16.422-5.0508v-1.2617zm-15.156-2.5273c-1.2617 2.5273-2.5273 5.0508-5.0508 7.5781-3.7891 3.7891-8.8438 6.3164-15.156 2.5273-11.367-6.3164-22.738-11.367-34.105-16.422 17.68 0.003906 36.629 0.003906 54.312 6.3164zm-39.16 63.16c-1.2617 1.2617-3.7891 1.2617-6.3164 0-12.633-2.5273-39.156-24-45.473-35.367 22.738 3.7891 44.211 11.367 63.156 26.527-5.0508 2.5234-8.8398 6.3125-11.367 8.8398zm11.371-17.684c-10.105-5.0508-21.473-10.105-31.578-15.156-22.738-10.105-46.738-20.211-69.473-30.316-2.5273-1.2617-3.7891-1.2617-6.3164-2.5273v-1.2617c8.8438 2.5273 18.949 3.7891 27.789 7.5781 7.5781 2.5273 13.895 5.0508 21.473 7.5781 6.3164 2.5273 11.367 3.7891 17.684 5.0508-10.105-5.0508-18.949-8.8438-29.051-13.895 11.367 2.5273 22.738 6.3164 31.578 13.895 12.633 7.5781 26.527 16.422 39.156 24 1.2617 0 1.2617 2.5273 1.2617 3.7891 0.003907 1.2656-2.5234 1.2656-2.5234 1.2656zm6.3164-15.16c-2.5273 3.7891-6.3164 3.7891-10.105 1.2617-13.895-7.5781-29.051-16.422-42.949-24-8.8438-5.0508-20.211-7.5781-29.051-11.367-1.2617-1.2617-3.7891-1.2617-5.0508-1.2617v-1.2617h24c25.262 0 46.738 10.105 68.211 22.738 5.0508 2.5273 2.5273 6.3164 1.2617 10.105 2.5273-1.2617 3.7891-6.3164 7.5781-2.5273-5.0547 5.0508-8.8438 7.5781-13.895 6.3125z"/>
 <path d="m190.74 82.105c12.633 3.7891 25.262 8.8438 37.895 13.895 6.3164 2.5273 12.633 6.3164 18.949 10.105v1.2617c-1.2617-1.2617-3.7891-1.2617-5.0508-2.5273v1.2617c11.367 7.5781 22.738 15.156 34.105 22.738-29.051-12.633-56.844-25.262-84.633-30.316 20.211 8.8438 42.949 17.684 65.684 26.527v1.2617c-15.156-3.7891-30.316-6.3164-45.473-10.105 15.156 5.0508 31.578 8.8438 48 12.633 12.633 3.7891 39.156 17.684 42.949 22.738-25.262-10.105-53.051-18.949-79.578-22.738 7.5781 2.5273 15.156 5.0508 22.738 6.3164 7.5781 2.5273 15.156 5.0508 22.738 7.5781 7.5781 2.5273 15.156 5.0508 22.738 8.8438 7.5781 2.5273 13.895 7.5781 20.211 10.105-12.633-3.7891-25.262-8.8438-37.895-12.633-12.633-3.7891-25.262-6.3164-39.156-8.8438 6.3164 3.7891 13.895 5.0508 21.473 7.5781s15.156 5.0508 22.738 7.5781c7.5781 2.5273 13.895 5.0508 21.473 7.5781 6.3164 2.5273 13.895 6.3164 20.211 10.105v1.2617c-35.367-16.422-74.527-26.527-112.42-32.844 7.5781 2.5273 15.156 3.7891 24 6.3164 7.5781 2.5273 15.156 3.7891 24 6.3164 7.5781 2.5273 15.156 5.0508 22.738 7.5781 7.5781 2.5273 15.156 5.0508 22.738 7.5781 7.5781 2.5273 15.156 6.3164 21.473 8.8438v1.2617c-18.949-6.3164-39.156-11.367-58.105-17.684v1.2617c21.473 8.8438 44.211 17.684 65.684 26.527 0 1.2617 0 1.2617-1.2617 2.5273-22.738-11.367-46.738-20.211-72-22.738 32.844 10.105 64.422 18.949 94.738 36.633-10.105-3.7891-20.211-7.5781-30.316-11.367-10.105-3.7891-20.211-6.3164-31.578-10.105-10.105-3.7891-21.473-7.5781-31.578-10.105-10.105-2.5273-21.473-3.7891-31.578-5.0508 34.105 5.0508 65.684 18.949 97.262 27.789v1.2617c-2.5273 0-6.3164-1.2617-8.8438-1.2617 5.0508 2.5273 11.367 5.0508 16.422 7.5781v1.2617c-5.0508-3.7891-12.633-1.2617-16.422-8.8438-6.3164-1.2617-11.367-2.5273-17.684-3.7891-2.5273 0-5.0508 0-6.3164-1.2617v1.2617c7.5781 2.5273 15.156 3.7891 24 6.3164-17.684-1.2617-34.105-3.7891-51.789-5.0508v1.2617c5.0508 0 11.367 1.2617 16.422 1.2617 6.3164 0 11.367 1.2617 17.684 2.5273 6.3164 1.2617 11.367 2.5273 17.684 3.7891 5.0508 1.2617 10.105 2.5273 15.156 5.0508-20.211-1.2617-41.684-3.7891-63.156-5.0508v1.2617c5.0508 0 10.105 1.2617 16.422 1.2617 16.422 2.5273 32.844 5.0508 49.262 7.5781 3.7891 0 6.3164 3.7891 10.105 5.0508 0 0 0 1.2617-1.2617 1.2617-26.527-6.3164-54.316-7.5781-82.105-8.8438 2.5273 1.2617 3.7891 1.2617 6.3164 1.2617 25.262 2.5273 49.262 5.0508 73.262 12.633 3.7891 1.2617 6.3164 2.5273 8.8438 3.7891v1.2617c-25.262-8.8438-51.789-8.8438-77.051-8.8438 24 2.5273 48 6.3164 70.738 8.8438v1.2617h-29.051c7.5781 1.2617 13.895 2.5273 20.211 3.7891v1.2617h-61.895v2.5273h35.367c11.367 0 24 1.2617 35.367 6.3164-7.5781 0-16.422-1.2617-24-1.2617h-24v1.2617c13.895 1.2617 26.527 2.5273 40.422 3.7891v1.2617h-49.262v1.2617c24 0 48-1.2617 70.738 8.8438-21.473-7.5781-44.211-5.0508-68.211-3.7891 15.156 1.2617 30.316 1.2617 45.473 2.5273v1.2617c-17.684 1.2617-36.633 2.5273-54.316 3.7891 8.8438 1.2617 18.949 2.5273 27.789 2.5273 24-1.2617 46.738 5.0508 66.949 18.949 5.0508 3.7891 10.105 7.5781 16.422 11.367l1.2617-1.2617c-3.7891-3.7891-6.3164-6.3164-10.105-10.105-7.5781-6.3164-7.5781-6.3164-7.5781-11.367 6.3164 3.7891 11.367 7.5781 17.684 12.633l1.2617-1.2617c-6.3164-6.3164-11.367-12.633-17.684-18.949 3.7891 2.5273 6.3164 5.0508 10.105 8.8438 1.2617 1.2617 3.7891 3.7891 3.7891 2.5273 3.7891-2.5273 5.0508 1.2617 7.5781 2.5273 2.5273 1.2617 5.0508 3.7891 7.5781 7.5781v-6.3164c0-1.2617 0-2.5273-1.2617-3.7891-5.0508-29.051-20.211-53.051-40.422-74.527-13.895-15.156-27.789-30.316-41.684-45.473-27.789-32.844-60.633-59.367-102.32-73.262-8.8438-3.7891-18.949-5.0508-27.789-6.3164-11.367-1.2617-20.211 2.5273-26.527 12.633-1.2617 2.5273-1.2617 5.0508-2.5273 7.5781 3.7891-3.7891 5.0508-7.5781 7.5781-8.8438-0.019531-11.352 11.352-11.352 21.457-7.5625zm165.47 169.26c8.8438 5.0508 17.684 10.105 26.527 13.895 0 0 0 1.2617-1.2617 1.2617-8.8438-3.7852-17.688-8.8398-25.266-15.156v0z"/>
 <path d="m528 650.53c-1.2617 20.211 8.8438 34.105 26.527 41.684 5.0508 1.2617 6.3164 5.0508 7.5781 10.105 2.5273 6.3164 5.0508 13.895 8.8438 20.211 2.5273 5.0508 5.0508 8.8438 8.8438 13.895 1.2617 1.2617 1.2617 2.5273 1.2617 3.7891-2.5273 7.5781-6.3164 15.156-13.895 20.211-11.367 8.8438-25.262 12.633-37.895 17.684-1.2617 0-2.5273-1.2617-3.7891-1.2617-8.8438 7.5781-34.105 8.8438-39.156 1.2617-3.7891 7.5781-6.3164 13.895-8.8438 21.473-16.422 37.895-24 77.051-20.211 118.74 2.5273 25.262 10.105 48 30.316 65.684 17.684 16.422 27.789 36.633 32.844 60.633 2.5273 13.895 7.5781 29.051 13.895 41.684 8.8438 18.949 24 31.578 42.949 39.156-1.2617-1.2617-2.5273-2.5273-3.7891-2.5273-20.211-11.367-35.367-27.789-41.684-50.527-3.7891-12.633-7.5781-25.262-10.105-37.895-3.7891-13.895-10.105-27.789-18.949-39.156-5.0508-5.0508-10.105-11.367-15.156-16.422-21.473-21.473-26.527-49.262-25.262-78.316 0 0 0-1.2617 1.2617-1.2617 1.2617 0 2.5273 1.2617 3.7891 1.2617 0-2.5273 0-5.0508 1.2617-7.5781h1.2617c0 1.2617 1.2617 2.5273 1.2617 5.0508 1.2617-2.5273 1.2617-3.7891 1.2617-6.3164 1.2617 3.7891 1.2617 6.3164 2.5273 8.8438 0-2.5273 0-3.7891 1.2617-6.3164 0 3.7891 1.2617 6.3164 1.2617 8.8438h1.2617c0-1.2617 0-3.7891 1.2617-5.0508h1.2617v11.367h1.2617v-11.367h1.2617c1.2617 7.5781 3.7891 15.156 5.0508 22.738h1.2617v-18.949h1.2617c0 3.7891 1.2617 7.5781 1.2617 11.367h1.2617v-11.367c1.2617 5.0508 2.5273 10.105 3.7891 15.156 0-5.0508 0-8.8438-1.2617-12.633 2.5273 7.5781 2.5273 16.422 5.0508 24 1.2617 7.5781 3.7891 16.422 6.3164 24-2.5273-18.949-7.5781-36.633-5.0508-55.578 1.2617 7.5781 2.5273 15.156 3.7891 24v-40.422c1.2617 7.5781 2.5273 16.422 3.7891 24h1.2617c0-2.5273 0-5.0508 1.2617-8.8438h1.2617c1.2617 6.3164 2.5273 12.633 3.7891 20.211v-29.051c1.2617 12.633 3.7891 30.316 6.3164 48h1.2617c-1.2617-10.105-2.5273-18.949-3.7891-29.051v-29.051c1.2617 7.5781 1.2617 16.422 2.5273 24h1.2617c0-5.0508 0-10.105 1.2617-16.422h1.2617c1.2617 6.3164 2.5273 12.633 3.7891 17.684h1.2617c0-6.3164 1.2617-13.895 1.2617-20.211h1.2617c1.2617 7.5781 1.2617 15.156 2.5273 22.738h1.2617c0-2.5273 0-6.3164 1.2617-10.105 1.2617 5.0508 2.5273 10.105 2.5273 13.895h2.5273v-24c3.7891 12.633 7.5781 24 11.367 36.633 2.5273 8.8438 3.7891 16.422 6.3164 25.262 5.0508 13.895 12.633 25.262 25.262 34.105-3.7891-5.0508-8.8438-10.105-12.633-16.422-3.7891-6.3164-7.5781-12.633-10.105-18.949-2.5273-6.3164-5.0508-13.895-6.3164-20.211-1.2617-6.3164-2.5273-13.895-3.7891-20.211-1.2617-6.3164-1.2617-13.895-1.2617-20.211h1.2617c1.2617 7.5781 2.5273 15.156 3.7891 22.738h1.2617v-16.422c1.2617 8.8438 2.5273 17.684 2.5273 25.262v-18.949c1.2617 2.5273 2.5273 2.5273 2.5273 3.7891 0-5.0508 0-10.105-1.2617-15.156h1.2617c1.2617 5.0508 2.5273 11.367 3.7891 16.422h1.2617v-15.156h1.2617c0 3.7891 0 6.3164 1.2617 10.105h1.2617c0-3.7891 0-6.3164 1.2617-10.105h1.2617c1.2617 3.7891 1.2617 7.5781 2.5273 12.633 0-3.7891 0-6.3164 1.2617-8.8438h1.2617c1.2617 3.7891 1.2617 8.8438 2.5273 12.633h1.2617v-15.156h1.2617c1.2617 3.7891 1.2617 7.5781 2.5273 11.367h1.2617v-7.5781h1.2617c1.2617 5.0508 2.5273 10.105 3.7891 15.156h1.2617c-1.2617-6.3164-1.2617-11.367-2.5273-17.684 2.5273 8.8438 3.7891 18.949 6.3164 27.789-1.2617-10.105-2.5273-20.211-2.5273-30.316h1.2617c1.2617 5.0508 2.5273 10.105 3.7891 15.156h2.5273c0-3.7891 1.2617-6.3164 1.2617-10.105v-3.7891c0-1.2617 1.2617-2.5273 2.5273-3.7891 1.2617 11.367 2.5273 21.473 3.7891 32.844h1.2617v-31.578c1.2617 3.7891 2.5273 7.5781 2.5273 12.633 0 3.7891 1.2617 7.5781 1.2617 11.367 1.2617-25.262 1.2617-26.527 5.0508-30.316 1.2617 8.8438 2.5273 16.422 3.7891 25.262h1.2617v-24h1.2617c1.2617 2.5273 1.2617 5.0508 2.5273 8.8438 0-3.7891 1.2617-6.3164 1.2617-8.8438h1.2617c1.2617 10.105 3.7891 20.211 5.0508 29.051h1.2617c0-8.8438-1.2617-17.684-1.2617-26.527h1.2617c0 5.0508 0 8.8438 1.2617 13.895 0-7.5781 1.2617-13.895 1.2617-20.211 2.5273-1.2617 3.7891-1.2617 5.0508-2.5273v8.8438c0-2.5273 0-3.7891 1.2617-6.3164 0 8.8438 1.2617 16.422 1.2617 25.262h1.2617c1.2617-11.367 2.5273-22.738 3.7891-35.367 2.5273 12.633 2.5273 25.262 10.105 35.367-3.7891-11.367-8.8438-22.738-5.0508-36.633 1.2617 3.7891 1.2617 5.0508 2.5273 8.8438 0-3.7891 1.2617-7.5781 1.2617-10.105h1.2617c1.2617 8.8438 3.7891 18.949 5.0508 27.789h1.2617c-1.2617-10.105-1.2617-21.473-2.5273-31.578h1.2617c0 2.5273 1.2617 5.0508 1.2617 7.5781 0-1.2617 0-3.7891 1.2617-6.3164 1.2617 5.0508 1.2617 7.5781 2.5273 12.633 0-6.3164 1.2617-11.367 1.2617-16.422h1.2617c1.2617 3.7891 2.5273 6.3164 3.7891 10.105 0-3.7891 1.2617-7.5781 1.2617-11.367h1.2617c1.2617 5.0508 2.5273 10.105 3.7891 15.156h2.5273v-22.738h1.2617c1.2617 2.5273 1.2617 6.3164 2.5273 10.105 0-2.5273 1.2617-5.0508 1.2617-7.5781 1.2617 7.5781 2.5273 12.633 3.7891 17.684h1.2617c0-5.0508-1.2617-10.105-1.2617-16.422 2.5273 5.0508 3.7891 10.105 6.3164 15.156 0-7.5781-1.2617-15.156-1.2617-22.738l1.2617 1.2617c1.2617 2.5273 1.2617 6.3164 2.5273 10.105v-7.5781c12.633 16.422 16.422 35.367 18.949 55.578 1.2617-18.949-5.0508-35.367-10.105-51.789 5.0508 5.0508 8.8438 10.105 15.156 12.633 5.0508 2.5273 6.3164 7.5781 8.8438 12.633 1.2617 2.5273 1.2617 5.0508 1.2617 7.5781 0 3.7891 1.2617 8.8438 1.2617 12.633h1.2617c-1.2617-7.5781-1.2617-16.422-3.7891-24-2.5273-6.3164-6.3164-12.633-10.105-18.949-5.0508-7.5781-7.5781-15.156-7.5781-25.262 2.5273 3.7891 5.0508 7.5781 6.3164 10.105 1.2617-2.5273 1.2617-5.0508 2.5273-7.5781h1.2617c1.2617 2.5273 1.2617 3.7891 2.5273 6.3164h1.2617v-8.8438c1.2617 1.2617 3.7891 1.2617 5.0508 2.5273 1.2617 1.2617 1.2617 2.5273 2.5273 3.7891h1.2617v-3.7891c1.2617 1.2617 2.5273 3.7891 3.7891 3.7891 1.2617 1.2617 2.5273 1.2617 3.7891 2.5273 21.473 21.473 37.895 46.738 46.738 74.527 10.105 29.051 13.895 59.367 18.949 88.422 5.0508 31.578 3.7891 63.156-7.5781 93.473v2.5273c1.2617-3.7891 3.7891-7.5781 5.0508-11.367 7.5781-21.473 10.105-42.949 7.5781-65.684-3.7891-24-7.5781-49.262-11.367-73.262-6.3164-32.844-17.684-64.422-39.156-92.211-12.633-15.156-25.262-31.578-37.895-46.738-1.2617-2.5273-3.7891-5.0508-5.0508-6.3164 12.633 10.105 21.473 22.738 35.367 31.578-3.7891-5.0508-7.5781-10.105-11.367-15.156 1.2617-1.2617 1.2617-1.2617 2.5273-2.5273 2.5273 2.5273 3.7891 5.0508 6.3164 8.8438l1.2617-1.2617c-3.7891-5.0508-6.3164-10.105-11.367-16.422 3.7891 1.2617 7.5781 2.5273 11.367 5.0508 7.5781 5.0508 13.895 11.367 20.211 17.684 27.789 24 50.527 50.527 72 79.578 18.949 26.527 32.844 55.578 37.895 88.422 1.2617 11.367 2.5273 24 5.0508 35.367 1.2617-31.578-5.0508-61.895-20.211-89.684-18.949-34.105-41.684-65.684-68.211-93.473-16.422-17.684-34.105-34.105-51.789-50.527-3.7891-3.7891-6.3164-6.3164-8.8438-10.105 22.738 15.156 41.684 32.844 60.633 51.789 12.633 12.633 25.262 25.262 37.895 36.633 20.211 20.211 41.684 39.156 60.633 59.367 15.156 15.156 27.789 32.844 36.633 53.051 12.633 34.105 20.211 68.211 21.473 104.84v2.5273h1.2617v-20.211c-2.5273-27.789-8.8438-55.578-17.684-82.105-6.3164-20.211-18.949-36.633-32.844-53.051-13.895-15.156-27.789-29.051-42.949-42.949-32.844-31.578-65.684-63.156-98.527-94.738-6.3164-6.3164-11.367-13.895-17.684-20.211 0 0 0-1.2617 1.2617-1.2617 1.2617 1.2617 3.7891 2.5273 5.0508 2.5273 5.0508 2.5273 8.8438 5.0508 13.895 8.8438 10.105 7.5781 21.473 15.156 31.578 22.738 1.2617 1.2617 2.5273 2.5273 2.5273 5.0508 5.0508 8.8438 10.105 16.422 13.895 25.262 0 0 1.2617 0 1.2617-1.2617-3.7891-7.5781-8.8438-15.156-12.633-24 0 0 1.2617 0 1.2617-1.2617 39.156 31.578 78.316 64.422 101.05 111.16-3.7891-8.8438-7.5781-17.684-12.633-26.527-15.156-26.527-37.895-46.738-60.633-66.949-11.367-10.105-24-18.949-35.367-27.789-16.422-13.895-34.105-27.789-54.316-36.633-1.2617 0-2.5273-1.2617-3.7891-2.5273 27.789 10.105 49.262 27.789 72 45.473l1.2617-1.2617c-12.633-11.367-26.527-21.473-39.156-32.844h5.0508c-7.5781-3.7891-13.895-7.5781-21.473-10.105v-1.2617c5.0508 0 10.105 1.2617 15.156 1.2617-3.7891-2.5273-6.3164-3.7891-10.105-6.3164 8.8438 2.5273 17.684 6.3164 25.262 11.367 17.684 12.633 35.367 25.262 53.051 39.156 21.473 16.422 44.211 34.105 64.422 51.789 7.5781 6.3164 15.156 13.895 21.473 21.473 26.527 35.367 49.262 73.262 68.211 113.68 10.105 21.473 20.211 44.211 22.738 68.211 1.2617 10.105 2.5273 18.949 2.5273 29.051 2.5273-16.422 0-31.578-3.7891-48-6.3164-22.738-15.156-44.211-26.527-65.684-2.5273-3.7891-5.0508-8.8438-5.0508-12.633 1.2617-18.949-3.7891-36.633-11.367-54.316 0-1.2617 0-1.2617-1.2617-2.5273 0 0-1.2617-1.2617-2.5273-2.5273 7.5781 18.949 12.633 35.367 11.367 55.578-1.2617-2.5273-1.2617-2.5273-2.5273-3.7891-13.895-22.738-29.051-45.473-42.949-68.211-7.5781-10.105-15.156-21.473-24-30.316-6.3164-6.3164-13.895-11.367-21.473-17.684-29.051-22.738-58.105-45.473-87.156-68.211-22.738-17.684-48-30.316-74.527-39.156 5.0508 3.7891 8.8438 6.3164 13.895 8.8438 1.2617 1.2617 3.7891 2.5273 3.7891 3.7891 1.2617 6.3164 2.5273 1.2617 3.7891 1.2617 2.5273 2.5273 5.0508 5.0508 7.5781 6.3164-13.895-3.7891-26.527-6.3164-40.422-10.105 0 0 0 1.2617-1.2617 1.2617 5.0508 3.7891 11.367 6.3164 17.684 10.105-13.895 1.2617-20.211-11.367-31.578-12.633 8.8438 7.5781 16.422 15.156 25.262 22.738l-1.2617 1.2617c-2.5273-1.2617-5.0508-3.7891-8.8438-6.3164 0 6.3164-13.895 3.7891-3.7891 13.895-1.2617 0-1.2617 0-2.5273 1.2617-8.8438-8.8438-17.684-18.949-26.527-27.789l-1.2617 1.2617c6.3164 8.8438 13.895 17.684 20.211 26.527 0 1.2617-1.2617 1.2617-1.2617 2.5273-2.5273-1.2617-6.3164-2.5273-7.5781-2.5273-5.0508 2.5273-6.3164-1.2617-7.5781-3.7891-3.7891-5.0508-7.5781-10.105-10.105-13.895l-1.2617 1.2617c2.5273 6.3164 6.3164 11.367 8.8438 17.684-11.367 3.7891-21.473 0-30.316-3.7891-15.156-6.3164-30.316-12.633-44.211-18.949-6.3164-2.5273-11.367-7.5781-16.422-11.367-2.5273-2.5273-5.0508-5.0508-6.3164-8.8438-1.2617-2.5273-2.5273-6.3164-2.5273-8.8438s1.2617-5.0508 3.7891-6.3164c7.5781-8.8438 15.156-17.684 11.367-31.578-1.2617-5.0508 1.2617-7.5781 6.3164-8.8438 10.105-2.5273 17.684-7.5781 24-13.895 6.3164-6.3164 10.105-15.156 11.367-26.527-8.8438 5.0508-2.5273 16.422-11.367 18.949-2.5273-2.5273-5.0508-3.7891-6.3164-6.3164-8.8438-6.3164-18.949-5.0508-29.051-3.7891-5.0508 0-10.105 1.2617-15.156 1.2617-11.367-1.2617-24-5.0508-35.367 0 0-3.7891 2.5273-7.5781 0-10.105s-3.7891-5.0508-6.3164-7.5781c0-3.7891 2.5273-6.3164 0-12.633-2.5273-7.5781-1.2617-16.422 6.3164-21.473-1.2617 0-8.8438 7.5781-13.895 12.633 0-2.5273 0-3.7891 1.2617-5.0508-1.2617 1.2617-6.3164 7.5781-6.3164 11.367-7.4766 5.0859-11.266 24.031-11.266 25.297zm49.262 69.473-6.3164-12.633s3.7891-10.105 3.7891-18.949c-1.2617-10.105-17.684-8.8438-21.473-5.0508-5.0508-3.7891-5.0508-7.5781-1.2617-10.105 3.7891-3.7891 8.8438-6.3164 15.156-6.3164 16.422 2.5273 32.844 2.5273 49.262 0 3.7891-1.2617 8.8438 1.2617 13.895 3.7891 3.7891 1.2617 3.7891 5.0508 1.2617 8.8438-2.5273 2.5273-6.3164 5.0508-8.8438 6.3164-5.0508-3.7891-11.367-5.0508-16.422 0-6.3164 6.3164-1.2617 16.422 1.2617 24l-10.105 12.633c-1.2617-1.2617-2.5273-1.2617-5.0508-2.5273v-13.895-13.895h-3.7891l0.007812 27.789-2.5273 2.5273zm99.789 94.738-5.0508-5.0508c-1.2617 2.5273-2.5273 5.0508-5.0508 6.3164-1.2617 1.2617-3.7891 0-6.3164-1.2617-3.7891 6.3164-8.8438 13.895-13.895 21.473 0 0-1.2617 0-1.2617-1.2617s1.2617-3.7891 2.5273-6.3164c-3.7891 5.0508-7.5781 8.8438-11.367 12.633 2.5273-6.3164 5.0508-13.895 7.5781-20.211 0 0-12.633 15.156-17.684 21.473-1.2617 1.2617-2.5273 2.5273-3.7891 2.5273-8.8438-1.2617-17.684 3.7891-26.527 5.0508s-16.422 0-25.262-1.2617c-3.7891 0-8.8438 1.2617-11.367-3.7891-5.0508 3.7891-5.0508-1.2617-6.3164-3.7891-3.7891 3.7891-16.422-6.3164-20.211-17.684 0 2.5273 0 3.7891-1.2617 6.3164-1.2617-2.5273-2.5273-5.0508-3.7891-7.5781-1.2617 1.2617-1.2617 1.2617-2.5273 2.5273-3.7891-3.7891-5.0508-7.5781-1.2617-12.633-2.5273 1.2617-3.7891 2.5273-3.7891 2.5273 0-1.2617-1.2617-3.7891-1.2617-5.0508-1.2617 1.2617-2.5273 3.7891-5.0508 5.0508 0-3.7891 0-5.0508-1.2617-8.8438-1.2617 1.2617-2.5273 2.5273-1.2617 2.5273-3.7891-2.5273-7.5781-3.7891-11.367-7.5781 2.5273-1.2617 5.0508-3.7891 6.3164-5.0508 3.7891-1.2617 7.5781-3.7891 10.105-3.7891 7.5781 1.2617 12.633-2.5273 17.684-3.7891h5.0508c2.5273-1.2617 6.3164-1.2617 8.8438-3.7891 2.5273-2.5273 3.7891-7.5781 8.8438-2.5273 0 0 2.5273 0 3.7891-1.2617 2.5273-2.5273 5.0508-3.7891 10.105-7.5781 0 3.7891 0 5.0508-1.2617 6.3164h1.2617c1.2617-2.5273 2.5273-3.7891 3.7891-6.3164 0 2.5273 1.2617 6.3164 1.2617 10.105 1.2617-3.7891 1.2617-6.3164 2.5273-10.105 5.0508 0 7.5781 7.5781 13.895 3.7891 0 2.5273 1.2617 3.7891 1.2617 6.3164 2.5273-1.2617 3.7891-3.7891 6.3164-5.0508v5.0508c3.7891-3.7891 3.7891-3.7891 12.633 2.5273 7.5781-2.5273 11.367 3.7891 17.684 5.0508 0 0 1.2617-1.2617 1.2617-2.5273 1.2617 1.2617 1.2617 2.5273 2.5273 3.7891 1.2617-1.2617 2.5273-1.2617 2.5273-2.5273 3.7891 1.2617 6.3164 3.7891 10.105 5.0508 1.2617 0 2.5273-1.2617 2.5273-2.5273 2.5273 0 3.7891 0 6.3164 1.2617s3.7891 2.5273 6.3164 3.7891c2.5273 2.5273 2.5273 2.5273 7.5781 2.5273 2.5273 0 5.0508 2.5273 7.5781 3.7891 1.2461 5.0469 1.2461 7.5742-0.019531 11.363z"/>
 <path d="m276.63 1010.5c1.2617-2.5273 2.5273-5.0508 5.0508-7.5781-2.5273 1.2617-5.0508 3.7891-6.3164 5.0508-1.2617 1.2617 0 2.5273 1.2656 2.5273z"/>
 <path d="m363.79 990.32c1.2617-20.211 2.5273-40.422 7.5781-59.367 11.367-48 37.895-88.422 65.684-127.58 3.7891-6.3164 8.8438-11.367 12.633-16.422 1.2617-1.2617 0-2.5273 1.2617-3.7891h-1.2617c7.5781-8.8438 15.156-16.422 21.473-25.262-2.5273 0-5.0508 1.2617-7.5781 2.5273-7.5781 6.3164-15.156 13.895-22.738 20.211-20.211 18.949-37.895 40.422-53.051 64.422-11.367 17.684-22.738 35.367-34.105 51.789-18.949 30.316-39.156 60.633-45.473 98.527h2.5273c-1.2617 3.7891-1.2617 7.5781-2.5273 10.105 0 3.7891-1.2617 6.3164-1.2617 10.105v5.0508c3.7891-15.156 7.5781-31.578 11.367-46.738h2.5273v11.367h1.2617c1.2617-2.5273 2.5273-5.0508 3.7891-7.5781 0 1.2617 1.2617 2.5273 1.2617 3.7891 0-1.2617 1.2617-2.5273 1.2617-3.7891s1.2617-1.2617 1.2617-2.5273c-3.7891 31.578-8.8438 61.895-2.5273 93.473-1.2617 0-1.2617 0-2.5273 1.2617-5.0508-6.3164-10.105-12.633-13.895-20.211-8.8438-16.422-13.895-34.105-13.895-53.051 0-5.0508 5.0508-16.422 8.8438-17.684-2.5273 15.156-7.5781 29.051-2.5273 44.211v-8.8438c2.5273-22.738 6.3164-45.473 17.684-66.949 15.156-26.527 30.316-51.789 45.473-77.051 10.105-17.684 21.473-34.105 32.844-50.527 8.8438-11.367 18.949-21.473 29.051-31.578 2.5273-2.5273 7.5781-6.3164 7.5781-10.105 0-6.3164 5.0508-8.8438 8.8438-13.895 2.5273-2.5273 5.0508-6.3164 7.5781-8.8438-7.5781 5.0508-15.156 10.105-22.738 15.156-35.367 22.738-68.211 48-93.473 82.105-2.5273 3.7891-5.0508 6.3164-8.8438 10.105 2.5273-6.3164 6.3164-12.633 10.105-17.684 12.633-13.895 25.262-27.789 40.422-40.422 17.684-15.156 36.633-29.051 55.578-42.949 6.3164-5.0508 11.367-8.8438 17.684-13.895 0 0 0-1.2617-1.2617-1.2617-13.895 7.5781-27.789 16.422-40.422 24l-1.2617-1.2617c6.3164-5.0508 16.422-6.3164 18.949-16.422-3.7891 1.2617-7.5781 3.7891-11.367 6.3164-16.422 8.8438-34.105 17.684-50.527 27.789-20.211 12.633-40.422 26.527-59.367 40.422-29.051 20.211-56.844 44.211-80.844 70.738-34.105 39.156-60.633 82.105-74.527 131.37-1.2617 3.7891-2.5273 7.5781-2.5273 11.367h1.2617c12.633-46.738 34.105-89.684 65.684-126.32 27.789-34.105 94.738-90.949 108.63-93.473-2.5273 3.7891-6.3164 7.5781-8.8438 12.633 3.7891-2.5273 6.3164-3.7891 8.8438-5.0508l1.2617 1.2617c-2.5273 2.5273-3.7891 6.3164-6.3164 8.8438h5.0508c0 1.2617-1.2617 1.2617-1.2617 2.5273 3.7891-1.2617 6.3164 1.2617 3.7891 5.0508-1.2617 2.5273-2.5273 5.0508-5.0508 7.5781h6.3164c-3.7891 5.0508-7.5781 10.105-11.367 15.156s-6.3164 8.8438-10.105 13.895c-2.5273 5.0508-6.3164 10.105-8.8438 13.895h1.2617c8.8438-11.367 17.684-24 26.527-35.367 1.2617 0 1.2617 0 2.5273 1.2617 0 3.7891 0 7.5781-1.2617 10.105-8.8438 21.473-22.738 40.422-39.156 56.844 2.5273-1.2617 6.3164-1.2617 8.8438-2.5273-12.633 15.156-26.527 30.316-36.633 48 8.8438-11.367 18.949-21.473 27.789-32.844l1.2617 1.2617c-1.2617 2.5273-3.7891 6.3164-5.0508 8.8438-7.5781 11.367-16.422 22.738-21.473 35.367-5.0508 11.367-12.633 22.738-18.949 32.844-7.5781 12.633-13.895 24-17.684 37.895v1.2617 1.2617c8.8438-29.051 27.789-50.527 49.262-70.738-1.2617 2.5273-1.2617 5.0508-3.7891 7.5781-11.367 15.156-22.738 31.578-29.051 50.527-1.2617 5.0508-2.5273 11.367-5.0508 17.684 10.105-27.789 24-53.051 44.211-73.262 1.2617-1.2617 2.5273-3.7891 2.5273-6.3164h3.7891c-1.2617 2.5273-1.2617 3.7891-2.5273 5.0508 1.2617 0 2.5273-1.2617 5.0508-1.2617-2.5273 5.0508-5.0508 8.8438-7.5781 12.633 3.7891-2.5273 6.3164-5.0508 10.105-7.5781l1.2617 1.2617c-1.2617 3.7891-2.5273 6.3164-2.5273 10.105h1.2617c1.2617-1.2617 2.5273-3.7891 3.7891-5.0508h1.2617c-2.5273 7.5781-6.3164 15.156-8.8438 22.738h1.2617c2.5273-6.3164 6.3164-12.633 8.8438-20.211h1.2617c0 6.3164-1.2617 11.367-1.2617 17.684h1.2617c0-2.5273 1.2617-5.0508 1.2617-7.5781 0 1.2617 1.2617 1.2617 1.2617 2.5273 0 1.2617 0 2.5273 1.2617 3.7891 5.0508 18.949 12.633 37.895 27.789 50.527 1.2617 1.2617 2.5273 3.7891 2.5273 5.0508 2.5273 7.5781 3.7891 16.422 6.3164 24 0-7.5781-1.2617-15.156-1.2617-22.738-2.5273-20.211-6.3164-40.422-2.5273-61.895 1.2617-5.0508 2.5273-8.8438 3.7891-13.895h1.2617v7.5781h1.2617c0-2.5273 1.2617-3.7891 1.2617-5.0508v49.262c1.2617 16.422 5.0508 32.844 12.633 49.262-6.3164-17.684-11.367-35.367-10.105-54.316 0-18.949 5.0508-36.633 7.5781-54.316-1.2617 17.684-2.5273 35.367-3.7891 53.051h2.5273v-15.156c1.2617-8.8438-1.2617-18.949 6.3164-27.789 1.2617 10.105 2.5273 18.949 5.0508 29.051h1.2617c1.2617-16.422 2.5273-34.105 2.5273-50.527h2.5273c-7.5781 46.738-1.2617 90.949 25.262 128.84-5.0508-13.895-12.633-30.316-17.684-46.738-15.137-22.727-15.137-49.254-13.875-74.516zm-1.2617-12.633c-1.2617-2.5273-1.2617-3.7891-1.2617-6.3164h-1.2617c-1.2617 12.633-2.5273 25.262-5.0508 39.156h-1.2617c1.2617-17.684 2.5273-34.105 3.7891-51.789h1.2617c0 1.2617 0 2.5273 1.2617 5.0508 1.2617-1.2617 1.2617-1.2617 2.5273-1.2617-0.003906 3.793-0.003906 8.8438-0.003906 15.16zm-18.949 15.16c-1.2617-35.367 7.5781-68.211 21.473-99.789-11.367 32.84-20.207 65.684-21.473 99.789z"/>
 <path d="m309.47 1025.7v-5.0508c-1.2617 2.5234-1.2617 3.7891 0 5.0508-1.2617 0-1.2617 0 0 0z"/>
 <path d="m492.63 574.74c5.0508-2.5273 8.8438-1.2617 12.633 1.2617 2.5273 1.2617 5.0508 3.7891 3.7891 8.8438-1.2617 6.3164 0 13.895 0 20.211 1.2617-3.7891 2.5273-7.5781 5.0508-12.633 1.2617 1.2617 1.2617 2.5273 2.5273 5.0508 1.2617-3.7891 2.5273-7.5781 3.7891-11.367 1.2617 2.5273 1.2617 5.0508 2.5273 7.5781h1.2617c0-7.5781 1.2617-16.422 0-24-3.7891-17.684-7.5781-36.633-11.367-54.316-6.3164-25.262-34.105-48-60.633-49.262-22.738-1.2617-44.211 3.7891-65.684 10.105-15.156 3.7891-31.578 6.3164-46.738 10.105-2.5273 1.2617-6.3164 1.2617-10.105 1.2617v1.2617c6.3164 1.2617 13.895 2.5273 21.473 3.7891-8.8438 5.0508-18.949 3.7891-27.789 7.5781-6.3164 2.5273-13.895 1.2617-21.473 1.2617 0 0-1.2617 0-2.5273 1.2617 2.5273 1.2617 5.0508 1.2617 6.3164 2.5273-3.7891 1.2617-6.3164 2.5273-8.8438 2.5273v2.5273c12.633-1.2617 24-2.5273 36.633-2.5273h1.2617c10.105-2.5273 20.211-6.3164 29.051-8.8438 3.7891-1.2617 6.3164 1.2617 6.3164 5.0508 2.5273 7.5781 3.7891 15.156 6.3164 22.738 8.8438 24 25.262 41.684 51.789 48 17.684 3.7891 34.105 2.5273 50.527-1.2617 3.7891-1.2617 7.5781 0 11.367-1.2617-24 13.895-50.527 13.895-77.051 11.367 29.055 2.5312 55.582 6.3203 79.582-8.8359zm-64.422-83.371c5.0508 0 10.105 5.0508 10.105 10.105 0 6.3164-5.0508 10.105-10.105 10.105-5.0547 0-11.367-3.7891-11.367-10.105s5.0508-10.105 11.367-10.105zm12.633 69.477c-25.262 0-45.473-20.211-46.738-45.473 0-3.7891 0-7.5781 3.7891-10.105 3.7891-2.5273 6.3164-6.3164 10.105-8.8438v13.895c1.2617 18.949 10.105 31.578 26.527 37.895 6.3164 3.7891 7.5781 7.5781 6.3164 12.633zm45.473-11.371c-8.8438 7.5781-20.211 11.367-32.844 12.633-1.2617 0-5.0508-1.2617-5.0508-2.5273 0-2.5273 1.2617-5.0508 2.5273-7.5781h1.2617c15.156-6.3164 24-17.684 31.578-31.578 1.2617-3.7891 5.0508-6.3164 7.5781-10.105 0 0 10.105-1.2617 8.8438 12.633-1.2617 11.367-5.0547 20.207-13.895 26.523z"/>
 <path d="m664.42 548.21c-2.5273 11.367-5.0508 24-6.3164 35.367-1.2617 7.5781 1.2617 15.156 1.2617 24h1.2617c0-2.5273 1.2617-5.0508 1.2617-7.5781h1.2617c0 2.5273 1.2617 6.3164 2.5273 8.8438 1.2617-1.2617 1.2617-3.7891 2.5273-5.0508 1.2617 2.5273 1.2617 5.0508 2.5273 6.3164h1.2617c0-3.7891-1.2617-8.8438-1.2617-12.633 0-15.156 7.5781-20.211 18.949-16.422 18.949 6.3164 39.156 7.5781 60.633 3.7891h-13.895c-13.895 0-27.789 0-40.422-6.3164-10.105-3.7891-18.949-3.7891-26.527 3.7891h-1.2617c3.7891-6.3164 11.367-10.105 21.473-8.8438 6.3164 1.2617 12.633 2.5273 20.211 3.7891 39.156 5.0508 74.527-8.8438 90.949-48 2.5273-7.5781 6.3164-15.156 10.105-22.738 1.2617-1.2617 2.5273-3.7891 3.7891-3.7891 8.8438-1.2617 17.684-1.2617 26.527 2.5273 5.0508 2.5273 10.105 5.0508 16.422 5.0508 2.5273 0 5.0508 1.2617 7.5781 0 8.8438-1.2617 17.684-1.2617 26.527-7.5781-3.7891 1.2617-8.8438 1.2617-12.633 2.5273-26.527 1.2617-50.527-6.3164-74.527-15.156-25.262-10.105-50.527-16.422-77.051-12.633-22.738 2.5273-50.527 17.684-55.578 50.527-3.793 6.3164-6.3203 13.895-7.582 20.211zm84.629 7.5781c13.895-10.105 20.211-25.262 22.738-40.422v-3.7891c2.5273 0 5.0508 1.2617 6.3164 1.2617 11.367 5.0508 10.105 5.0508 6.3164 16.422-5.0508 16.422-15.156 29.051-32.844 34.105-1.2617 0-2.5273 0-3.7891 1.2617h-3.7891c2.5273-3.7852 2.5273-7.5781 5.0508-8.8398zm-29.051-56.84c6.3164 0 10.105 5.0508 10.105 10.105 0 6.3164-5.0508 10.105-11.367 10.105-6.3164 0-10.105-5.0508-10.105-11.367 1.2617-3.793 5.0508-8.8438 11.367-8.8438zm-24 31.578c1.2617-1.2617 2.5273-1.2617 3.7891-2.5273 1.2617 2.5273 2.5273 5.0508 5.0508 7.5781 7.5781 8.8438 16.422 16.422 27.789 20.211 6.3164 2.5273 6.3164 5.0508 6.3164 10.105-12.633 3.7891-32.844-6.3164-39.156-18.949-1.2617-2.5273-2.5273-6.3164-3.7891-8.8438-1.2617-2.5234-1.2617-5.0508 0-7.5742zm-15.156 3.7891c7.5781 10.105 15.156 20.211 21.473 29.051-13.895 1.2656-25.266-13.895-21.473-29.051z"/>
 <path d="m464.84 1063.6c2.5273 1.2617 6.3164 2.5273 8.8438 3.7891l1.2617-1.2617c-27.789-12.633-48-32.844-61.895-60.633-12.633-26.527-18.949-55.578-17.684-85.895 0 5.0508 1.2617 10.105 1.2617 15.156 1.2617-11.367 1.2617-24 7.5781-34.105 1.2617 1.2617 1.2617 2.5273 1.2617 5.0508 0 5.0508-1.2617 8.8438-1.2617 12.633 1.2617 31.578 8.8438 61.895 20.211 89.684 5.0508 12.633 13.895 22.738 21.473 34.105 1.2617 2.5273 3.7891 3.7891 6.3164 6.3164-6.3164-8.8438-12.633-17.684-17.684-26.527-11.367-21.473-16.422-45.473-21.473-69.473-3.7891-17.684-6.3164-36.633-1.2617-54.316 0-1.2617 1.2617-2.5273 1.2617-3.7891 1.2617 3.7891 2.5273 6.3164 2.5273 8.8438v10.105h1.2617c0-1.2617 0-3.7891 1.2617-6.3164 0 2.5273 1.2617 3.7891 1.2617 6.3164 1.2617-3.7891 1.2617-6.3164 1.2617-10.105 2.5273-13.895 3.7891-27.789 8.8438-40.422 12.633-34.105 32.844-63.156 49.262-96 1.2617-2.5273 3.7891-5.0508 6.3164-7.5781-6.3164 3.7891-12.633 7.5781-18.949 12.633-24 21.473-41.684 48-54.316 77.051-8.8438 20.211-13.895 41.684-20.211 63.156-2.5273 7.5781-2.5273 16.422-2.5273 25.262 2.5273 24 10.105 45.473 20.211 66.949 12.637 27.793 30.32 48.004 55.586 59.371z"/>
 <path d="m491.37 766.74c-6.3164 6.3164-12.633 12.633-16.422 18.949-8.8438 15.156-17.684 30.316-25.262 45.473-15.156 27.789-25.262 56.844-26.527 88.422-1.2617 18.949 3.7891 48 8.8438 58.105-6.3164-26.527-7.5781-54.316-2.5273-80.844h1.2617v17.684c1.2617-2.5273 2.5273-5.0508 3.7891-8.8438v8.8438h1.2617c1.2617-5.0508 2.5273-10.105 3.7891-15.156h1.2617c1.2617 8.8438 1.2617 17.684 2.5273 26.527h1.2617v-29.051h1.2617c0 1.2617 1.2617 2.5273 1.2617 5.0508h1.2617c0-2.5273 1.2617-5.0508 1.2617-6.3164h1.2617c-1.2617 3.7891-1.2617 7.5781-1.2617 8.8438 1.2617 3.7891 2.5273 6.3164 2.5273 8.8438 1.2617 20.211 7.5781 40.422 15.156 58.105-12.633-34.105-15.156-69.473-10.105-104.84 2.5391-35.375 13.906-68.215 34.117-99.793z"/>
 <path d="m378.95 1048.4c-5.0508-24-1.2617-48-1.2617-72v-1.2617s0 1.2617 1.2617 1.2617c1.2617 6.3164 1.2617 13.895 2.5273 20.211h1.2617c0-2.5273 0-5.0508-1.2617-8.8438 1.2617 2.5273 2.5273 3.7891 2.5273 5.0508 0-8.8438-1.2617-16.422-1.2617-25.262 0-7.5781 1.2617-15.156 1.2617-24v3.7891 2.5273c-1.2617-30.316 6.3164-58.105 15.156-85.895-1.2617 1.2617-1.2617 2.5273-2.5273 3.7891-6.3164 12.633-12.633 25.262-17.684 37.895-6.3164 15.156-10.105 32.844-10.105 49.262 0 16.422 1.2617 32.844 1.2617 49.262 0 24 2.5273 48 10.105 70.738 8.8438 26.527 22.738 50.527 44.211 68.211 1.2617 1.2617 2.5273 2.5273 3.7891 3.7891 0-1.2617-1.2617-2.5273-1.2617-2.5273-25.266-25.262-40.422-58.102-48-95.996z"/>
 <path d="m500.21 448.42c-1.2617-6.3164-3.7891-11.367-5.0508-15.156 1.2617 1.2617 1.2617 2.5273 2.5273 3.7891 13.895-25.262 6.3164-49.262-3.7891-72 1.2617 8.8438 3.7891 17.684 5.0508 27.789-6.3164-16.422-11.367-32.844-16.422-46.738-2.5273 20.211 3.7891 41.684 7.5781 61.895-2.5273-8.8438-6.3164-17.684-8.8438-26.527-6.3125 15.16 11.371 58.105 18.949 66.949z"/>
 <path d="m922.11 360v-11.367c-3.7891 6.3164-6.3164 12.633-10.105 17.684-1.2617-1.2617-1.2617-1.2617-2.5273-2.5273-1.2617 2.5273-1.2617 5.0508-2.5273 7.5781h-1.2617c1.2617-5.0508 2.5273-11.367 5.0508-17.684-2.5273 2.5273-6.3164 5.0508-8.8438 7.5781 0 1.2617 1.2617 3.7891 1.2617 5.0508-2.5273 6.3164 0 12.633 3.7891 17.684 1.2617 2.5273 2.5273 6.3164 3.7891 8.8438 10.105-12.633 22.738-24 27.789-40.422 2.5273-6.3164 8.8438-11.367 12.633-16.422 2.5273-3.7891 6.3164-7.5781 8.8438-11.367l-1.2617-1.2617c-2.5273 1.2617-3.7891 2.5273-6.3164 5.0508 0-2.5273 1.2617-5.0508 1.2617-7.5781h-1.2617c-1.2617 2.5273-3.7891 5.0508-5.0508 7.5781 0 0-1.2617 0-1.2617-1.2617 0-3.7891 0-6.3164 1.2617-11.367-3.7891 7.5781-6.3164 12.633-8.8438 18.949 1.2617-8.8438 6.3164-15.156 3.7891-26.527-6.3164 17.684-12.633 34.105-17.684 50.527-1.2617 1.2617-2.5234 1.2617-2.5234 1.2617z"/>
 <path d="m904.42 343.58c0-1.2617-1.2617-1.2617-1.2617-2.5273 7.5781 0 6.3164-6.3164 8.8438-10.105h-13.895c1.2617-1.2617 2.5273-2.5273 3.7891-3.7891-3.7891 0-6.3164 1.2617-10.105 1.2617v-1.2617c-3.7891 1.2617-6.3164 2.5273-10.105 5.0508v-1.2617c3.7891-2.5273 7.5781-6.3164 11.367-8.8438-8.8438 1.2617-15.156 6.3164-20.211 12.633-8.8438 12.633-16.422 25.262-25.262 37.895-1.2617 1.2617-1.2617 3.7891-2.5273 5.0508 7.5781-10.105 13.895-20.211 22.738-27.789s20.211-13.895 32.844-13.895c-25.262 10.105-34.105 34.105-48 54.316 10.105-8.8438 20.211-17.684 29.051-26.527 5.0508-5.0508 11.367-10.105 20.211-11.367-1.2617 3.7891-2.5273 5.0508-3.7891 7.5781l1.2617 1.2617c5.0508-6.3164 11.367-13.895 16.422-20.211-2.5312 0.003906-6.3203 1.2695-11.371 2.5312zm-30.316 24s-1.2617 0-1.2617-1.2617c5.0508-6.3164 11.367-12.633 16.422-18.949l1.2617 1.2617c-5.0547 6.3203-11.371 12.633-16.422 18.949z"/>
 <path d="m675.79 450.95c1.2617-2.5273 2.5273-3.7891 3.7891-6.3164 1.2617 2.5273 2.5273 3.7891 3.7891 5.0508 12.633-20.211 21.473-44.211 18.949-54.316-2.5273 3.7891-3.7891 7.5781-6.3164 11.367h-1.2617c2.5273-8.8438 5.0508-17.684 6.3164-26.527h-1.2617c-2.5273 3.7891-5.0508 7.5781-8.8438 11.367 1.2617-6.3164 3.7891-12.633 5.0508-18.949-1.2617 0-1.2617 0-2.5273-1.2617-6.3164 15.156-13.895 31.578-18.949 48-2.5234 8.8477-1.2617 18.953 1.2656 31.586zm7.5781-40.422c2.5273-6.3164 6.3164-12.633 8.8438-18.949-2.5273 10.105-5.0508 18.949-7.5781 29.051-1.2617 2.5273-2.5273 6.3164-3.7891 8.8438-1.2656-6.3164 0-12.629 2.5234-18.945z"/>
 <path d="m843.79 1004.2c-7.5781-37.895-21.473-74.527-39.156-108.63-12.633-22.738-27.789-44.211-48-60.633-2.5273-1.2617-3.7891-2.5273-6.3164-5.0508l-1.2617 1.2617c3.7891 3.7891 7.5781 7.5781 11.367 11.367 12.633 11.367 22.738 24 31.578 37.895 18.949 31.578 32.844 64.422 42.949 99.789 11.367 37.895 10.105 75.789-5.0508 112.42-6.3164 15.156-13.895 29.051-20.211 42.949 1.2617-2.5273 5.0508-5.0508 6.3164-8.8438 6.3164-13.895 13.895-26.527 18.949-41.684 10.098-25.262 13.891-53.051 8.8359-80.84z"/>
 <path d="m894.32 866.53c-11.367-15.156-24-26.527-39.156-37.895 8.8438 8.8438 16.422 17.684 25.262 26.527 8.8438 10.105 18.949 18.949 25.262 30.316 21.473 36.633 42.949 74.527 61.895 112.42 12.633 24 22.738 48 25.262 75.789 1.2617 7.5781 1.2617 13.895 1.2617 21.473 1.2617-1.2617 1.2617-3.7891 1.2617-5.0508 1.2617-21.473-3.7891-41.684-12.633-61.895-21.469-58.109-51.781-112.43-88.414-161.69z"/>
 <path d="m837.47 272.84c-25.262 5.0508-37.895 24-49.262 42.949 1.2617 0 2.5273-1.2617 2.5273-1.2617 13.895-16.422 31.578-29.051 51.789-35.367 6.3164-2.5273 12.633-3.7891 18.949-3.7891h42.949v-1.2617h-45.473v-2.5273c15.156-1.2617 30.316-2.5273 44.211-3.7891-21.48-2.5352-42.953 1.2539-65.691 5.0469z"/>
 <path d="m826.11 776.84c17.684 11.367 34.105 26.527 48 42.949 11.367 13.895 24 27.789 35.367 41.684-1.2617-2.5273-2.5273-6.3164-3.7891-8.8438-16.422-17.684-31.578-36.633-48-54.316-13.895-15.156-31.578-24-48-35.367-6.3164-3.7891-10.105-11.367-17.684-15.156-6.3164-2.5273-10.105-3.7891-16.422-2.5273 6.3164 2.5273 13.895 5.0508 20.211 8.8438 11.367 8.8398 20.211 16.418 30.316 22.734z"/>
 <path d="m855.16 329.68c6.3164-5.0508 13.895-7.5781 21.473-11.367v-1.2617c-1.2617 0-3.7891 0-6.3164 1.2617 1.2617-1.2617 1.2617-3.7891 2.5273-5.0508 0 0 0-1.2617-1.2617-1.2617-7.5781 2.5273-13.895 3.7891-21.473 6.3164 5.0508-6.3164 10.105-12.633 15.156-18.949l-2.5273-2.5273c-12.633 15.156-26.527 29.051-39.156 44.211 21.473-16.422 22.738-16.422 29.051-16.422-5.0508 6.3164-10.105 13.895-15.156 21.473 6.3164-6.3164 11.371-12.633 17.684-16.422z"/>
 <path d="m857.68 986.53c-1.2617 15.156-2.5273 30.316-5.0508 44.211-1.2617 15.156-3.7891 29.051-6.3164 44.211 2.5273-6.3164 5.0508-13.895 6.3164-20.211 1.2617-11.367 1.2617-21.473 2.5273-32.844 0-2.5273 1.2617-6.3164 2.5273-8.8438 0 15.156 0 30.316-1.2617 44.211-1.2617 21.473-5.0508 42.949-18.949 60.633v1.2617c1.2617-1.2617 1.2617-1.2617 1.2617-2.5273 12.633-13.895 15.156-30.316 17.684-46.738 2.5273-15.156 3.7891-30.316 3.7891-44.211 1.2617-13.891 0-26.523-2.5273-39.152 1.2656 0 1.2656 0 0 0z"/>
 <path d="m1021.9 179.37c-6.3164 25.262-12.633 49.262-18.949 74.527-6.3164 25.262-17.684 48-31.578 70.738 18.949-12.633 48-96 50.527-145.27z"/>
 <path d="m525.47 279.16c-2.5273 7.5781-3.7891 15.156 0 22.738 3.7891 8.8438 5.0508 17.684 3.7891 26.527-1.2617 12.633 2.5273 24 10.105 32.844 1.2617 2.5273 3.7891 3.7891 5.0508 6.3164 5.0508 6.3164 7.5781 12.633 7.5781 21.473v5.0508h1.2617c0-5.0508 1.2617-10.105 0-13.895-2.5273-6.3164-5.0508-11.367-8.8438-16.422-11.367-12.633-15.156-26.527-13.895-42.949 0-5.0508 0-10.105-1.2617-15.156-5.0508-12.633-2.5273-22.738 1.2617-35.367 3.7891-10.105 6.3164-21.473 7.5781-31.578 1.2617-7.5781 0-15.156-3.7891-22.738 5.0508 13.895 2.5273 27.789-1.2617 41.684-2.5195 7.5781-5.0469 13.895-7.5742 21.473z"/>
 <path d="m269.05 549.47c5.0508-2.5273 8.8438-5.0508 15.156-8.8438-3.7891 0-5.0508-1.2617-7.5781-1.2617 2.5273-1.2617 3.7891-1.2617 6.3164-2.5273-1.2617 0-2.5273 0-6.3164-1.2617 5.0508-2.5273 10.105-3.7891 13.895-6.3164-8.8438-3.7891-22.738 0-30.316 8.8438h7.5781c-6.3164 5.0508-12.633 10.105-18.949 15.156h1.2617c5.0508-1.2617 8.8438-2.5273 13.895-3.7891 1.2695 1.2656 3.7969 1.2656 5.0586 0z"/>
 <path d="m947.37 381.47c-2.5273 1.2617-2.5273 6.3164-6.3164 5.0508l-1.2617 2.5273c2.5273 6.3164-1.2617 10.105-3.7891 15.156-1.2617 2.5273-2.5273 6.3164-3.7891 8.8438h1.2617c13.895-20.211 29.051-39.156 30.316-66.949-8.8438 12.633-6.3164 27.789-16.422 39.156v-3.7852z"/>
 <path d="m530.53 295.58c0 15.156 2.5273 29.051 5.0508 44.211 1.2617 5.0508 2.5273 11.367 3.7891 15.156-1.2617-8.8438-1.2617-18.949-2.5273-29.051-1.2617-7.5781-1.2617-15.156-3.7891-21.473-2.5273-7.5781-2.5273-15.156 0-24 2.5273-7.5781 5.0508-13.895 7.5781-21.473 3.7891-10.105 5.0508-21.473 1.2617-31.578 1.2617 15.156-2.5273 29.051-7.5781 42.949-1.2617 7.5742-3.7852 16.418-3.7852 25.258z"/>
 <path d="m582.32 332.21c-3.7891-16.422-8.8438-31.578-13.895-48v7.5781c1.2617 7.5781 3.7891 13.895 5.0508 21.473 3.7891 13.895 7.5781 27.789 6.3164 42.949-1.2617 12.633 6.3164 24 13.895 34.105 0-1.2617-1.2617-2.5273-1.2617-3.7891-6.3164-12.633-11.367-25.262-8.8438-40.422 0-5.0547 0-10.105-1.2617-13.895z"/>
 <path d="m439.58 253.89c-16.422-27.789-39.156-49.262-63.156-69.473-1.2617 0-1.2617-1.2617-2.5273-1.2617v1.2617c7.5781 7.5781 15.156 16.422 22.738 24 8.8438 8.8438 17.684 16.422 26.527 26.527 6.3164 7.5781 12.633 16.422 17.684 25.262 1.2617 1.2617 1.2617 2.5273 1.2617 3.7891-5.0508-6.3164-10.105-12.633-15.156-18.949-10.105-11.367-20.211-22.738-30.316-35.367 0 1.2617 0 1.2617 1.2617 2.5273 12.633 16.422 25.262 32.844 37.895 48 3.7891 3.7891 7.5781 7.5781 10.105 11.367l1.2617-1.2617c-1.2617-2.5273-3.7891-3.7891-5.0508-6.3164 0-1.2617 1.2617-1.2617 1.2617-2.5273-1.2617-2.5234-2.5234-5.0508-3.7891-7.5781z"/>
 <path d="m420.63 1038.3c-1.2656 0-1.2656 0 0 0 0 1.2617 1.2617 3.7891 2.5273 5.0508 8.8438 7.5781 16.422 16.422 25.262 24 15.156 13.895 29.051 27.789 36.633 48 1.2617 2.5273 2.5273 6.3164 3.7891 8.8438-2.5273-16.422-10.105-30.316-22.738-41.684-15.156-16.422-30.316-30.316-45.473-44.211z"/>
 <path d="m1029.5 1034.5c-7.5781-36.633-20.211-72-35.367-106.11 11.367 35.367 24 70.734 35.367 106.11z"/>
 <path d="m894.32 1130.5c22.738-30.316 18.949-64.422 17.684-98.527-2.5273 32.844 2.5273 68.211-17.684 98.527z"/>
 <path d="m914.53 521.68c-10.105-1.2617-21.473-1.2617-31.578-2.5273-10.105-1.2617-20.211-5.0508-30.316-7.5781 10.105 10.105 49.262 16.422 61.895 10.105z"/>
 <path d="m594.95 381.47c0-6.3164 1.2617-11.367 1.2617-16.422h1.2617c1.2617 5.0508 2.5273 10.105 3.7891 15.156 0-11.367-7.5781-22.738-2.5273-34.105 3.7891-11.367 10.105-21.473 13.895-30.316-13.891 8.8477-23.996 42.953-17.68 65.688z"/>
 <path d="m889.26 315.79c-24 7.5781-37.895 24-48 44.211 7.5781-7.5781 13.895-16.422 21.473-24 8.8438-7.5781 17.688-12.633 26.527-20.211z"/>
 <path d="m741.47 1047.2c-2.5273 18.949-7.5781 37.895-17.684 54.316 24-34.105 24-73.262 16.422-112.42 2.5273 18.949 3.7891 37.898 1.2617 58.105z"/>
 <path d="m890.53 361.26c-5.0508 20.211-11.367 40.422-27.789 56.844 17.684-15.156 29.051-32.844 27.789-56.844z"/>
 <path d="m923.37 549.47c1.2656-1.2617 1.2656-1.2617 0 0 2.5273-1.2617 6.3164-1.2617 6.3164-2.5273-7.5781-2.5273-13.895-5.0508-21.473-8.8438 7.5781 13.895 20.211 22.738 35.367 27.789-6.3164-5.0469-12.629-11.363-20.211-16.418z"/>
 <path d="m833.68 663.16c0 1.2617 1.2617 1.2617 1.2617 2.5273 18.949-8.8438 37.895-18.949 53.051-34.105-18.945 10.105-36.629 21.473-54.312 31.578z"/>
 <path d="m802.11 323.37c15.156-11.367 30.316-22.738 45.473-34.105-1.2617 0-2.5273-1.2617-3.7891-1.2617-16.422 8.8438-30.316 21.473-41.684 35.367z"/>
 <path d="m444.63 1028.2c-5.0508-12.633-12.633-27.789-16.422-44.211-3.7891-15.156-6.3164-31.578-8.8438-48 0 34.105 6.3164 66.949 25.266 92.211z"/>
 <path d="m712.42 1093.9c-7.5781 16.422-18.949 30.316-30.316 42.949 30.316-25.262 45.473-60.633 39.156-96 0 18.945-1.2617 36.629-8.8398 53.051z"/>
 <path d="m433.26 674.53c-6.3164 1.2617-10.105 5.0508-11.367 12.633 11.367-5.0508 21.473-7.5781 30.316-15.156-6.3164-0.003906-12.633 2.5234-18.949 2.5234z"/>
 <path d="m832.42 219.79c5.0508-2.5273 8.8438-6.3164 13.895-8.8438 12.633-6.3164 25.262-12.633 37.895-17.684 12.633-5.0508 26.527-8.8438 39.156-12.633-10.105 1.2617-18.949 3.7891-29.051 6.3164-24 7.5781-45.473 18.949-66.949 32.844h5.0547z"/>
 <path d="m370.11 213.47 1.2617-1.2617c-20.211-21.473-39.156-42.949-59.367-64.422l-1.2617 1.2617c20.211 21.477 39.156 42.949 59.367 64.422z"/>
 <path d="m255.16 531.79c16.422-2.5273 31.578-6.3164 48-8.8438-18.949-8.8438-32.844 5.0508-48 7.5781v1.2656z"/>
 <path d="m387.79 242.53s-1.2617 0-1.2617 1.2617c10.105 20.211 13.895 44.211 30.316 60.633-10.105-20.211-18.949-41.684-29.055-61.895z"/>
 <path d="m942.32 545.68c-15.156-3.7891-26.527-15.156-44.211-16.422 2.5273 5.0547 32.844 16.422 44.211 16.422z"/>
 <path d="m588.63 240c3.7891 22.738 7.5781 45.473 11.367 68.211h2.5273c-3.7891-22.738-7.5781-45.473-11.367-68.211h-2.5273z"/>
 <path d="m564.63 385.26c3.7891 8.8438 7.5781 16.422 12.633 25.262-2.5273-18.949-15.156-34.105-21.473-50.527-1.2656 8.8477 5.0508 16.426 8.8398 25.266z"/>
 <path d="m797.05 672c18.949 5.0508 36.633 2.5273 54.316-5.0508-8.8438 1.2617-17.684 2.5273-26.527 3.7891-10.102 1.2617-18.945 1.2617-27.789 1.2617z"/>
 <path d="m752.84 1139.4c24-8.8438 41.684-40.422 36.633-63.156 1.2617 27.789-15.16 46.738-36.633 63.156z"/>
 <path d="m843.79 819.79c-1.2617 0-1.2617 1.2617 0 0 8.8438 18.949 13.895 39.156 34.105 50.527-15.156-11.367-22.738-27.789-30.316-45.473-1.2617-1.2656-2.5273-3.793-3.7891-5.0547z"/>
 <path d="m851.37 646.74c17.684-7.5781 31.578-20.211 44.211-34.105-15.156 11.367-29.051 22.734-44.211 34.105z"/>
 <path d="m727.58 1026.9c-1.2617-24-10.105-45.473-21.473-66.949 3.7891 11.367 8.8438 22.738 12.633 34.105 2.5234 10.105 5.0508 21.473 8.8398 32.844z"/>
 <path d="m877.89 173.05c22.738-10.105 45.473-20.211 65.684-29.051-21.473 5.0508-45.473 15.156-65.684 29.051z"/>
 <path d="m594.95 987.79c18.949 13.895 32.844 31.578 37.895 55.578-2.5273-25.262-17.688-41.684-37.895-55.578z"/>
 <path d="m616.42 408c0-20.211 13.895-34.105 21.473-51.789-13.895 13.895-24 37.895-21.473 51.789z"/>
 <path d="m932.21 227.37c-18.949-1.2617-37.895-2.5273-55.578 1.2617-7.5781 1.2617-15.156 2.5273-22.738 3.7891v2.5273c25.262-6.3125 51.789-7.5781 78.316-7.5781z"/>
 <path d="m438.32 1077.5c10.105 16.422 20.211 32.844 30.316 49.262l1.2617-1.2617c-10.105-16.422-20.211-32.844-30.316-49.262 0 1.2617-1.2617 1.2617-1.2617 1.2617z"/>
 <path d="m162.95 89.684s1.2617-1.2617 0 0c1.2617-1.2617 0-1.2617 0 0z"/>
 <path d="m216 99.789c-12.633-7.5781-25.262-13.895-40.422-13.895-3.7891 0-7.5781 2.5273-11.367 3.7891 18.945-6.3164 35.367 5.0547 51.789 10.105z"/>
 <path d="m888 1095.2c-2.5273 10.105-5.0508 18.949-8.8438 29.051 11.367-18.949 13.895-39.156 12.633-59.367-1.2617 10.109-1.2617 20.211-3.7891 30.316z"/>
 <path d="m569.68 223.58c0-1.2617 0-1.2617-1.2617-1.2617l1.2617 1.2617z"/>
 <path d="m584.84 257.68c2.5273 6.3164 5.0508 12.633 7.5781 18.949h1.2617c-1.2617-5.0508-2.5273-10.105-5.0508-15.156-5.0508-12.633-10.105-25.262-18.949-35.367 0 1.2617 0 2.5273 1.2617 2.5273 3.793 8.8359 8.8438 18.941 13.898 29.047z"/>
 <path d="m587.37 927.16c3.7891 15.156 17.684 48 22.738 51.789-7.5781-16.418-15.156-34.102-22.738-51.789z"/>
 <path d="m932.21 394.11c-6.3164 7.5781-12.633 16.422-17.684 25.262 5.0508-3.7891 10.105-7.5781 13.895-12.633 3.7891-3.7852 6.3164-7.5781 3.7891-12.629z"/>
 <path d="m305.68 509.05c-8.8438 2.5273-16.422 3.7891-25.262 6.3164v2.5273c8.8438 0 17.684 0 25.262-6.3164 1.2656-1.2617 0-1.2617 0-2.5273z"/>
 <path d="m852.63 226.11-1.2617 1.2617c20.211-6.3164 40.422-12.633 61.895-13.895-20.215 0-40.422 3.7891-60.633 12.633z"/>
 <path d="m784.42 231.16c-8.8438 11.367-16.422 22.738-25.262 32.844l1.2617 1.2617c8.8438-11.367 16.422-22.738 25.262-32.844-1.2617 0.003906-1.2617-1.2617-1.2617-1.2617z"/>
 <path d="m967.58 1115.4c3.7891-13.895 5.0508-29.051 2.5273-42.949-1.2617 13.898-1.2617 29.055-2.5273 42.949z"/>
 <path d="m879.16 301.89c15.156 2.5273 29.051 5.0508 44.211 7.5781v-1.2617c-15.156-2.5273-29.051-5.0508-44.211-6.3164 1.2656 0 0 0 0 0z"/>
 <path d="m387.79 569.68v2.5273c12.633 2.5273 26.527 5.0508 39.156 7.5781v-1.2617c-13.895-3.7891-26.523-6.3164-39.156-8.8438z"/>
 <path d="m867.79 185.68c15.156-7.5781 29.051-13.895 44.211-21.473v-1.2617c-15.156 7.5781-29.051 13.895-44.211 21.473-1.2617 0-1.2617 0 0 1.2617z"/>
 <path d="m596.21 1100.2c1.2617-13.895 2.5273-26.527 5.0508-39.156-5.0508 12.629-7.5781 26.523-5.0508 39.156z"/>
 <path d="m961.26 90.949c13.895-3.7891 27.789-7.5781 40.422-10.105-6.3164-1.2656-32.84 5.0508-40.422 10.105z"/>
 <path d="m894.32 414.32c-1.2617 0-1.2617-1.2617-2.5273-1.2617-3.7891 6.3164-7.5781 12.633-11.367 20.211l1.2617 1.2617c3.7891-7.5781 7.5781-13.895 12.633-20.211z"/>
 <path d="m697.26 300.63c-1.2617 8.8438-1.2617 18.949-2.5273 29.051 3.793-8.8398 3.793-18.945 2.5273-29.051z"/>
 <path d="m385.26 961.26c2.5273 8.8438 3.7891 16.422 6.3164 25.262h2.5273c-2.5273-8.8438-3.7891-16.422-6.3164-25.262-1.2617-1.2617-1.2617 0-2.5273 0z"/>
 <path d="m889.26 389.05s-1.2617 0-1.2617-1.2617c-3.7891 8.8438-6.3164 17.684-10.105 26.527h1.2617c3.793-7.5781 7.582-16.422 10.105-25.266z"/>
 <path d="m738.95 387.79c-6.3164 7.5781-11.367 13.895-17.684 21.473l1.2617 1.2617c6.3164-7.5781 11.367-13.895 17.684-21.473l-1.2617-1.2617z"/>
 <path d="m939.79 574.74c-6.3164-8.8438-11.367-12.633-17.684-13.895 6.3164 5.0508 11.367 8.8398 17.684 13.895z"/>
 <path d="m362.53 594.95s0-1.2617 1.2617-1.2617c-8.8438-3.7891-16.422-8.8438-25.262-12.633 0 0 0 1.2617-1.2617 1.2617 7.5781 3.7891 16.418 7.5781 25.262 12.633z"/>
 <path d="m851.37 296.84s-1.2617 0 0 0c-8.8438 5.0508-15.156 11.367-22.738 17.684l1.2617 1.2617c7.582-5.0508 13.898-12.633 21.477-18.945z"/>
 <path d="m870.32 156.63c7.5781-6.3164 13.895-11.367 21.473-17.684 0 0 0-1.2617-1.2617-1.2617-1.2617 1.2617-3.7891 2.5273-5.0508 3.7891-5.0508 3.7891-8.8438 6.3164-13.895 10.105-0.003906 2.5234-1.2656 3.7852-1.2656 5.0508z"/>
 <path d="m642.95 653.05c2.5273-6.3164 5.0508-11.367 7.5781-17.684-6.3164 3.7891-8.8438 12.633-7.5781 17.684z"/>
 <path d="m957.47 108.63c-8.8438 3.7891-16.422 7.5781-25.262 10.105v1.2617c8.8398-3.7891 17.684-7.5781 25.262-11.367z"/>
 <path d="m646.74 300.63h-1.2617c0 7.5781-1.2617 13.895-1.2617 21.473h1.2617c1.2617-6.3164 1.2617-13.895 1.2617-21.473z"/>
 <path d="m837.47 286.74c-5.0508 2.5273-10.105 6.3164-15.156 8.8438 0 0 0 1.2617 1.2617 1.2617 5.0508-2.5273 10.105-5.0508 15.156-8.8438-1.2617 0-1.2617-1.2617-1.2617-1.2617z"/>
 <path d="m924.63 114.95c-6.3164 3.7891-12.633 7.5781-17.684 11.367 0 0 0 1.2617 1.2617 1.2617 5.0508-5.0508 11.367-8.8398 16.422-12.629z"/>
 <path d="m893.05 919.58c-2.5273-6.3164-6.3164-11.367-10.105-16.422l-1.2617 1.2617c3.7891 5.0547 7.5781 10.109 11.367 15.16z"/>
 <path d="m851.37 227.37c-1.2617 0-1.2617 1.2617-2.5273 1.2617 1.2656-1.2617 2.5273-1.2617 2.5273-1.2617z"/>
 <path d="m848.84 228.63c-6.3164 2.5273-13.895 6.3164-20.211 8.8438h3.7891c5.0508-2.5273 11.367-6.3203 16.422-8.8438z"/>
 <path d="m919.58 202.11v0c-8.8438 1.2617-16.422 2.5273-24 3.7891v1.2617c8.8438-2.5234 16.422-3.7891 24-5.0508z"/>
 <path d="m851.37 688.42c7.5781-1.2617 15.156-1.2617 22.738-2.5273v-1.2617c-8.8438 1.2617-15.156 2.5234-22.738 3.7891z"/>
 <path d="m692.21 882.95c-1.2617 0-1.2617 0 0 0 1.2617 6.3164 2.5273 12.633 5.0508 18.949h1.2617c-2.5234-6.3203-5.0508-12.637-6.3125-18.949z"/>
 <path d="m850.11 197.05s0 1.2617 1.2617 1.2617c5.0508-3.7891 8.8438-6.3164 13.895-10.105 0 0 0-1.2617-1.2617-1.2617-3.7891 5.0547-8.8438 7.582-13.895 10.105z"/>
 <path d="m583.58 233.68c1.2617 5.0508 2.5273 11.367 3.7891 16.422h1.2617c-1.2617-5.0508-2.5273-11.367-3.7891-16.422h-1.2617z"/>
 <path d="m877.89 198.32v0c6.3164-1.2617 12.633-2.5273 18.949-5.0508v-1.2617c-6.3164 3.7852-12.633 5.0469-18.949 6.3125z"/>
 <path d="m473.68 712.42c0 5.0508-7.5781 5.0508-7.5781 0 0-5.0547 7.5781-5.0547 7.5781 0z"/>
 <path d="m501.47 716.21c0 5.0508-7.5781 5.0508-7.5781 0 0-5.0547 7.5781-5.0547 7.5781 0z"/>
 <path d="m477.47 738.95c0 5.0508-7.5781 5.0508-7.5781 0 0-5.0547 7.5781-5.0547 7.5781 0z"/>
 <path d="m467.37 737.68c0 5.0547-7.5781 5.0547-7.5781 0 0-5.0508 7.5781-5.0508 7.5781 0z"/>
 <path d="m709.89 726.32c0 2.5273 1.2617 3.7891 3.7891 3.7891s3.7891-1.2617 3.7891-3.7891-1.2617-3.7891-3.7891-3.7891-3.7891 2.5234-3.7891 3.7891z"/>
 <path d="m697.26 725.05c0 5.0547-7.5781 5.0547-7.5781 0 0-5.0508 7.5781-5.0508 7.5781 0z"/>
 <path d="m689.68 751.58c0 5.0547-7.5781 5.0547-7.5781 0 0-5.0508 7.5781-5.0508 7.5781 0z"/>
 <path d="m706.11 741.47c0 5.0547-7.5781 5.0547-7.5781 0 0-5.0508 7.5781-5.0508 7.5781 0z"/>
</svg>
