<?xml version="1.0" encoding="UTF-8"?>
<svg width="1200pt" height="1200pt" version="1.1" viewBox="0 0 1200 1200" xmlns="http://www.w3.org/2000/svg">
 <path d="m984.93 154.88c-0.1875-0.09375-0.46094-0.23437-0.69531-0.32812-0.36328 0.070312-0.68359 0.28906-0.88281 0.60156-0.40625 2.3867-0.078124 4.8438 0.9375 7.0391 1.3672 1.0352 3.1602 1.3125 4.7734 0.74219-0.19922-1.0273-0.49219-2.0352-0.88281-3.0078-0.55469-1.4609-1.3203-2.8359-2.2656-4.0781-0.375-0.27344-0.70703-0.59766-0.98437-0.96875zm29.691-35.156c0.17969 0-0.09375 0.23438-0.23438 0.32813h-0.003907c-0.078124 0.11328-0.14062 0.23828-0.1875 0.36719-0.21094 0.52734-0.27344 1.1055-0.1875 1.668 0.085938 1.0312 0.32031 2.0469 0.69531 3.0117 1.2578 2.3633 2.0898 3.3359 3.9844 2.8789v-0.003907c0.42969-0.089843 0.86328-0.13672 1.3047-0.14062 0.38672-2.0156-0.015626-4.1055-1.1172-5.8398-0.60938-1.1211-1.6406-1.957-2.8672-2.3164-0.45312-0.15234-0.94922-0.13672-1.3906 0.046874zm49.227-21.898c0.69922 2.0039 0.15625 4.2305-1.3867 5.6914-6.6758 6.6758-13.125 13.621-19.5 20.699 4.4141 0.31641 8.5234 2.3672 11.438 5.6992 2.7578 3.1445 4.5273 7.0312 5.0859 11.176 0.5625 4.1406-0.11328 8.3594-1.9375 12.121-2.3867 3.582-6.0898 6.0703-10.305 6.9297-4.2148 0.85938-8.5977 0.015625-12.195-2.3438-4.5-3.1641-7.9492-7.6016-9.9102-12.742-4.4922 5.4609-8.9102 11.008-13.246 16.633 5.3828 0.53906 10.52 2.5234 14.867 5.7383 5.625 4.2656 10.555 12.602 5.5586 19.359h0.003906c-2.6211 3.9922-6.582 6.918-11.164 8.25-4.5859 1.332-9.4961 0.98828-13.852-0.97656-4.8359-3.375-8.1602-8.5117-9.2617-14.305-2.2695 3.0547-4.5391 6.0664-6.7578 9.0742-3.0078 4.1172-5.8398 8.1484-8.5234 11.945v-0.003906c4.0352 0.32812 7.8906 1.8047 11.109 4.2617 3.2188 2.4531 5.6602 5.7812 7.043 9.5859 1.7344 3.8281 1.7812 8.207 0.13672 12.07-1.6484 3.8672-4.8398 6.8633-8.8008 8.2656-3.6562 1.418-7.6758 1.5898-11.438 0.48438-3.7617-1.1055-7.0508-3.4258-9.3555-6.5977-1.7695-3.0273-2.9023-6.3828-3.3281-9.8633-7.9219 8.3438-18.113 14.188-29.316 16.809-0.1875 0-0.375 0-0.5625 0.09375-1.5469 4.0742-3.9414 7.7695-7.0312 10.84h-0.046875c-0.24219 0.69141-0.62109 1.332-1.1172 1.875-20.242 23.391-37.379 50.203-55.668 75.121-37.238 50.664-74.426 101.38-111.56 152.14-29.742 40.52-59.555 80.965-89.438 121.33 1.7656 6.5195 0.33984 13.492-3.8438 18.797-13.293 19.547-23.25 39.93-9.6836 62.992 17.926 30.422 51.562 26.766 78.133 43.125 53.672 33.02-12.918 91.875-41.773 113.32-33.113 24.637-45.805 53.352-52.145 93.508-5.3828 34.273-9.5898 67.895-24.777 99.57-28.621 59.699-75.938 121.15-145.24 132.19-97.855 15.656-187.75-74.336-257.73-129.17-40.715-31.875-75.816-69.188-83.23-122.68l-0.003906-0.003906c-6.457-49.023 4.9922-98.734 32.238-140 13.137-22.148 30.508-41.488 51.125-56.914 23.625-16.164 50.023-23.25 76.332-33.57 59.418-23.203 92.25-69.055 126.05-119.62 21.957-32.812 47.887-67.023 88.828-75.215 42.008-8.3828 88.508 20.559 118.79 48.582 27.562-35.707 55.102-71.414 82.621-107.12 56.09-72.898 112.73-145.43 168.21-218.79v-0.003907c0.41797-1.2969 1.2461-2.4219 2.3633-3.1992 1.2695-3.0781 2.9883-5.9492 5.1016-8.5195 0.48828-0.61328 1.1367-1.0781 1.875-1.3438 0.60938-6.8516 0.69531-15.328 0.69531-19.688h-0.003906c-0.011719-0.60547 0.050781-1.2148 0.1875-1.8086-0.050781-1.4805 0.5-2.918 1.5273-3.9844 0.28125-0.32031 0.55469-0.69531 0.88281-1.0586-4.043 0.61719-8.1758 0-11.855-1.7773-3.6836-1.7773-6.7422-4.6289-8.7695-8.1797-4.5391-9.4492 2.9141-20.336 11.109-24.965 2.9023-2.0898 6.5742-2.8125 10.055-1.9766 3.4766 0.83594 6.4219 3.1445 8.0586 6.3281 2.0703 4.7812 3.5781 9.7852 4.4883 14.914 5.793-7.2734 11.25-14.773 16.668-22.367h0.003907c-6.8047-1.0977-13.102-4.2852-18.012-9.125-6.207-7.3203 0-19.922 7.0391-24.375h0.003907c3.3281-2.5078 7.6367-3.332 11.66-2.2305 4.0195 1.0977 7.3086 4 8.8984 7.8555 1.2031 3.2344 1.8359 6.6484 1.875 10.098 0.32031-0.09375 0.69531-0.14062 1.0117-0.23438 4.9141-7.2617 9.7891-14.551 14.633-21.863v-0.45703c-5.6289-0.58203-11.09-2.2656-16.066-4.9609-4.5469-2.3047-7.6484-6.7148-8.2891-11.77-0.64062-5.0547 1.2656-10.102 5.0898-13.469 6.2539-5.0898 19.312-9.375 25.66-1.8008v0.003907c2.7852 3.7148 4.5703 8.082 5.1836 12.684 0.67969-0.26953 1.4102-0.39453 2.1406-0.36719 6.7578-9.8711 13.707-19.594 21.02-28.949h-0.003906c0.91797-1.3359 2.4609-2.1055 4.0781-2.0352 2.2617-0.40625 4.5195 0.74219 5.5156 2.8125 14.586 26.812 46.312 35.805 70.117 51.562h-0.003906c1.9883 1.2461 3.0195 3.5703 2.6172 5.8789zm-16.211 49.133c0.74219-2.8672 0.14062-8.4375-2.8125-10.191v0.003907c-3.0586-1.3867-6.5156-1.5977-9.7227-0.60156 0.007813 0.21875 0.042969 0.43359 0.09375 0.64844 0.26953 4.0938 2.1914 7.9062 5.3281 10.555 1.5547 1.2578 6.2812 2.625 7.1133-0.41406zm-16.727-26.117c6.3477-7.5 12.883-14.727 19.688-21.77-22.5-13.848-49.18-23.758-64.977-45.617-4.6328 6.1641-9.168 12.414-13.613 18.75 2.7109 1.793 4.8633 4.3086 6.207 7.2656 1.5156 3.5 1.6367 7.4414 0.34766 11.031-1.2891 3.5859-3.8984 6.5469-7.293 8.2812-5.5273 2.7109-11.969 2.8477-17.605 0.375-2.8125 4.2109-5.625 8.3828-8.3828 12.555v-0.003906c3.1445 1.2852 5.8945 3.3789 7.9688 6.0664 2.2539 3.207 3.2383 7.1328 2.7695 11.023-0.47266 3.8906-2.3672 7.4688-5.3203 10.043-2.5859 2.0859-5.7773 3.2812-9.0977 3.4102-3.3203 0.125-6.5938-0.82422-9.332-2.707-1.3867-1.0234-2.6328-2.2227-3.7031-3.5703-2.3164 3.3359-4.6328 6.6289-7.0391 9.8633l-0.003906-0.003906c4.8359 2.832 8.0078 7.8203 8.5234 13.398s-1.6914 11.062-5.9258 14.727c-3.2148 2.8477-7.6055 3.9609-11.789 2.9961-4.1836-0.96484-7.6406-3.8945-9.2852-7.8594-1.3398 1.5742-2.6445 3.1953-4.0312 4.7734 0 4.7734-0.09375 13.527-0.78906 20.336 0 0.09375-0.046874 0.22656-0.046874 0.32031v-0.003906c12.234 5.8945 23.113 14.254 31.961 24.551 1.9609 1.6953 3.8164 3.5039 5.5586 5.418 7.9062-2.0898 15.215-5.9922 21.348-11.398-3.9062-1.1328-7.375-3.4219-9.957-6.5625-2.6758-2.7148-4.2539-6.3242-4.4297-10.133-0.17188-3.8086 1.0703-7.5469 3.4922-10.492 3.0078-3.2891 7.2344-5.1992 11.688-5.2852 4.457-0.089844 8.7539 1.6523 11.891 4.8164 2.0898 2.6484 3.6602 5.668 4.6328 8.8984 4.9023-6.5625 9.582-13.434 14.117-20.008-5.3047 1.1523-10.777-1.0625-13.789-5.5781-2.1523-3.1055-3.3203-6.7852-3.3438-10.562-0.027344-3.7773 1.0898-7.4727 3.2031-10.605 2.3242-2.8516 5.7734-4.543 9.4492-4.6406s7.2109 1.4102 9.6836 4.1328c3.0391 3.3555 5.2305 7.3906 6.3867 11.766 5.1445-6.5391 10.301-13.023 15.469-19.453-5.4609-1.2227-9.918-5.1562-11.805-10.426-1.457-3.1367-1.8516-6.6641-1.125-10.047 0.72656-3.3828 2.5312-6.4375 5.1484-8.7031 3.5547-2.1562 7.8398-2.7578 11.852-1.6641 4.0117 1.0977 7.3984 3.793 9.3633 7.4609 0.83594 1.5273 1.4844 3.1523 1.9414 4.8359zm-8.2891 59.418h0.003906c-0.054688-0.50391-0.24609-0.98438-0.55469-1.3867-1.1875-1.3633-2.6172-2.4922-4.2188-3.3359-2.7578-1.5117-5.8359-2.3359-8.9805-2.4102-0.17578 3.9961 1.3203 7.8906 4.125 10.742 2.543 1.9961 8.4297-1.0586 9.6289-3.6094zm-36.816 44.062c4.5859-0.375 5.625-2.2227 3.8438-6.6289h0.003906c-2.0469-3.7695-6.1523-5.957-10.426-5.5469 0 5.3516 0.60938 12.664 6.582 12.203zm-21.023-135.39c4.6328-1.668 3.2422-4.9492 0.46094-6.9922-1.6133 2.4102-3.2344 4.8203-4.8555 7.1797h0.09375-0.003907c1.4258 0.32812 2.9141 0.26172 4.3047-0.1875zm-0.78906 113.1c0.16016-2.9727-0.72266-5.9102-2.5-8.2969-1.293-1.4805-1.875-1.8008-3.8906-1.1992-1.1328 0.24219-2.1836 0.76953-3.0586 1.5273-0.46094 0.88281-0.50781 0.88281 0 2.3633 0.49219 1.332 1.3047 2.5234 2.3633 3.4688 1.875 1.8242 4.5195 2.6211 7.0859 2.1367zm-15.938-125.51c-0.50781-3.4688-1.2852-6.8906-2.3125-10.238-1.3047-3.75-6.0664-2.5391-8.9922-0.60156-6.207 4.0781-0.64844 7.7344 3.9844 9.1211v0.003907c2.3945 0.76562 4.8438 1.3398 7.332 1.7148zm-5.1484 53.68c4.0312-3.9375-0.085938-7.4141-4.5859-8.25-0.46094 0.65625-0.9375 1.3516-1.3867 2.043h0.003906c0.015625 0.23828-0.015625 0.47266-0.09375 0.69531-0.24219 1.0391-0.21094 2.125 0.09375 3.1484 0.37109 0.82812 0.98828 1.5195 1.7617 1.9883 0.78125 0.65234 1.8047 0.94141 2.8125 0.78906 0.48047-0.10547 0.94922-0.24219 1.4062-0.41406zm-16.621 104.06c0.74219-1.6211-0.046875-2.8125-2.8125-5.3711-3.6172-3.3828-6.8633-7.0859-10.379-10.602h0.003906c-5.8086-6.3477-13.215-11.02-21.441-13.531-0.17578 0.30469-0.33203 0.61719-0.46875 0.9375 6.6367 3.7031 12.988 7.8984 18.992 12.555 5.6914 5.0352 10.004 11.438 16.117 15.965zm-6.7578-117.91c0-3.5234 1.5273-15.797-4.9609-14.867h0.003906c-3.0781 0.53906-5.5781 2.7852-6.4414 5.7852-0.51953 1.4297-0.40234 3.0156 0.32812 4.3516 0.72656 1.3398 1.9922 2.3008 3.4766 2.6406 2.457 0.92969 5.5117 1.3984 7.6055 2.043zm-2.9609 48.75c1.6289-1.3438 2.3398-3.5039 1.8242-5.5547s-2.1641-3.6211-4.2344-4.0352c-0.88281 1.1172-1.7148 2.3164-2.5977 3.4297v0.003906c0.11328 2 0.80469 3.9297 1.9883 5.5469 1.0781 1.2773 1.9141 1.6875 3.0273 0.50781zm2.6797 78.449c-5.7461-4.5391-9.9102-10.379-15.469-15.328v0.003906c-5.9492-4.7578-12.266-9.0352-18.891-12.789-6.6289 8.7109-13.246 17.371-19.875 26.082 13.051 6.8086 25.242 15.156 36.309 24.863 5.8047-7.8945 11.73-15.547 17.938-22.906zm-39.375-91.742c2.457 3.7031 7.5 3.75 12.188 3.4688-0.83594-3.1484-1.3398-6.3359-2.2695-9.4414-0.33203-1.5781-0.91016-3.0977-1.7148-4.5-0.050781-0.09375-0.12891-0.17188-0.22266-0.22266-3.0938 1.0312-10.352 7.0117-7.9609 10.621zm-5.3047 151.94c6.6641-9.2617 13.246-18.75 19.961-28.125h-0.003906c-10.668-9.7812-22.695-17.969-35.707-24.309-0.32422-0.15625-0.63672-0.32812-0.9375-0.51562-6.6758 8.75-13.359 17.5-20.055 26.25 12.906 7.8867 25.168 16.773 36.676 26.586 0.019531 0.11328 0.019531 0.11328 0.066406 0.11328zm-23.992 32.812c5.7461-7.8281 11.438-15.602 17.184-23.383-12.32-8.7578-22.93-21.262-37.238-26.68-5.7461 7.5-11.484 15-17.277 22.5 9.8828 12.234 25.566 17.465 37.332 27.609zm-21.441 29.223 14.539-19.82c-11.578-10.555-27.234-15.656-37.648-27.602-5.2305 6.8047-10.52 13.613-15.75 20.418v0.003906c13.02 7.6523 25.492 16.195 37.332 25.566 0.59375 0.39453 1.1133 0.89844 1.5273 1.4805zm-20.934 28.539c4.7734-6.4883 9.543-12.977 14.258-19.453l0.003907-0.003906c-0.25781-0.125-0.50391-0.26563-0.74219-0.42188-12.918-8.2422-24.168-20.887-38.805-26.164-4.3125 5.625-8.6211 11.195-12.93 16.715h0.003906c11.191 11.652 24.074 21.551 38.211 29.371zm-20.523 27.965c4.5-6.1602 9.0391-12.32 13.527-18.477l0.003906-0.003906c-14.141-7.9531-27.082-17.871-38.438-29.457-4.6875 6.0742-9.375 12.188-14.062 18.254 13.707 7.6875 23.438 20.934 37.379 28.387 0.60937 0.34375 1.1484 0.80078 1.5938 1.3438zm-16.668 22.742c3.3359-4.4922 6.6289-9.0273 9.957-13.574-0.28516-0.082031-0.56641-0.19141-0.83203-0.32031-14.398-7.6875-24.309-21.562-38.672-29.129-3.9375 5.0859-7.8555 10.18-11.758 15.281 15.102 7.0898 29.031 16.445 41.305 27.742zm-12.684 17.316c1.9414-2.6328 3.8828-5.2773 5.7852-7.9141-0.11328-0.10156-0.23828-0.19531-0.36719-0.28125-11.914-11.324-25.707-20.492-40.762-27.094-0.21094-0.082032-0.41016-0.19141-0.59766-0.31641-2.0352 2.6328-4.0781 5.2773-6.1133 7.8672-1.1172 1.4805-2.2227 2.9258-3.3359 4.3594l-0.003906-0.003906c12.781 10.965 26.496 20.793 40.988 29.363 1.4805-1.9961 2.918-3.9844 4.4062-5.9805zm-20.625 28.07c3.1016-4.2109 6.207-8.4375 9.2617-12.648-14.516-8.6914-28.273-18.586-41.125-29.59-3.1406 4.1172-6.3359 8.1953-9.4883 12.273 15.289 7.875 26.633 21.207 41.363 29.961zm-29.578 321.27c17.598-14.539 61.594-61.18 23.945-79.52-18.898-9.2148-40.023-11.625-58.125-23.016-18.137-11.027-30.066-29.91-32.23-51.027-0.91797-6.8906-0.22266-13.898 2.0312-20.477-10.004 14.504-20.148 30.43-31.633 44.062h0.003906c12.348 10.934 19.215 26.773 18.75 43.258 1.293 0.14453 2.4922 0.75391 3.375 1.7148 23.062 24.086 17.738 61.18 9.5898 90.676-8.0156 28.949-16.762 65.906-50.016 75.262-14.238 4.9922-29.965 3.3242-42.844-4.5352-8.9648-6.75-18.512-12.688-28.527-17.738-8.5234-3.75-18.57-5.5117-26.859-9.8633-29.598-15.375-4.6875-41.316 12.273-57.664-2.0352-0.78906-4.0781-1.6211-6.1133-2.5391-40.527-18.617-74.793-62.438-63.543-109.54h-0.003907c5.8242-26.465 23.312-48.867 47.57-60.938 22.875-10.367 44.867-9.375 69.328-5.6914 0.32031 0.042969 0.63281 0.12109 0.9375 0.23438 12.684-16.172 24.684-33.027 37.133-49.145 8.7578-11.25 17.418-22.602 26.176-33.898-32.605-30.336-87.441-63.309-130.88-39.133-33.75 18.844-53.812 53.531-74.195 85.078-22.188 37.016-53.402 67.801-90.723 89.477-44.512 24.168-94.801 29.773-128.71 71.176-37.922 46.312-63.488 109.69-48.066 169.92s61.594 92.445 107.72 129.21c85.312 67.941 208.5 159.38 303.39 52.848l0.003906-0.003907c26.145-28.203 46.379-61.352 59.512-97.5 7.1055-25.09 12.262-50.695 15.422-76.582 2.8906-25.512 11.52-50.035 25.238-71.738 12.551-17.812 33.629-28.715 50.07-42.375zm15.629-302.29 7.0391-9.5352c-14.633-8.9922-26.07-22.5-41.633-30-2.6797 3.4688-5.3711 6.9922-8.1016 10.461v0.003906c13.605 10.359 27.75 19.992 42.375 28.855 0.085937 0.097656 0.19922 0.17188 0.32031 0.21484zm-14.727 20.062c2.5977-3.5703 5.1953-7.0859 7.7812-10.613v0.003906c-14.754-9.0547-29.035-18.855-42.789-29.363-2.9609 3.8438-5.9453 7.6875-8.9453 11.531 15.969 7.2539 30.773 16.84 43.922 28.441zm-17.812 24.074c3.6172-4.9023 7.2734-9.7695 10.883-14.68-12.707-11.52-27.207-20.887-42.93-27.738-0.46484-0.19141-0.91406-0.42188-1.3398-0.69531-2.8125 3.6562-5.625 7.3203-8.4375 10.977 12.852 12.062 26.859 22.828 41.824 32.141zm-14.117 19.133c2.3633-3.2422 4.7734-6.4883 7.1328-9.7305v0.003906c-14.992-9.4375-29.066-20.254-42.039-32.316-2.8125 3.6094-5.5117 7.1797-8.2891 10.742l0.22656 0.23437c10.82 14.074 29.391 20.047 42.965 31.07zm-13.48 18.195c2.1758-3.0078 4.4062-5.9727 6.6289-8.9336-0.28125-0.1875-0.51563-0.32813-0.78906-0.51563-13.715-11.391-30.664-17.457-42.656-30.75l-7.9219 10.312c7.6406 5.9258 16.117 10.461 23.945 16.164 6.6289 4.9023 11.578 12.133 18.383 16.668l-0.003906 0.003906c0.48047-1.207 1.3203-2.2344 2.4102-2.9453zm-15.883 21.488c2.2227-3.0078 4.4453-6.0664 6.6641-9.0742-7.3594-5.1367-12.508-12.824-20.148-17.879-7.6406-5.0547-15.375-9.6289-22.5-15.188-2.6328 3.375-5.2305 6.8047-7.8672 10.191l0.003906 0.003906c15.469 9.4258 30.137 20.109 43.844 31.949zm-11.438 16.07c1.5312-2.2695 3.0586-4.4922 4.5859-6.6641l-0.09375-0.09375h-0.003906c-13.746-11.895-28.488-22.586-44.062-31.957-2.1758 2.8789-4.3594 5.7461-6.4883 8.6172 14.773 9.7773 30.477 18.113 44.738 28.762 0.48438 0.39844 0.92969 0.84766 1.3203 1.3398zm-2.2305 180c4.9609-21.863 9.6836-48.629-3.7969-68.035l-0.003906 0.003906c-1.2539 13.98-6.5273 27.301-15.188 38.352-11.629 12.949-26.609 22.434-43.293 27.395-16.68 4.9648-34.41 5.2188-51.227 0.73047-10.312 9.168-42.336 36.309-16.031 44.738 8.168 2.2227 16.133 5.1367 23.805 8.7109 25.434 13.199 52.566 38.344 79.566 10.883 15.102-15.375 21.449-42.102 26.164-62.801zm-10.09-161.79c2.0352-2.9609 4.0234-5.9336 6.0195-8.8984-0.33203-0.14844-0.64844-0.33594-0.9375-0.55469-14.539-10.883-30.703-19.359-45.805-29.504-1.5742 2.1289-3.1016 4.2188-4.6875 6.3008 14.238 12.086 30.305 21.648 45.41 32.656zm-14.867 20.559c2.8125-3.6094 5.5117-7.2656 8.1953-11.023-15.234-10.969-31.352-20.793-45.758-32.879-2.1758 2.8672-4.3984 5.7461-6.6172 8.6172l-0.007812-0.003906c13.941 12.719 28.699 24.508 44.184 35.289zm-10.145 111.56c18.75-18.43 32.371-70.586 5.3242-88.273-2.2227 2.2695-4.4453 4.4922-6.7578 6.5625l-0.003906-0.003907c-0.49609 0.4375-1.0625 0.79297-1.668 1.0625 2.7266 32.418 2.5977 64.52-29.457 83.129-25.66 15-63.816 1.3984-81.328-20.137-22.734-27.977-27.133-57.711-5.5039-87.441 11.484-15.75 36.395-33.488 56.41-24.918v-0.003906c0.15625-0.28125 0.33984-0.54688 0.55469-0.78516 3.8438-4.2578 7.5-8.6172 11.156-13.059-21.16-2.9609-43.621-4.0781-62.242 8.6172-20.699 14.129-37.695 35.887-37.145 62.289l0.003907-0.003907c0.32812 17.484 5.6367 34.512 15.301 49.09 9.6602 14.574 23.277 26.098 39.25 33.211 30.387 13.875 70.539 15.863 96.105-9.375zm-5.1836-94.199c2.6797-2.6445 5.2773-5.3711 7.7812-8.25h-0.003906c-15.215-11.023-29.855-22.816-43.863-35.336-3.375 4.2188-6.8516 8.2891-10.367 12.32h-0.003907c15.629 8.1797 30.465 17.793 44.316 28.715 0.9375 0.61719 1.6797 1.4883 2.1367 2.5117zm-20.289 76.508c16.715-21.496 12.367-45.57 10.004-70.539-15-10.473-29.062-23.109-46.727-28.762-0.23438-0.09375-0.46875-0.23438-0.70312-0.32031v0.003906c-0.87109-0.11719-1.7031-0.41797-2.4453-0.88281-18.992-11.531-45.348 16.996-52.199 31.305-12.414 25.801 1.6211 58.633 25.613 73.039 19.59 11.766 50.199 16.969 66.457-3.8828z"/>
 <path d="m541.53 980.04c1.7617 1.1992-20.746 34.688-50.336 74.887-30.617 39.273-56.785 69.977-58.5 68.68-1.7148-1.293 21.723-34.227 52.293-73.453 29.449-39.965 54.789-71.398 56.543-70.113z"/>
 <path d="m529.07 904.17c2.4727 1.6953 3.3242 4.9531 1.9961 7.6406-6.3672 12.566-15.238 23.695-26.074 32.699-0.83594 0.76953-1.8828 1.2695-3.0078 1.4336-1.7539 1.207-4.0664 1.2266-5.8398 0.046876-13.52-8.2422-25.051-19.219-40.754-23.344-9.6055-2.1992-18.914-5.5273-27.742-9.9062-22.105-12.316-41.672-28.727-57.656-48.348-9.5898-11.578-13.023-22.098-26.129-30.938-3.3281-2.2695-8.6055-5.1953-9.6758-9.4492-4.125-16.539 7.9688-27.602 16.398-40.707 1.4648-2.3633 4.4102-3.3359 6.9961-2.3164 1.7031-0.22656 3.4062 0.41406 4.5352 1.707 24.449 25.566 57.984 38.812 86.25 59.465 26.766 19.641 50.625 44.418 79.473 61.039 0.44531 0.28125 0.85547 0.60938 1.2305 0.97656zm-30 29.867c7.5391-6.6367 14.004-14.398 19.172-23.016-32.043-19.586-57.562-48.629-89.477-68.352-24.637-15.234-50.898-28.258-71.738-48.629-6.7109 8.6172-17.879 23.383-7.3125 29.316 4.7969 2.5312 9.3281 5.5391 13.52 8.9805 5.418 4.5391 7.5 13.012 11.484 18.664v0.003906c20.805 28.496 50.129 49.645 83.738 60.391 14.562 5.5664 28.25 13.191 40.648 22.641z"/>
 <path d="m520.69 1076.5c1.5273 1.4805-7.5 13.707-20.418 27.367-13.293 13.848-26.07 21.957-27.422 20.477-1.5742-1.668 9.168-12.742 21.816-25.895 12.777-13.523 24.496-23.477 26.023-21.949z"/>
 <path d="m493.69 522.28c1.7617 1.5273-18.523 29.41-43.023 64.32-24.496 35.062-46.359 61.969-48.074 60.723-1.7148-1.2461 17.277-30.242 41.68-65.258 24.641-35.055 47.918-61.043 49.418-59.785z"/>
 <path d="m431.02 858.93c24.133 16.48 42.984 31.164 41.727 32.973s-21.945-9.9102-46.219-26.492c-24.375-16.875-41.68-33.16-40.426-34.781 1.3906-1.8789 21.023 11.809 44.918 28.301z"/>
 <path d="m459.98 893.66c2.1094 2.3008 2.0352 5.8594-0.16797 8.0742-2.2031 2.2148-5.7578 2.3086-8.0742 0.21094-0.42188-0.375-0.78906-0.78906-1.1641-1.1641v0.003906c-2.1094-2.3047-2.0352-5.8633 0.16797-8.0781 2.2031-2.2148 5.7578-2.3086 8.0742-0.21094z"/>
 <path d="m442.6 888.66c2.1133 2.3047 2.0391 5.8594-0.16406 8.0742-2.2031 2.2188-5.7578 2.3086-8.0742 0.21484-0.50781-0.55469-1.0234-1.0586-1.5742-1.5664-2.1562-2.3086-2.0898-5.9102 0.14844-8.1367 2.2383-2.2266 5.8398-2.2773 8.1367-0.11328z"/>
 <path d="m430.85 879.38c5.3242 4.2188-0.32812 13.48-6.4883 9.6367-1.1406-0.75-2.1172-1.7266-2.8672-2.8672-0.79297-1.3398-1.0195-2.9375-0.62891-4.4414s1.3672-2.7891 2.707-3.5742c2.4062-1.4062 5.4766-0.88281 7.2773 1.2461z"/>
 <path d="m418.29 871.66c1.1016 1.0977 1.7227 2.5898 1.7227 4.1445 0 1.5547-0.62109 3.043-1.7227 4.1406-2.293 2.2305-5.9453 2.2305-8.2383 0-0.42188-0.32031-1.4336-1.0586-1.5742-1.1523h-0.003907c-2.2734-2.293-2.2734-5.9922 0-8.2852 2.2852-2.1367 5.8164-2.1758 8.1484-0.09375 0.32812 0.23438 1.5 1.1523 1.668 1.2461z"/>
 <path d="m407.5 861.24c2.2227 2.3164 2.2227 5.9727 0 8.2891-1.0977 1.1016-2.5898 1.7188-4.1445 1.7188s-3.0469-0.61719-4.1445-1.7188c0-0.09375-1.1172-1.1641-0.32812-0.64844-2.7422-1.6484-3.6797-5.1719-2.1289-7.9688 0.78125-1.3438 2.0664-2.3242 3.5664-2.7227 1.5039-0.40234 3.1055-0.1875 4.4492 0.59766 1.0156 0.69141 1.9336 1.5195 2.7305 2.4531z"/>
 <path d="m395.55 851.98c2.2891 2.2891 2.2891 6 0 8.2891-2.2891 2.2891-6 2.2891-8.2891 0-0.23438-0.28125-0.50781-0.50781-0.78906-0.78906h0.003906c-2.0977-2.3164-2.0039-5.8711 0.21094-8.0742s5.7695-2.2773 8.0742-0.16406c0.23438 0.22266 0.51562 0.50391 0.78906 0.73828z"/>
 <path d="m294.54 729.95c-5.2031 7.7695-11.449 14.781-18.57 20.844-12.367 11.766-28.434 29.062-46.82 47.605-35.711 38.023-64.93 68.914-66.562 67.387-1.5273-1.3867 24.965-34.5 60.938-72.758 18.523-18.664 35.297-35.477 48.75-46.312 6.5859-6.6211 14.082-12.266 22.266-16.766z"/>
 <path d="m261.34 841.88c0.83594 0.55469-1.875 6.3477-7.6875 14.82-7.9492 10.703-16.93 20.598-26.812 29.543-11.484 10.473-22.32 19.266-30.289 25.426-7.9688 6.1602-13.199 9.7773-13.941 8.9453-0.74219-0.83594 3.1953-5.7461 10.238-13.012 7.0391-7.2656 17.371-16.773 28.668-27.094 11.297-10.32 21.027-20.055 27.883-27.281 6.7109-7.3555 10.977-12.031 11.941-11.348z"/>
</svg>
